Baskervville-Regular.ufo
<glyph name="exclam" format="1">
  <advance width="248"/>
  <unicode hex="0021"/>
  <outline>
    <contour>
      <point x="108" y="199" type="curve"/>
      <point x="140" y="199" type="line"/>
      <point x="143" y="348"/>
      <point x="159" y="495"/>
      <point x="173" y="643" type="curve"/>
      <point x="173" y="648"/>
      <point x="174" y="653"/>
      <point x="174" y="657" type="curve" smooth="yes"/>
      <point x="174" y="704"/>
      <point x="151" y="724"/>
      <point x="124" y="724" type="curve" smooth="yes"/>
      <point x="95" y="724"/>
      <point x="70" y="700"/>
      <point x="75" y="643" type="curve" smooth="yes"/>
      <point x="89" y="495"/>
      <point x="104" y="347"/>
    </contour>
    <contour>
      <point x="124" y="-14" type="curve" smooth="yes"/>
      <point x="159" y="-14"/>
      <point x="188" y="15"/>
      <point x="188" y="50" type="curve" smooth="yes"/>
      <point x="188" y="85"/>
      <point x="159" y="114"/>
      <point x="124" y="114" type="curve" smooth="yes"/>
      <point x="89" y="114"/>
      <point x="60" y="85"/>
      <point x="60" y="50" type="curve" smooth="yes"/>
      <point x="60" y="15"/>
      <point x="89" y="-14"/>
    </contour>
  </outline>
</glyph>
<glyph name="percent" format="1">
  <advance width="818"/>
  <unicode hex="0025"/>
  <outline>
    <contour>
      <point x="140" y="0" type="line"/>
      <point x="198" y="0" type="line"/>
      <point x="671" y="575" type="line"/>
      <point x="613" y="575" type="line"/>
    </contour>
    <contour>
      <point x="186" y="309" type="curve" smooth="yes"/>
      <point x="273" y="309"/>
      <point x="329" y="363"/>
      <point x="329" y="448" type="curve" smooth="yes"/>
      <point x="329" y="532"/>
      <point x="273" y="586"/>
      <point x="186" y="586" type="curve" smooth="yes"/>
      <point x="101" y="586"/>
      <point x="45" y="532"/>
      <point x="45" y="448" type="curve" smooth="yes"/>
      <point x="45" y="363"/>
      <point x="101" y="309"/>
    </contour>
    <contour>
      <point x="186" y="332" type="curve" smooth="yes"/>
      <point x="131" y="332"/>
      <point x="106" y="367"/>
      <point x="106" y="448" type="curve" smooth="yes"/>
      <point x="106" y="528"/>
      <point x="131" y="563"/>
      <point x="186" y="563" type="curve" smooth="yes"/>
      <point x="242" y="563"/>
      <point x="267" y="528"/>
      <point x="267" y="448" type="curve" smooth="yes"/>
      <point x="267" y="367"/>
      <point x="242" y="332"/>
    </contour>
    <contour>
      <point x="630" y="-10" type="curve" smooth="yes"/>
      <point x="717" y="-10"/>
      <point x="773" y="44"/>
      <point x="773" y="129" type="curve" smooth="yes"/>
      <point x="773" y="213"/>
      <point x="717" y="267"/>
      <point x="630" y="267" type="curve" smooth="yes"/>
      <point x="545" y="267"/>
      <point x="489" y="213"/>
      <point x="489" y="129" type="curve" smooth="yes"/>
      <point x="489" y="44"/>
      <point x="545" y="-10"/>
    </contour>
    <contour>
      <point x="630" y="13" type="curve" smooth="yes"/>
      <point x="575" y="13"/>
      <point x="550" y="48"/>
      <point x="550" y="129" type="curve" smooth="yes"/>
      <point x="550" y="209"/>
      <point x="575" y="244"/>
      <point x="630" y="244" type="curve" smooth="yes"/>
      <point x="686" y="244"/>
      <point x="711" y="211"/>
      <point x="711" y="129" type="curve" smooth="yes"/>
      <point x="711" y="48"/>
      <point x="686" y="13"/>
    </contour>
    <contour>
      <point x="467" y="356" type="move" name="_center"/>
    </contour>
  </outline>
</glyph>
<glyph name="ampersand" format="1">
  <advance width="698"/>
  <unicode hex="0026"/>
  <outline>
    <contour>
      <point x="591" y="-11" type="curve" smooth="yes"/>
      <point x="625" y="-11"/>
      <point x="667" y="7"/>
      <point x="692" y="39" type="curve"/>
      <point x="676" y="58" type="line"/>
      <point x="658" y="42"/>
      <point x="639" y="34"/>
      <point x="620" y="34" type="curve" smooth="yes"/>
      <point x="582" y="34"/>
      <point x="517" y="88"/>
      <point x="375" y="280" type="curve" smooth="yes"/>
      <point x="249" y="451"/>
      <point x="199" y="502"/>
      <point x="199" y="596" type="curve" smooth="yes"/>
      <point x="199" y="652"/>
      <point x="233" y="693"/>
      <point x="291" y="693" type="curve" smooth="yes"/>
      <point x="342" y="693"/>
      <point x="375" y="653"/>
      <point x="375" y="597" type="curve" smooth="yes"/>
      <point x="375" y="529"/>
      <point x="351" y="489"/>
      <point x="265" y="416" type="curve"/>
      <point x="282" y="396" type="line"/>
      <point x="360" y="443"/>
      <point x="455" y="512"/>
      <point x="455" y="596" type="curve" smooth="yes"/>
      <point x="455" y="659"/>
      <point x="405" y="725"/>
      <point x="286" y="725" type="curve" smooth="yes"/>
      <point x="197" y="725"/>
      <point x="116" y="671"/>
      <point x="116" y="568" type="curve" smooth="yes"/>
      <point x="116" y="478"/>
      <point x="167" y="419"/>
      <point x="350" y="172" type="curve" smooth="yes"/>
      <point x="476" y="2"/>
      <point x="521" y="-11"/>
    </contour>
    <contour>
      <point x="255" y="-11" type="curve" smooth="yes"/>
      <point x="397" y="-11"/>
      <point x="475" y="108"/>
      <point x="514" y="180" type="curve" smooth="yes"/>
      <point x="554" y="254"/>
      <point x="582" y="313"/>
      <point x="632" y="324" type="curve" smooth="yes"/>
      <point x="668" y="332" type="line"/>
      <point x="668" y="356" type="line"/>
      <point x="559" y="353" type="line"/>
      <point x="428" y="356" type="line"/>
      <point x="428" y="331" type="line"/>
      <point x="458" y="328" type="line" smooth="yes"/>
      <point x="500" y="324"/>
      <point x="523" y="312"/>
      <point x="523" y="284" type="curve" smooth="yes"/>
      <point x="523" y="262"/>
      <point x="510" y="231"/>
      <point x="483" y="187" type="curve" smooth="yes"/>
      <point x="452" y="136"/>
      <point x="374" y="21"/>
      <point x="264" y="21" type="curve" smooth="yes"/>
      <point x="163" y="21"/>
      <point x="136" y="103"/>
      <point x="136" y="167" type="curve" smooth="yes"/>
      <point x="136" y="253"/>
      <point x="179" y="313"/>
      <point x="238" y="365" type="curve"/>
      <point x="217" y="393" type="line"/>
      <point x="129" y="338"/>
      <point x="46" y="272"/>
      <point x="46" y="168" type="curve" smooth="yes"/>
      <point x="46" y="58"/>
      <point x="155" y="-11"/>
    </contour>
  </outline>
</glyph>
<glyph name="quotesingle" format="1">
  <advance width="204"/>
  <unicode hex="0027"/>
  <outline>
    <contour>
      <point x="90" y="469" type="line"/>
      <point x="114" y="469" type="line"/>
      <point x="140" y="652" type="line" smooth="yes"/>
      <point x="141" y="659"/>
      <point x="141" y="665"/>
      <point x="141" y="671" type="curve" smooth="yes"/>
      <point x="141" y="700"/>
      <point x="131" y="724"/>
      <point x="102" y="724" type="curve" smooth="yes"/>
      <point x="73" y="724"/>
      <point x="63" y="700"/>
      <point x="63" y="671" type="curve" smooth="yes"/>
      <point x="63" y="665"/>
      <point x="63" y="659"/>
      <point x="64" y="652" type="curve" smooth="yes"/>
    </contour>
  </outline>
</glyph>
<glyph name="comma" format="1">
  <advance width="282"/>
  <unicode hex="002C"/>
  <outline>
    <contour>
      <point x="76" y="-216" type="line"/>
      <point x="106" y="-197"/>
      <point x="146" y="-168"/>
      <point x="176" y="-128" type="curve" smooth="yes"/>
      <point x="204" y="-92"/>
      <point x="223" y="-47"/>
      <point x="223" y="0" type="curve" smooth="yes"/>
      <point x="223" y="63"/>
      <point x="193" y="123"/>
      <point x="131" y="123" type="curve" smooth="yes"/>
      <point x="85" y="123"/>
      <point x="60" y="92"/>
      <point x="60" y="56" type="curve" smooth="yes"/>
      <point x="60" y="19"/>
      <point x="86" y="-11"/>
      <point x="120" y="-11" type="curve" smooth="yes"/>
      <point x="157" y="-11"/>
      <point x="173" y="14"/>
      <point x="173" y="37" type="curve" smooth="yes"/>
      <point x="173" y="49"/>
      <point x="168" y="63"/>
      <point x="163" y="70" type="curve"/>
      <point x="166" y="75" type="line"/>
      <point x="186" y="65"/>
      <point x="193" y="25"/>
      <point x="193" y="0" type="curve" smooth="yes"/>
      <point x="193" y="-86"/>
      <point x="126" y="-147"/>
      <point x="62" y="-189" type="curve"/>
    </contour>
  </outline>
</glyph>
<glyph name="hyphen" format="1">
  <advance width="387"/>
  <unicode hex="002D"/>
  <outline>
    <contour>
      <point x="60" y="198" type="line"/>
      <point x="327" y="198" type="line"/>
      <point x="327" y="238" type="line"/>
      <point x="60" y="238" type="line"/>
    </contour>
  </outline>
</glyph>
<glyph name="period" format="1">
  <advance width="246"/>
  <unicode hex="002E"/>
  <outline>
    <contour>
      <point x="124" y="-11" type="curve" smooth="yes"/>
      <point x="159" y="-11"/>
      <point x="186" y="18"/>
      <point x="186" y="53" type="curve" smooth="yes"/>
      <point x="186" y="86"/>
      <point x="159" y="115"/>
      <point x="124" y="115" type="curve" smooth="yes"/>
      <point x="87" y="115"/>
      <point x="60" y="86"/>
      <point x="60" y="53" type="curve" smooth="yes"/>
      <point x="60" y="18"/>
      <point x="87" y="-11"/>
    </contour>
  </outline>
</glyph>
<glyph name="one" format="1">
  <advance width="306"/>
  <unicode hex="0031"/>
  <outline>
    <contour>
      <point x="30" y="-3" type="line"/>
      <point x="153" y="0" type="line"/>
      <point x="276" y="-3" type="line"/>
      <point x="276" y="20" type="line"/>
      <point x="260" y="22" type="line" smooth="yes"/>
      <point x="202" y="29"/>
      <point x="188" y="31"/>
      <point x="188" y="121" type="curve" smooth="yes"/>
      <point x="188" y="475" type="line"/>
      <point x="172" y="467"/>
      <point x="148" y="461"/>
      <point x="122" y="456" type="curve"/>
      <point x="94" y="452"/>
      <point x="63" y="449"/>
      <point x="34" y="450" type="curve"/>
      <point x="34" y="420" type="line"/>
      <point x="88" y="421"/>
      <point x="118" y="412"/>
      <point x="118" y="337" type="curve" smooth="yes"/>
      <point x="118" y="121" type="line" smooth="yes"/>
      <point x="118" y="31"/>
      <point x="104" y="29"/>
      <point x="46" y="22" type="curve" smooth="yes"/>
      <point x="30" y="20" type="line"/>
    </contour>
  </outline>
</glyph>
<glyph name="two" format="1">
  <advance width="427"/>
  <unicode hex="0032"/>
  <outline>
    <contour>
      <point x="320" y="-88" type="line"/>
      <point x="343" y="-88" type="line"/>
      <point x="344" y="35" type="line"/>
      <point x="349" y="79" type="line"/>
      <point x="151" y="64" type="line"/>
      <point x="196" y="104" type="line" smooth="yes"/>
      <point x="262" y="163"/>
      <point x="354" y="244"/>
      <point x="354" y="334" type="curve" smooth="yes"/>
      <point x="354" y="399"/>
      <point x="300" y="469"/>
      <point x="196" y="469" type="curve" smooth="yes"/>
      <point x="109" y="469"/>
      <point x="44" y="413"/>
      <point x="44" y="335" type="curve" smooth="yes"/>
      <point x="44" y="282"/>
      <point x="74" y="238"/>
      <point x="119" y="218" type="curve"/>
      <point x="129" y="240" type="line"/>
      <point x="104" y="249"/>
      <point x="74" y="283"/>
      <point x="74" y="332" type="curve" smooth="yes"/>
      <point x="74" y="386"/>
      <point x="108" y="438"/>
      <point x="177" y="438" type="curve" smooth="yes"/>
      <point x="235" y="438"/>
      <point x="274" y="393"/>
      <point x="274" y="322" type="curve" smooth="yes"/>
      <point x="274" y="222"/>
      <point x="201" y="158"/>
      <point x="135" y="86" type="curve" smooth="yes"/>
      <point x="75" y="20" type="line"/>
      <point x="75" y="0" type="line"/>
      <point x="219" y="0" type="line" smooth="yes"/>
      <point x="309" y="0"/>
      <point x="311" y="-14"/>
      <point x="318" y="-72" type="curve" smooth="yes"/>
    </contour>
  </outline>
</glyph>
<glyph name="three" format="1">
  <advance width="446"/>
  <unicode hex="0033"/>
  <outline>
    <contour>
      <point x="158" y="-294" type="curve" smooth="yes"/>
      <point x="306" y="-294"/>
      <point x="378" y="-189"/>
      <point x="378" y="-68" type="curve" smooth="yes"/>
      <point x="378" y="31"/>
      <point x="310" y="120"/>
      <point x="211" y="120" type="curve" smooth="yes"/>
      <point x="202" y="120"/>
      <point x="194" y="119"/>
      <point x="184" y="118" type="curve"/>
      <point x="244" y="159" type="line" smooth="yes"/>
      <point x="329" y="217"/>
      <point x="353" y="276"/>
      <point x="353" y="328" type="curve" smooth="yes"/>
      <point x="353" y="410"/>
      <point x="293" y="469"/>
      <point x="193" y="469" type="curve" smooth="yes"/>
      <point x="102" y="469"/>
      <point x="33" y="413"/>
      <point x="33" y="335" type="curve" smooth="yes"/>
      <point x="33" y="281"/>
      <point x="61" y="236"/>
      <point x="118" y="213" type="curve"/>
      <point x="126" y="236" type="line"/>
      <point x="97" y="247"/>
      <point x="63" y="275"/>
      <point x="63" y="333" type="curve" smooth="yes"/>
      <point x="63" y="390"/>
      <point x="107" y="438"/>
      <point x="169" y="438" type="curve" smooth="yes"/>
      <point x="229" y="438"/>
      <point x="273" y="399"/>
      <point x="273" y="327" type="curve" smooth="yes"/>
      <point x="273" y="224"/>
      <point x="202" y="158"/>
      <point x="154" y="124" type="curve"/>
      <point x="137" y="111"/>
      <point x="129" y="107"/>
      <point x="111" y="99" type="curve"/>
      <point x="121" y="73" type="line"/>
      <point x="137" y="82"/>
      <point x="163" y="92"/>
      <point x="196" y="92" type="curve" smooth="yes"/>
      <point x="253" y="92"/>
      <point x="294" y="44"/>
      <point x="294" y="-59" type="curve" smooth="yes"/>
      <point x="294" y="-184"/>
      <point x="240" y="-267"/>
      <point x="154" y="-267" type="curve" smooth="yes"/>
      <point x="94" y="-267"/>
      <point x="76" y="-242"/>
      <point x="76" y="-216" type="curve" smooth="yes"/>
      <point x="76" y="-199"/>
      <point x="85" y="-187"/>
      <point x="85" y="-171" type="curve" smooth="yes"/>
      <point x="85" y="-146"/>
      <point x="66" y="-128"/>
      <point x="42" y="-128" type="curve" smooth="yes"/>
      <point x="13" y="-128"/>
      <point x="-6" y="-151"/>
      <point x="-6" y="-183" type="curve" smooth="yes"/>
      <point x="-6" y="-248"/>
      <point x="73" y="-294"/>
    </contour>
  </outline>
</glyph>
<glyph name="five" format="1">
  <advance width="477"/>
  <unicode hex="0035"/>
  <outline>
    <contour>
      <point x="203" y="-11" type="curve" smooth="yes"/>
      <point x="316" y="-11"/>
      <point x="412" y="90"/>
      <point x="412" y="250" type="curve" smooth="yes"/>
      <point x="412" y="379"/>
      <point x="329" y="454"/>
      <point x="236" y="454" type="curve" smooth="yes"/>
      <point x="196" y="454"/>
      <point x="160" y="438"/>
      <point x="136" y="413" type="curve"/>
      <point x="152" y="615" type="line"/>
      <point x="191" y="615" type="line" smooth="yes"/>
      <point x="295" y="615"/>
      <point x="371" y="624"/>
      <point x="371" y="696" type="curve" smooth="yes"/>
      <point x="371" y="706" type="line"/>
      <point x="361" y="706" type="line"/>
      <point x="335" y="691"/>
      <point x="284" y="688"/>
      <point x="229" y="688" type="curve" smooth="yes"/>
      <point x="198" y="688" type="line"/>
      <point x="158" y="689" type="line"/>
      <point x="160" y="716" type="line"/>
      <point x="134" y="716" type="line"/>
      <point x="108" y="354" type="line"/>
      <point x="127" y="354" type="line"/>
      <point x="143" y="389"/>
      <point x="175" y="421"/>
      <point x="220" y="421" type="curve" smooth="yes"/>
      <point x="272" y="421"/>
      <point x="329" y="372"/>
      <point x="329" y="248" type="curve" smooth="yes"/>
      <point x="329" y="129"/>
      <point x="285" y="17"/>
      <point x="198" y="17" type="curve" smooth="yes"/>
      <point x="160" y="17"/>
      <point x="130" y="40"/>
      <point x="130" y="73" type="curve" smooth="yes"/>
      <point x="130" y="93"/>
      <point x="138" y="105"/>
      <point x="138" y="121" type="curve" smooth="yes"/>
      <point x="138" y="144"/>
      <point x="122" y="162"/>
      <point x="97" y="162" type="curve" smooth="yes"/>
      <point x="68" y="162"/>
      <point x="47" y="138"/>
      <point x="47" y="100" type="curve" smooth="yes"/>
      <point x="47" y="46"/>
      <point x="102" y="-11"/>
    </contour>
  </outline>
</glyph>
<glyph name="six" format="1">
  <advance width="531"/>
  <unicode hex="0036"/>
  <outline>
    <contour>
      <point x="263" y="-11" type="curve" smooth="yes"/>
      <point x="388" y="-11"/>
      <point x="463" y="92"/>
      <point x="463" y="216" type="curve" smooth="yes"/>
      <point x="463" y="367"/>
      <point x="368" y="429"/>
      <point x="287" y="429" type="curve" smooth="yes"/>
      <point x="219" y="429"/>
      <point x="167" y="395"/>
      <point x="135" y="332" type="curve"/>
      <point x="135" y="339" type="line"/>
      <point x="131" y="576"/>
      <point x="215" y="695"/>
      <point x="294" y="695" type="curve" smooth="yes"/>
      <point x="328" y="695"/>
      <point x="344" y="675"/>
      <point x="353" y="636" type="curve" smooth="yes"/>
      <point x="358" y="615"/>
      <point x="379" y="607"/>
      <point x="396" y="607" type="curve"/>
      <point x="422" y="608"/>
      <point x="441" y="625"/>
      <point x="441" y="656" type="curve" smooth="yes"/>
      <point x="441" y="705"/>
      <point x="376" y="724"/>
      <point x="314" y="724" type="curve" smooth="yes"/>
      <point x="150" y="724"/>
      <point x="57" y="553"/>
      <point x="57" y="319" type="curve" smooth="yes"/>
      <point x="57" y="133"/>
      <point x="102" y="-11"/>
    </contour>
    <contour>
      <point x="255" y="19" type="curve" smooth="yes"/>
      <point x="183" y="19"/>
      <point x="144" y="92"/>
      <point x="144" y="210" type="curve" smooth="yes"/>
      <point x="144" y="325"/>
      <point x="206" y="398"/>
      <point x="272" y="398" type="curve" smooth="yes"/>
      <point x="342" y="398"/>
      <point x="383" y="338"/>
      <point x="383" y="220" type="curve" smooth="yes"/>
      <point x="383" y="92"/>
      <point x="329" y="19"/>
    </contour>
  </outline>
</glyph>
<glyph name="seven" format="1">
  <advance width="478"/>
  <unicode hex="0037"/>
  <outline>
    <contour>
      <point x="173" y="-294" type="curve" smooth="yes"/>
      <point x="193" y="-294"/>
      <point x="217" y="-282"/>
      <point x="232" y="-231" type="curve" smooth="yes"/>
      <point x="424" y="434" type="line"/>
      <point x="424" y="450" type="line"/>
      <point x="67" y="450" type="line"/>
      <point x="67" y="500" type="line"/>
      <point x="45" y="500" type="line"/>
      <point x="45" y="268" type="line"/>
      <point x="67" y="268" type="line"/>
      <point x="67" y="368" type="line"/>
      <point x="381" y="368" type="line"/>
      <point x="150" y="-197" type="line" smooth="yes"/>
      <point x="142" y="-216"/>
      <point x="138" y="-234"/>
      <point x="138" y="-249" type="curve" smooth="yes"/>
      <point x="138" y="-276"/>
      <point x="151" y="-294"/>
    </contour>
  </outline>
</glyph>
<glyph name="nine" format="1">
  <advance width="555"/>
  <unicode hex="0039"/>
  <outline>
    <contour>
      <point x="224" y="-296" type="curve" smooth="yes"/>
      <point x="391" y="-296"/>
      <point x="484" y="-132"/>
      <point x="484" y="112" type="curve" smooth="yes"/>
      <point x="484" y="311"/>
      <point x="441" y="469"/>
      <point x="268" y="469" type="curve" smooth="yes"/>
      <point x="142" y="469"/>
      <point x="52" y="349"/>
      <point x="57" y="219" type="curve" smooth="yes"/>
      <point x="64" y="69"/>
      <point x="156" y="-11"/>
      <point x="261" y="-11" type="curve" smooth="yes"/>
      <point x="316" y="-11"/>
      <point x="370" y="9"/>
      <point x="401" y="63" type="curve"/>
      <point x="406" y="-165"/>
      <point x="333" y="-265"/>
      <point x="258" y="-265" type="curve" smooth="yes"/>
      <point x="233" y="-265"/>
      <point x="222" y="-246"/>
      <point x="201" y="-206" type="curve"/>
      <point x="187" y="-183"/>
      <point x="174" y="-178"/>
      <point x="157" y="-178" type="curve"/>
      <point x="131" y="-179"/>
      <point x="112" y="-198"/>
      <point x="112" y="-226" type="curve" smooth="yes"/>
      <point x="112" y="-281"/>
      <point x="170" y="-296"/>
    </contour>
    <contour>
      <point x="268" y="19" type="curve" smooth="yes"/>
      <point x="182" y="19"/>
      <point x="143" y="88"/>
      <point x="137" y="223" type="curve" smooth="yes"/>
      <point x="131" y="360"/>
      <point x="186" y="439"/>
      <point x="270" y="439" type="curve" smooth="yes"/>
      <point x="357" y="439"/>
      <point x="396" y="366"/>
      <point x="396" y="244" type="curve" smooth="yes"/>
      <point x="396" y="113"/>
      <point x="377" y="19"/>
    </contour>
  </outline>
</glyph>
<glyph name="equal" format="1">
  <advance width="600"/>
  <unicode hex="003D"/>
  <outline>
    <contour>
      <point x="84" y="352" type="line"/>
      <point x="528" y="352" type="line"/>
      <point x="528" y="392" type="line"/>
      <point x="84" y="392" type="line"/>
    </contour>
    <contour>
      <point x="84" y="221" type="line"/>
      <point x="528" y="221" type="line"/>
      <point x="528" y="261" type="line"/>
      <point x="84" y="261" type="line"/>
    </contour>
  </outline>
</glyph>
<glyph name="question" format="1">
  <advance width="454"/>
  <unicode hex="003F"/>
  <outline>
    <contour>
      <point x="141" y="176" type="curve" smooth="yes"/>
      <point x="160" y="176"/>
      <point x="181" y="195"/>
      <point x="172" y="229" type="curve" smooth="yes"/>
      <point x="161" y="271"/>
      <point x="145" y="310"/>
      <point x="131" y="388" type="curve"/>
      <point x="156" y="367"/>
      <point x="191" y="354"/>
      <point x="232" y="354" type="curve" smooth="yes"/>
      <point x="322" y="354"/>
      <point x="393" y="430"/>
      <point x="397" y="540" type="curve" smooth="yes"/>
      <point x="401" y="652"/>
      <point x="314" y="724"/>
      <point x="213" y="724" type="curve" smooth="yes"/>
      <point x="146" y="724"/>
      <point x="68" y="693"/>
      <point x="67" y="640" type="curve" smooth="yes"/>
      <point x="66" y="609"/>
      <point x="87" y="585"/>
      <point x="114" y="585" type="curve" smooth="yes"/>
      <point x="146" y="585"/>
      <point x="160" y="609"/>
      <point x="160" y="629" type="curve" smooth="yes"/>
      <point x="160" y="643"/>
      <point x="153" y="657"/>
      <point x="153" y="668" type="curve" smooth="yes"/>
      <point x="153" y="686"/>
      <point x="167" y="698"/>
      <point x="211" y="698" type="curve" smooth="yes"/>
      <point x="290" y="698"/>
      <point x="321" y="641"/>
      <point x="317" y="540" type="curve" smooth="yes"/>
      <point x="314" y="445"/>
      <point x="295" y="381"/>
      <point x="220" y="381" type="curve" smooth="yes"/>
      <point x="160" y="381"/>
      <point x="125" y="415"/>
      <point x="111" y="468" type="curve"/>
      <point x="90" y="467" type="line"/>
      <point x="90" y="464" type="line"/>
      <point x="102" y="214" type="line" smooth="yes"/>
      <point x="103" y="188"/>
      <point x="122" y="176"/>
    </contour>
    <component base="period" xScale="-1" xOffset="268"/>
  </outline>
</glyph>
<glyph name="B" format="1">
  <advance width="686"/>
  <unicode hex="0042"/>
  <outline>
    <contour>
      <point x="40" y="-3" type="line"/>
      <point x="188" y="0" type="line"/>
      <point x="366" y="0" type="line" smooth="yes"/>
      <point x="491" y="0"/>
      <point x="626" y="46"/>
      <point x="626" y="202" type="curve" smooth="yes"/>
      <point x="626" y="328"/>
      <point x="537" y="371"/>
      <point x="441" y="380" type="curve"/>
      <point x="510" y="404"/>
      <point x="584" y="454"/>
      <point x="584" y="547" type="curve" smooth="yes"/>
      <point x="584" y="707"/>
      <point x="401" y="710"/>
      <point x="310" y="710" type="curve" smooth="yes"/>
      <point x="188" y="710" type="line"/>
      <point x="40" y="713" type="line"/>
      <point x="40" y="688" type="line"/>
      <point x="60" y="686" type="line" smooth="yes"/>
      <point x="129" y="678"/>
      <point x="146" y="676"/>
      <point x="146" y="577" type="curve" smooth="yes"/>
      <point x="146" y="133" type="line" smooth="yes"/>
      <point x="146" y="34"/>
      <point x="129" y="32"/>
      <point x="60" y="24" type="curve" smooth="yes"/>
      <point x="40" y="22" type="line"/>
    </contour>
    <contour>
      <point x="310" y="28" type="line" smooth="yes"/>
      <point x="254" y="28"/>
      <point x="227" y="49"/>
      <point x="227" y="129" type="curve" smooth="yes"/>
      <point x="227" y="682" type="line"/>
      <point x="340" y="682" type="line" smooth="yes"/>
      <point x="435" y="682"/>
      <point x="491" y="660"/>
      <point x="491" y="547" type="curve" smooth="yes"/>
      <point x="491" y="440"/>
      <point x="442" y="387"/>
      <point x="360" y="387" type="curve" smooth="yes"/>
      <point x="221" y="387" type="line"/>
      <point x="221" y="359" type="line"/>
      <point x="320" y="359" type="line" smooth="yes"/>
      <point x="464" y="359"/>
      <point x="532" y="337"/>
      <point x="532" y="201" type="curve" smooth="yes"/>
      <point x="532" y="60"/>
      <point x="466" y="28"/>
      <point x="366" y="28" type="curve" smooth="yes"/>
    </contour>
    <contour>
      <point x="332" y="0" type="move" name="bottom"/>
    </contour>
    <contour>
      <point x="332" y="710" type="move" name="top"/>
    </contour>
  </outline>
</glyph>
<glyph name="C" format="1">
  <advance width="720"/>
  <unicode hex="0043"/>
  <outline>
    <contour>
      <point x="390" y="-11" type="curve" smooth="yes"/>
      <point x="466" y="-11"/>
      <point x="522" y="16"/>
      <point x="557" y="33" type="curve" smooth="yes"/>
      <point x="573" y="41"/>
      <point x="585" y="47"/>
      <point x="595" y="47" type="curve" smooth="yes"/>
      <point x="612" y="47"/>
      <point x="618" y="28"/>
      <point x="623" y="11" type="curve" smooth="yes"/>
      <point x="626" y="0" type="line"/>
      <point x="650" y="0" type="line"/>
      <point x="647" y="117" type="line"/>
      <point x="649" y="239" type="line"/>
      <point x="625" y="239" type="line"/>
      <point x="612" y="119"/>
      <point x="528" y="19"/>
      <point x="399" y="19" type="curve" smooth="yes"/>
      <point x="225" y="19"/>
      <point x="164" y="145"/>
      <point x="164" y="355" type="curve" smooth="yes"/>
      <point x="164" y="541"/>
      <point x="224" y="694"/>
      <point x="399" y="694" type="curve" smooth="yes"/>
      <point x="524" y="694"/>
      <point x="602" y="614"/>
      <point x="622" y="476" type="curve"/>
      <point x="647" y="476" type="line"/>
      <point x="645" y="593" type="line"/>
      <point x="647" y="710" type="line"/>
      <point x="622" y="710" type="line"/>
      <point x="619" y="682"/>
      <point x="609" y="672"/>
      <point x="595" y="672" type="curve" smooth="yes"/>
      <point x="589" y="672"/>
      <point x="573" y="679"/>
      <point x="556" y="687" type="curve" smooth="yes"/>
      <point x="529" y="700"/>
      <point x="477" y="724"/>
      <point x="396" y="724" type="curve" smooth="yes"/>
      <point x="213" y="724"/>
      <point x="62" y="567"/>
      <point x="62" y="355" type="curve" smooth="yes"/>
      <point x="62" y="141"/>
      <point x="186" y="-11"/>
    </contour>
    <contour>
      <point x="381" y="0" type="move" name="bottom"/>
    </contour>
    <contour>
      <point x="394" y="710" type="move" name="top"/>
    </contour>
  </outline>
</glyph>
<glyph name="E" format="1">
  <advance width="649"/>
  <unicode hex="0045"/>
  <outline>
    <contour>
      <point x="40" y="-3" type="line"/>
      <point x="188" y="0" type="line"/>
      <point x="599" y="0" type="line"/>
      <point x="602" y="90" type="line"/>
      <point x="609" y="210" type="line"/>
      <point x="584" y="210" type="line"/>
      <point x="571" y="55"/>
      <point x="539" y="28"/>
      <point x="423" y="28" type="curve" smooth="yes"/>
      <point x="330" y="28" type="line" smooth="yes"/>
      <point x="254" y="28"/>
      <point x="231" y="43"/>
      <point x="231" y="107" type="curve" smooth="yes"/>
      <point x="231" y="681" type="line"/>
      <point x="363" y="681" type="line" smooth="yes"/>
      <point x="511" y="681"/>
      <point x="543" y="667"/>
      <point x="562" y="546" type="curve"/>
      <point x="586" y="546" type="line"/>
      <point x="578" y="638" type="line"/>
      <point x="576" y="710" type="line"/>
      <point x="188" y="710" type="line"/>
      <point x="40" y="713" type="line"/>
      <point x="40" y="688" type="line"/>
      <point x="60" y="686" type="line" smooth="yes"/>
      <point x="129" y="678"/>
      <point x="146" y="676"/>
      <point x="146" y="577" type="curve" smooth="yes"/>
      <point x="146" y="133" type="line" smooth="yes"/>
      <point x="146" y="34"/>
      <point x="129" y="32"/>
      <point x="60" y="24" type="curve" smooth="yes"/>
      <point x="40" y="22" type="line"/>
    </contour>
    <contour>
      <point x="414" y="226" type="curve"/>
      <point x="439" y="226" type="line"/>
      <point x="436" y="374" type="line"/>
      <point x="439" y="508" type="line"/>
      <point x="414" y="508" type="line"/>
      <point x="409" y="409"/>
      <point x="382" y="388"/>
      <point x="343" y="388" type="curve" smooth="yes"/>
      <point x="225" y="388" type="line"/>
      <point x="225" y="360" type="line"/>
      <point x="343" y="360" type="line" smooth="yes"/>
      <point x="389" y="360"/>
      <point x="414" y="323"/>
    </contour>
    <contour>
      <point x="353" y="0" type="move" name="bottom"/>
    </contour>
    <contour>
      <point x="559" y="0" type="move" name="ogonek"/>
    </contour>
    <contour>
      <point x="363" y="710" type="move" name="top"/>
    </contour>
    <contour>
      <point x="2" y="710" type="move" name="topleft"/>
    </contour>
  </outline>
</glyph>
<glyph name="G" format="1">
  <advance width="785"/>
  <unicode hex="0047"/>
  <outline>
    <contour>
      <point x="394" y="-11" type="curve" smooth="yes"/>
      <point x="493" y="-11"/>
      <point x="541" y="23"/>
      <point x="576" y="48" type="curve" smooth="yes"/>
      <point x="596" y="63"/>
      <point x="612" y="75"/>
      <point x="633" y="75" type="curve" smooth="yes"/>
      <point x="645" y="75"/>
      <point x="662" y="67"/>
      <point x="680" y="39" type="curve"/>
      <point x="703" y="54" type="line"/>
      <point x="689" y="79" type="line" smooth="yes"/>
      <point x="679" y="97"/>
      <point x="667" y="125"/>
      <point x="667" y="156" type="curve" smooth="yes"/>
      <point x="667" y="174" type="line" smooth="yes"/>
      <point x="667" y="237"/>
      <point x="692" y="258"/>
      <point x="728" y="261" type="curve" smooth="yes"/>
      <point x="773" y="265" type="line"/>
      <point x="773" y="289" type="line"/>
      <point x="619" y="285" type="line"/>
      <point x="453" y="289" type="line"/>
      <point x="453" y="265" type="line"/>
      <point x="496" y="261" type="line" smooth="yes"/>
      <point x="569" y="254"/>
      <point x="592" y="233"/>
      <point x="592" y="174" type="curve" smooth="yes"/>
      <point x="592" y="146" type="line" smooth="yes"/>
      <point x="592" y="81"/>
      <point x="511" y="19"/>
      <point x="400" y="19" type="curve" smooth="yes"/>
      <point x="250" y="19"/>
      <point x="164" y="126"/>
      <point x="164" y="355" type="curve" smooth="yes"/>
      <point x="164" y="572"/>
      <point x="241" y="694"/>
      <point x="397" y="694" type="curve" smooth="yes"/>
      <point x="504" y="694"/>
      <point x="617" y="614"/>
      <point x="621" y="478" type="curve"/>
      <point x="646" y="478" type="line"/>
      <point x="644" y="595" type="line"/>
      <point x="646" y="710" type="line"/>
      <point x="621" y="710" type="line"/>
      <point x="621" y="694"/>
      <point x="614" y="673"/>
      <point x="596" y="673" type="curve" smooth="yes"/>
      <point x="579" y="673"/>
      <point x="570" y="677"/>
      <point x="536" y="692" type="curve" smooth="yes"/>
      <point x="506" y="705"/>
      <point x="459" y="724"/>
      <point x="400" y="724" type="curve" smooth="yes"/>
      <point x="218" y="724"/>
      <point x="62" y="572"/>
      <point x="62" y="355" type="curve" smooth="yes"/>
      <point x="62" y="131"/>
      <point x="210" y="-11"/>
    </contour>
    <contour>
      <point x="399" y="0" type="move" name="bottom"/>
    </contour>
    <contour>
      <point x="399" y="710" type="move" name="top"/>
    </contour>
  </outline>
</glyph>
<glyph name="H" format="1">
  <advance width="843"/>
  <unicode hex="0048"/>
  <outline>
    <contour>
      <point x="198" y="352" type="line"/>
      <point x="640" y="352" type="line"/>
      <point x="640" y="384" type="line"/>
      <point x="198" y="384" type="line"/>
    </contour>
    <component base="I" xOffset="466"/>
    <component base="I"/>
    <contour>
      <point x="420" y="0" type="move" name="bottom"/>
    </contour>
    <contour>
      <point x="420" y="521" type="move" name="center"/>
    </contour>
    <contour>
      <point x="425" y="710" type="move" name="top"/>
    </contour>
    <contour>
      <point x="-10" y="710" type="move" name="topleft"/>
    </contour>
  </outline>
</glyph>
<glyph name="I" format="1">
  <advance width="377"/>
  <unicode hex="0049"/>
  <outline>
    <contour>
      <point x="40" y="-3" type="line"/>
      <point x="188" y="0" type="line"/>
      <point x="189" y="0" type="line"/>
      <point x="337" y="-3" type="line"/>
      <point x="337" y="22" type="line"/>
      <point x="317" y="24" type="line" smooth="yes"/>
      <point x="248" y="32"/>
      <point x="231" y="34"/>
      <point x="231" y="133" type="curve" smooth="yes"/>
      <point x="231" y="577" type="line" smooth="yes"/>
      <point x="231" y="676"/>
      <point x="248" y="678"/>
      <point x="317" y="686" type="curve" smooth="yes"/>
      <point x="337" y="688" type="line"/>
      <point x="337" y="713" type="line"/>
      <point x="189" y="710" type="line"/>
      <point x="188" y="710" type="line"/>
      <point x="40" y="713" type="line"/>
      <point x="40" y="688" type="line"/>
      <point x="60" y="686" type="line" smooth="yes"/>
      <point x="129" y="678"/>
      <point x="146" y="676"/>
      <point x="146" y="577" type="curve" smooth="yes"/>
      <point x="146" y="133" type="line" smooth="yes"/>
      <point x="146" y="34"/>
      <point x="129" y="32"/>
      <point x="60" y="24" type="curve" smooth="yes"/>
      <point x="40" y="22" type="line"/>
    </contour>
    <contour>
      <point x="180" y="0" type="move" name="bottom"/>
    </contour>
    <contour>
      <point x="214" y="0" type="move" name="ogonek"/>
    </contour>
    <contour>
      <point x="187" y="710" type="move" name="top"/>
    </contour>
    <contour>
      <point x="-5" y="710" type="move" name="topleft"/>
    </contour>
  </outline>
</glyph>
<glyph name="K" format="1">
  <advance width="741"/>
  <unicode hex="004B"/>
  <outline>
    <contour>
      <point x="219" y="249" type="line"/>
      <point x="522" y="606" type="line" smooth="yes"/>
      <point x="560" y="651"/>
      <point x="594" y="679"/>
      <point x="634" y="684" type="curve" smooth="yes"/>
      <point x="668" y="688" type="line"/>
      <point x="668" y="713" type="line"/>
      <point x="547" y="710" type="line"/>
      <point x="419" y="713" type="line"/>
      <point x="419" y="687" type="line"/>
      <point x="451" y="684" type="line" smooth="yes"/>
      <point x="480" y="681"/>
      <point x="497" y="671"/>
      <point x="497" y="652" type="curve" smooth="yes"/>
      <point x="497" y="635"/>
      <point x="485" y="611"/>
      <point x="457" y="578" type="curve" smooth="yes"/>
      <point x="219" y="300" type="line"/>
    </contour>
    <contour>
      <point x="40" y="-3" type="line"/>
      <point x="188" y="0" type="line"/>
      <point x="189" y="0" type="line"/>
      <point x="324" y="-3" type="line"/>
      <point x="324" y="22" type="line"/>
      <point x="306" y="24" type="line" smooth="yes"/>
      <point x="242" y="32"/>
      <point x="227" y="34"/>
      <point x="227" y="133" type="curve" smooth="yes"/>
      <point x="227" y="577" type="line" smooth="yes"/>
      <point x="227" y="667"/>
      <point x="240" y="678"/>
      <point x="301" y="685" type="curve" smooth="yes"/>
      <point x="321" y="687" type="line"/>
      <point x="321" y="713" type="line"/>
      <point x="188" y="710" type="line"/>
      <point x="40" y="713" type="line"/>
      <point x="40" y="688" type="line"/>
      <point x="60" y="686" type="line" smooth="yes"/>
      <point x="129" y="678"/>
      <point x="146" y="676"/>
      <point x="146" y="577" type="curve" smooth="yes"/>
      <point x="146" y="133" type="line" smooth="yes"/>
      <point x="146" y="34"/>
      <point x="129" y="32"/>
      <point x="60" y="24" type="curve" smooth="yes"/>
      <point x="40" y="22" type="line"/>
    </contour>
    <contour>
      <point x="461" y="-3" type="line"/>
      <point x="609" y="0" type="line"/>
      <point x="761" y="-3" type="line"/>
      <point x="761" y="22" type="line"/>
      <point x="740" y="24" type="line" smooth="yes"/>
      <point x="668" y="31"/>
      <point x="626" y="82"/>
      <point x="558" y="171" type="curve" smooth="yes"/>
      <point x="356" y="435" type="line"/>
      <point x="297" y="365" type="line"/>
      <point x="497" y="107" type="line" smooth="yes"/>
      <point x="514" y="85"/>
      <point x="524" y="66"/>
      <point x="524" y="52" type="curve" smooth="yes"/>
      <point x="524" y="36"/>
      <point x="510" y="25"/>
      <point x="476" y="23" type="curve" smooth="yes"/>
      <point x="461" y="22" type="line"/>
    </contour>
    <contour>
      <point x="393" y="0" type="move" name="bottom"/>
    </contour>
    <contour>
      <point x="371" y="710" type="move" name="top"/>
    </contour>
  </outline>
</glyph>
<glyph name="L" format="1">
  <advance width="651"/>
  <unicode hex="004C"/>
  <outline>
    <contour>
      <point x="40" y="-3" type="line"/>
      <point x="188" y="0" type="line"/>
      <point x="606" y="-3" type="line"/>
      <point x="616" y="210" type="line"/>
      <point x="594" y="210" type="line"/>
      <point x="584" y="92"/>
      <point x="539" y="29"/>
      <point x="423" y="29" type="curve" smooth="yes"/>
      <point x="348" y="29" type="line" smooth="yes"/>
      <point x="235" y="29"/>
      <point x="231" y="73"/>
      <point x="231" y="172" type="curve" smooth="yes"/>
      <point x="231" y="589" type="line" smooth="yes"/>
      <point x="231" y="679"/>
      <point x="245" y="681"/>
      <point x="303" y="688" type="curve" smooth="yes"/>
      <point x="319" y="690" type="line"/>
      <point x="319" y="713" type="line"/>
      <point x="190" y="710" type="line"/>
      <point x="40" y="713" type="line"/>
      <point x="40" y="688" type="line"/>
      <point x="60" y="686" type="line" smooth="yes"/>
      <point x="129" y="678"/>
      <point x="146" y="676"/>
      <point x="146" y="577" type="curve" smooth="yes"/>
      <point x="146" y="133" type="line" smooth="yes"/>
      <point x="146" y="34"/>
      <point x="129" y="32"/>
      <point x="60" y="24" type="curve" smooth="yes"/>
      <point x="40" y="22" type="line"/>
    </contour>
    <contour>
      <point x="359" y="0" type="move" name="bottom"/>
    </contour>
    <contour>
      <point x="212" y="375" type="move" name="center"/>
    </contour>
    <contour>
      <point x="188" y="710" type="move" name="top"/>
    </contour>
    <contour>
      <point x="465" y="408" type="move" name="topright"/>
    </contour>
  </outline>
</glyph>
<glyph name="N" format="1">
  <advance width="781"/>
  <unicode hex="004E"/>
  <outline>
    <contour>
      <point x="39" y="-4" type="line"/>
      <point x="163" y="0" type="line"/>
      <point x="291" y="-4" type="line"/>
      <point x="291" y="21" type="line"/>
      <point x="271" y="23" type="line" smooth="yes"/>
      <point x="202" y="30"/>
      <point x="185" y="33"/>
      <point x="185" y="133" type="curve" smooth="yes"/>
      <point x="185" y="648" type="line"/>
      <point x="168" y="626" type="line"/>
      <point x="255" y="527"/>
      <point x="556" y="139"/>
      <point x="625" y="0" type="curve"/>
      <point x="655" y="0" type="line"/>
      <point x="655" y="577" type="line" smooth="yes"/>
      <point x="655" y="676"/>
      <point x="672" y="678"/>
      <point x="741" y="686" type="curve" smooth="yes"/>
      <point x="761" y="688" type="line"/>
      <point x="761" y="713" type="line"/>
      <point x="639" y="710" type="line"/>
      <point x="509" y="713" type="line"/>
      <point x="509" y="688" type="line"/>
      <point x="529" y="686" type="line" smooth="yes"/>
      <point x="598" y="679"/>
      <point x="615" y="676"/>
      <point x="615" y="577" type="curve" smooth="yes"/>
      <point x="615" y="156" type="line"/>
      <point x="629" y="181" type="line"/>
      <point x="589" y="232"/>
      <point x="308" y="601"/>
      <point x="229" y="710" type="curve"/>
      <point x="35" y="713" type="line"/>
      <point x="35" y="687" type="line"/>
      <point x="65" y="687" type="line" smooth="yes"/>
      <point x="111" y="687"/>
      <point x="133" y="664"/>
      <point x="145" y="649" type="curve"/>
      <point x="145" y="133" type="line" smooth="yes"/>
      <point x="145" y="33"/>
      <point x="128" y="30"/>
      <point x="59" y="23" type="curve" smooth="yes"/>
      <point x="39" y="21" type="line"/>
    </contour>
    <contour>
      <point x="436" y="0" type="move" name="bottom"/>
    </contour>
    <contour>
      <point x="402" y="710" type="move" name="top"/>
    </contour>
  </outline>
</glyph>
<glyph name="O" format="1">
  <advance width="818"/>
  <unicode hex="004F"/>
  <outline>
    <contour>
      <point x="409" y="-11" type="curve" smooth="yes"/>
      <point x="609" y="-11"/>
      <point x="756" y="141"/>
      <point x="756" y="357" type="curve" smooth="yes"/>
      <point x="756" y="572"/>
      <point x="609" y="724"/>
      <point x="409" y="724" type="curve" smooth="yes"/>
      <point x="209" y="724"/>
      <point x="62" y="572"/>
      <point x="62" y="357" type="curve" smooth="yes"/>
      <point x="62" y="141"/>
      <point x="209" y="-11"/>
    </contour>
    <contour>
      <point x="409" y="19" type="curve" smooth="yes"/>
      <point x="236" y="19"/>
      <point x="164" y="147"/>
      <point x="164" y="357" type="curve" smooth="yes"/>
      <point x="164" y="566"/>
      <point x="236" y="694"/>
      <point x="409" y="694" type="curve" smooth="yes"/>
      <point x="582" y="694"/>
      <point x="654" y="566"/>
      <point x="654" y="357" type="curve" smooth="yes"/>
      <point x="654" y="147"/>
      <point x="582" y="19"/>
    </contour>
    <contour>
      <point x="410" y="0" type="move" name="bottom"/>
    </contour>
    <contour>
      <point x="410" y="355" type="move" name="center"/>
    </contour>
    <contour>
      <point x="484" y="0" type="move" name="ogonek"/>
    </contour>
    <contour>
      <point x="409" y="710" type="move" name="top"/>
    </contour>
    <contour>
      <point x="22" y="710" type="move" name="topleft"/>
    </contour>
  </outline>
</glyph>
<glyph name="P" format="1">
  <advance width="635"/>
  <unicode hex="0050"/>
  <outline>
    <contour>
      <point x="40" y="-3" type="line"/>
      <point x="185" y="0" type="line"/>
      <point x="354" y="-3" type="line"/>
      <point x="354" y="22" type="line"/>
      <point x="332" y="24" type="line" smooth="yes"/>
      <point x="251" y="32"/>
      <point x="231" y="34"/>
      <point x="231" y="133" type="curve" smooth="yes"/>
      <point x="231" y="682" type="line"/>
      <point x="363" y="682" type="line" smooth="yes"/>
      <point x="425" y="682"/>
      <point x="515" y="666"/>
      <point x="515" y="514" type="curve" smooth="yes"/>
      <point x="515" y="408"/>
      <point x="486" y="345"/>
      <point x="348" y="345" type="curve" smooth="yes"/>
      <point x="225" y="345" type="line"/>
      <point x="225" y="315" type="line"/>
      <point x="348" y="315" type="line" smooth="yes"/>
      <point x="519" y="315"/>
      <point x="610" y="395"/>
      <point x="610" y="514" type="curve" smooth="yes"/>
      <point x="610" y="680"/>
      <point x="485" y="710"/>
      <point x="324" y="710" type="curve" smooth="yes"/>
      <point x="188" y="710" type="line"/>
      <point x="40" y="713" type="line"/>
      <point x="40" y="688" type="line"/>
      <point x="60" y="686" type="line" smooth="yes"/>
      <point x="129" y="678"/>
      <point x="146" y="676"/>
      <point x="146" y="577" type="curve" smooth="yes"/>
      <point x="146" y="133" type="line" smooth="yes"/>
      <point x="146" y="34"/>
      <point x="129" y="32"/>
      <point x="60" y="24" type="curve" smooth="yes"/>
      <point x="40" y="22" type="line"/>
    </contour>
    <contour>
      <point x="187" y="0" type="move" name="bottom"/>
    </contour>
    <contour>
      <point x="297" y="710" type="move" name="top"/>
    </contour>
  </outline>
</glyph>
<glyph name="R" format="1">
  <advance width="695"/>
  <unicode hex="0052"/>
  <outline>
    <contour>
      <point x="607" y="-11" type="curve" smooth="yes"/>
      <point x="644" y="-11"/>
      <point x="684" y="1"/>
      <point x="705" y="12" type="curve"/>
      <point x="698" y="37" type="line"/>
      <point x="687" y="31"/>
      <point x="673" y="25"/>
      <point x="658" y="25" type="curve" smooth="yes"/>
      <point x="624" y="25"/>
      <point x="589" y="56"/>
      <point x="572" y="169" type="curve" smooth="yes"/>
      <point x="553" y="293"/>
      <point x="482" y="354"/>
      <point x="374" y="354" type="curve"/>
      <point x="373" y="351" type="line"/>
      <point x="482" y="362"/>
      <point x="583" y="408"/>
      <point x="583" y="535" type="curve" smooth="yes"/>
      <point x="583" y="670"/>
      <point x="463" y="710"/>
      <point x="328" y="710" type="curve" smooth="yes"/>
      <point x="188" y="710" type="line"/>
      <point x="40" y="713" type="line"/>
      <point x="40" y="688" type="line"/>
      <point x="60" y="686" type="line" smooth="yes"/>
      <point x="129" y="678"/>
      <point x="146" y="676"/>
      <point x="146" y="577" type="curve" smooth="yes"/>
      <point x="146" y="133" type="line" smooth="yes"/>
      <point x="146" y="34"/>
      <point x="129" y="32"/>
      <point x="60" y="24" type="curve" smooth="yes"/>
      <point x="40" y="22" type="line"/>
      <point x="40" y="-3" type="line"/>
      <point x="188" y="0" type="line"/>
      <point x="189" y="0" type="line"/>
      <point x="337" y="-3" type="line"/>
      <point x="337" y="22" type="line"/>
      <point x="317" y="24" type="line" smooth="yes"/>
      <point x="248" y="32"/>
      <point x="231" y="34"/>
      <point x="231" y="133" type="curve" smooth="yes"/>
      <point x="231" y="684" type="line"/>
      <point x="330" y="684" type="line" smooth="yes"/>
      <point x="447" y="684"/>
      <point x="488" y="627"/>
      <point x="488" y="529" type="curve" smooth="yes"/>
      <point x="488" y="425"/>
      <point x="443" y="373"/>
      <point x="315" y="373" type="curve" smooth="yes"/>
      <point x="225" y="373" type="line"/>
      <point x="225" y="346" type="line"/>
      <point x="274" y="346" type="line" smooth="yes"/>
      <point x="448" y="346"/>
      <point x="477" y="226"/>
      <point x="491" y="119" type="curve" smooth="yes"/>
      <point x="501" y="45"/>
      <point x="533" y="-11"/>
    </contour>
    <contour>
      <point x="401" y="0" type="move" name="bottom"/>
    </contour>
    <contour>
      <point x="313" y="710" type="move" name="top"/>
    </contour>
  </outline>
</glyph>
<glyph name="T" format="1">
  <advance width="744"/>
  <unicode hex="0054"/>
  <outline>
    <contour>
      <point x="206" y="-3" type="line"/>
      <point x="374" y="0" type="line"/>
      <point x="537" y="-3" type="line"/>
      <point x="537" y="22" type="line"/>
      <point x="515" y="24" type="line" smooth="yes"/>
      <point x="434" y="32"/>
      <point x="414" y="34"/>
      <point x="414" y="133" type="curve" smooth="yes"/>
      <point x="414" y="701" type="line"/>
      <point x="329" y="701" type="line"/>
      <point x="329" y="133" type="line" smooth="yes"/>
      <point x="329" y="34"/>
      <point x="309" y="32"/>
      <point x="228" y="24" type="curve" smooth="yes"/>
      <point x="206" y="22" type="line"/>
    </contour>
    <contour>
      <point x="719" y="504" type="curve"/>
      <point x="741" y="510" type="line"/>
      <point x="716" y="633" type="line"/>
      <point x="705" y="713" type="line"/>
      <point x="419" y="710" type="line"/>
      <point x="324" y="710" type="line"/>
      <point x="39" y="713" type="line"/>
      <point x="28" y="633" type="line"/>
      <point x="3" y="510" type="line"/>
      <point x="24" y="505" type="line"/>
      <point x="76" y="635"/>
      <point x="96" y="683"/>
      <point x="188" y="683" type="curve" smooth="yes"/>
      <point x="562" y="683" type="line" smooth="yes"/>
      <point x="648" y="683"/>
      <point x="673" y="620"/>
    </contour>
    <contour>
      <point x="374" y="0" type="move" name="bottom"/>
    </contour>
    <contour>
      <point x="371" y="355" type="move" name="center"/>
    </contour>
    <contour>
      <point x="377" y="710" type="move" name="top"/>
    </contour>
  </outline>
</glyph>
<glyph name="U" format="1">
  <advance width="750"/>
  <unicode hex="0055"/>
  <outline>
    <contour>
      <point x="394" y="-11" type="curve" smooth="yes"/>
      <point x="558" y="-11"/>
      <point x="639" y="74"/>
      <point x="639" y="229" type="curve" smooth="yes"/>
      <point x="639" y="577" type="line" smooth="yes"/>
      <point x="639" y="676"/>
      <point x="656" y="678"/>
      <point x="725" y="686" type="curve" smooth="yes"/>
      <point x="745" y="688" type="line"/>
      <point x="745" y="713" type="line"/>
      <point x="646" y="711" type="line"/>
      <point x="498" y="713" type="line"/>
      <point x="498" y="688" type="line"/>
      <point x="518" y="686" type="line" smooth="yes"/>
      <point x="587" y="678"/>
      <point x="604" y="676"/>
      <point x="604" y="577" type="curve" smooth="yes"/>
      <point x="604" y="229" type="line" smooth="yes"/>
      <point x="604" y="101"/>
      <point x="547" y="22"/>
      <point x="413" y="22" type="curve" smooth="yes"/>
      <point x="297" y="22"/>
      <point x="216" y="88"/>
      <point x="216" y="223" type="curve" smooth="yes"/>
      <point x="216" y="577" type="line" smooth="yes"/>
      <point x="216" y="676"/>
      <point x="233" y="678"/>
      <point x="302" y="686" type="curve" smooth="yes"/>
      <point x="322" y="688" type="line"/>
      <point x="322" y="713" type="line"/>
      <point x="174" y="710" type="line"/>
      <point x="173" y="710" type="line"/>
      <point x="25" y="713" type="line"/>
      <point x="25" y="688" type="line"/>
      <point x="45" y="686" type="line" smooth="yes"/>
      <point x="114" y="678"/>
      <point x="131" y="676"/>
      <point x="131" y="577" type="curve" smooth="yes"/>
      <point x="131" y="223" type="line" smooth="yes"/>
      <point x="131" y="57"/>
      <point x="227" y="-11"/>
    </contour>
    <contour>
      <point x="403" y="0" type="move" name="bottom"/>
    </contour>
    <contour>
      <point x="519" y="0" type="move" name="ogonek"/>
    </contour>
    <contour>
      <point x="409" y="710" type="move" name="top"/>
    </contour>
    <contour>
      <point x="746" y="710" type="move" name="topright"/>
    </contour>
  </outline>
</glyph>
<glyph name="V" format="1">
  <advance width="733"/>
  <unicode hex="0056"/>
  <outline>
    <contour>
      <point x="356" y="-10" type="line"/>
      <point x="388" y="-10" type="line"/>
      <point x="628" y="587" type="line" smooth="yes"/>
      <point x="651" y="644"/>
      <point x="674" y="673"/>
      <point x="725" y="684" type="curve" smooth="yes"/>
      <point x="748" y="689" type="line"/>
      <point x="748" y="713" type="line"/>
      <point x="648" y="710" type="line"/>
      <point x="508" y="713" type="line"/>
      <point x="508" y="688" type="line"/>
      <point x="543" y="684" type="line" smooth="yes"/>
      <point x="580" y="680"/>
      <point x="603" y="666"/>
      <point x="603" y="634" type="curve" smooth="yes"/>
      <point x="603" y="622"/>
      <point x="600" y="607"/>
      <point x="592" y="588" type="curve" smooth="yes"/>
      <point x="385" y="75" type="line"/>
      <point x="412" y="75" type="line"/>
      <point x="196" y="587" type="line" smooth="yes"/>
      <point x="189" y="604"/>
      <point x="185" y="619"/>
      <point x="185" y="632" type="curve" smooth="yes"/>
      <point x="185" y="665"/>
      <point x="211" y="681"/>
      <point x="253" y="685" type="curve" smooth="yes"/>
      <point x="283" y="688" type="line"/>
      <point x="283" y="713" type="line"/>
      <point x="134" y="710" type="line"/>
      <point x="-15" y="713" type="line"/>
      <point x="-15" y="688" type="line"/>
      <point x="5" y="684" type="line" smooth="yes"/>
      <point x="54" y="674"/>
      <point x="77" y="648"/>
      <point x="94" y="607" type="curve" smooth="yes"/>
    </contour>
    <contour>
      <point x="373" y="0" type="move" name="bottom"/>
    </contour>
    <contour>
      <point x="409" y="710" type="move" name="top"/>
    </contour>
  </outline>
</glyph>
<glyph name="W" format="1">
  <advance width="1039"/>
  <unicode hex="0057"/>
  <outline>
    <contour>
      <point x="295" y="-9" type="line"/>
      <point x="327" y="-9" type="line"/>
      <point x="532" y="547" type="line"/>
      <point x="510" y="546" type="line"/>
      <point x="718" y="-9" type="line"/>
      <point x="750" y="-9" type="line"/>
      <point x="942" y="621" type="line" smooth="yes"/>
      <point x="953" y="658"/>
      <point x="986" y="676"/>
      <point x="1030" y="683" type="curve" smooth="yes"/>
      <point x="1054" y="687" type="line"/>
      <point x="1054" y="713" type="line"/>
      <point x="948" y="710" type="line"/>
      <point x="816" y="713" type="line"/>
      <point x="816" y="687" type="line"/>
      <point x="849" y="683" type="line" smooth="yes"/>
      <point x="887" y="678"/>
      <point x="908" y="668"/>
      <point x="908" y="639" type="curve" smooth="yes"/>
      <point x="908" y="631"/>
      <point x="906" y="621"/>
      <point x="903" y="610" type="curve" smooth="yes"/>
      <point x="746" y="95" type="line"/>
      <point x="769" y="95" type="line"/>
      <point x="589" y="582" type="line" smooth="yes"/>
      <point x="582" y="600"/>
      <point x="579" y="616"/>
      <point x="579" y="629" type="curve" smooth="yes"/>
      <point x="579" y="662"/>
      <point x="601" y="681"/>
      <point x="644" y="684" type="curve" smooth="yes"/>
      <point x="682" y="687" type="line"/>
      <point x="680" y="713" type="line"/>
      <point x="643" y="711" type="line" smooth="yes"/>
      <point x="609" y="709"/>
      <point x="574" y="704"/>
      <point x="549" y="670" type="curve"/>
      <point x="537" y="690"/>
      <point x="510" y="703"/>
      <point x="464" y="708" type="curve" smooth="yes"/>
      <point x="422" y="713" type="line"/>
      <point x="418" y="687" type="line"/>
      <point x="458" y="681" type="line" smooth="yes"/>
      <point x="497" y="675"/>
      <point x="521" y="660"/>
      <point x="521" y="629" type="curve" smooth="yes"/>
      <point x="521" y="621"/>
      <point x="519" y="611"/>
      <point x="515" y="599" type="curve" smooth="yes"/>
      <point x="328" y="91" type="line"/>
      <point x="352" y="91" type="line"/>
      <point x="188" y="598" type="line" smooth="yes"/>
      <point x="183" y="612"/>
      <point x="181" y="623"/>
      <point x="181" y="633" type="curve" smooth="yes"/>
      <point x="181" y="674"/>
      <point x="219" y="681"/>
      <point x="255" y="685" type="curve" smooth="yes"/>
      <point x="283" y="688" type="line"/>
      <point x="283" y="713" type="line"/>
      <point x="135" y="710" type="line"/>
      <point x="-15" y="713" type="line"/>
      <point x="-15" y="688" type="line"/>
      <point x="8" y="683" type="line" smooth="yes"/>
      <point x="51" y="674"/>
      <point x="81" y="651"/>
      <point x="99" y="594" type="curve" smooth="yes"/>
    </contour>
    <contour>
      <point x="522" y="0" type="move" name="bottom"/>
    </contour>
    <contour>
      <point x="544" y="710" type="move" name="top"/>
    </contour>
  </outline>
</glyph>
<glyph name="X" format="1">
  <advance width="707"/>
  <unicode hex="0058"/>
  <outline>
    <contour>
      <point x="397" y="-3" type="line"/>
      <point x="568" y="0" type="line"/>
      <point x="717" y="-3" type="line"/>
      <point x="717" y="22" type="line"/>
      <point x="687" y="27" type="line" smooth="yes"/>
      <point x="645" y="34"/>
      <point x="608" y="56"/>
      <point x="566" y="119" type="curve" smooth="yes"/>
      <point x="260" y="577" type="line" smooth="yes"/>
      <point x="240" y="607"/>
      <point x="230" y="630"/>
      <point x="230" y="647" type="curve" smooth="yes"/>
      <point x="230" y="668"/>
      <point x="247" y="679"/>
      <point x="282" y="683" type="curve" smooth="yes"/>
      <point x="324" y="688" type="line"/>
      <point x="324" y="713" type="line"/>
      <point x="169" y="710" type="line"/>
      <point x="4" y="713" type="line"/>
      <point x="4" y="688" type="line"/>
      <point x="24" y="684" type="line" smooth="yes"/>
      <point x="75" y="674"/>
      <point x="104" y="664"/>
      <point x="150" y="594" type="curve" smooth="yes"/>
      <point x="459" y="129" type="line" smooth="yes"/>
      <point x="476" y="103"/>
      <point x="485" y="81"/>
      <point x="485" y="64" type="curve" smooth="yes"/>
      <point x="485" y="43"/>
      <point x="470" y="29"/>
      <point x="438" y="26" type="curve" smooth="yes"/>
      <point x="397" y="22" type="line"/>
    </contour>
    <contour>
      <point x="-10" y="-3" type="line"/>
      <point x="114" y="0" type="line"/>
      <point x="238" y="-3" type="line"/>
      <point x="238" y="22" type="line"/>
      <point x="200" y="26" type="line" smooth="yes"/>
      <point x="178" y="28"/>
      <point x="166" y="42"/>
      <point x="166" y="62" type="curve" smooth="yes"/>
      <point x="166" y="75"/>
      <point x="170" y="92"/>
      <point x="182" y="109" type="curve" smooth="yes"/>
      <point x="339" y="328" type="line"/>
      <point x="318" y="354" type="line"/>
      <point x="152" y="126" type="line" smooth="yes"/>
      <point x="90" y="40"/>
      <point x="50" y="31"/>
      <point x="11" y="25" type="curve" smooth="yes"/>
      <point x="-10" y="22" type="line"/>
    </contour>
    <contour>
      <point x="388" y="375" type="line"/>
      <point x="539" y="583" type="line" smooth="yes"/>
      <point x="592" y="657"/>
      <point x="639" y="682"/>
      <point x="677" y="686" type="curve" smooth="yes"/>
      <point x="698" y="688" type="line"/>
      <point x="698" y="713" type="line"/>
      <point x="582" y="710" type="line"/>
      <point x="450" y="713" type="line"/>
      <point x="450" y="688" type="line"/>
      <point x="483" y="684" type="line" smooth="yes"/>
      <point x="514" y="680"/>
      <point x="527" y="666"/>
      <point x="527" y="646" type="curve" smooth="yes"/>
      <point x="527" y="633"/>
      <point x="521" y="617"/>
      <point x="509" y="600" type="curve" smooth="yes"/>
      <point x="367" y="402" type="line"/>
    </contour>
    <contour>
      <point x="327" y="0" type="move" name="bottom"/>
    </contour>
    <contour>
      <point x="390" y="710" type="move" name="top"/>
    </contour>
  </outline>
</glyph>
<glyph name="Y" format="1">
  <advance width="662"/>
  <unicode hex="0059"/>
  <outline>
    <contour>
      <point x="188" y="-3" type="line"/>
      <point x="336" y="0" type="line"/>
      <point x="337" y="0" type="line"/>
      <point x="485" y="-3" type="line"/>
      <point x="485" y="22" type="line"/>
      <point x="465" y="24" type="line" smooth="yes"/>
      <point x="396" y="32"/>
      <point x="379" y="34"/>
      <point x="379" y="133" type="curve" smooth="yes"/>
      <point x="379" y="288" type="line"/>
      <point x="561" y="606" type="line" smooth="yes"/>
      <point x="589" y="655"/>
      <point x="612" y="675"/>
      <point x="655" y="683" type="curve" smooth="yes"/>
      <point x="682" y="688" type="line"/>
      <point x="682" y="713" type="line"/>
      <point x="576" y="708" type="line"/>
      <point x="444" y="713" type="line"/>
      <point x="444" y="688" type="line"/>
      <point x="473" y="685" type="line" smooth="yes"/>
      <point x="506" y="682"/>
      <point x="530" y="672"/>
      <point x="530" y="644" type="curve" smooth="yes"/>
      <point x="530" y="629"/>
      <point x="523" y="609"/>
      <point x="508" y="582" type="curve" smooth="yes"/>
      <point x="345" y="297" type="line"/>
      <point x="381" y="297" type="line"/>
      <point x="217" y="582" type="line" smooth="yes"/>
      <point x="202" y="608"/>
      <point x="195" y="628"/>
      <point x="195" y="643" type="curve" smooth="yes"/>
      <point x="195" y="670"/>
      <point x="217" y="682"/>
      <point x="250" y="685" type="curve" smooth="yes"/>
      <point x="282" y="688" type="line"/>
      <point x="282" y="713" type="line"/>
      <point x="132" y="710" type="line"/>
      <point x="-20" y="713" type="line"/>
      <point x="-20" y="688" type="line"/>
      <point x="9" y="682" type="line" smooth="yes"/>
      <point x="63" y="671"/>
      <point x="88" y="647"/>
      <point x="119" y="593" type="curve" smooth="yes"/>
      <point x="294" y="287" type="line"/>
      <point x="294" y="133" type="line" smooth="yes"/>
      <point x="294" y="34"/>
      <point x="277" y="32"/>
      <point x="208" y="24" type="curve" smooth="yes"/>
      <point x="188" y="22" type="line"/>
    </contour>
    <contour>
      <point x="325" y="0" type="move" name="bottom"/>
    </contour>
    <contour>
      <point x="375" y="710" type="move" name="top"/>
    </contour>
    <contour>
      <point x="-55" y="710" type="move" name="topleft"/>
    </contour>
  </outline>
</glyph>
<glyph name="Z" format="1">
  <advance width="639"/>
  <unicode hex="005A"/>
  <outline>
    <contour>
      <point x="589" y="-3" type="line"/>
      <point x="589" y="100" type="line"/>
      <point x="599" y="267" type="line"/>
      <point x="575" y="267" type="line"/>
      <point x="554" y="115"/>
      <point x="529" y="33"/>
      <point x="378" y="32" type="curve" smooth="yes"/>
      <point x="103" y="30" type="line"/>
      <point x="116" y="4" type="line"/>
      <point x="585" y="679" type="line"/>
      <point x="585" y="713" type="line"/>
      <point x="361" y="710" type="line"/>
      <point x="66" y="712" type="line"/>
      <point x="64" y="659" type="line"/>
      <point x="53" y="526" type="line"/>
      <point x="77" y="526" type="line"/>
      <point x="93" y="640"/>
      <point x="107" y="676"/>
      <point x="289" y="678" type="curve" smooth="yes"/>
      <point x="516" y="680" type="line"/>
      <point x="503" y="706" type="line"/>
      <point x="30" y="26" type="line"/>
      <point x="30" y="0" type="line"/>
      <point x="383" y="0" type="line"/>
    </contour>
    <contour>
      <point x="309" y="0" type="move" name="bottom"/>
    </contour>
    <contour>
      <point x="309" y="710" type="move" name="top"/>
    </contour>
  </outline>
</glyph>
<glyph name="bracketleft" format="1">
  <advance width="294"/>
  <unicode hex="005B"/>
  <outline>
    <contour>
      <point x="60" y="-142" type="line"/>
      <point x="244" y="-142" type="line"/>
      <point x="244" y="-101" type="line"/>
      <point x="105" y="-101" type="line"/>
      <point x="105" y="743" type="line"/>
      <point x="244" y="743" type="line"/>
      <point x="244" y="784" type="line"/>
      <point x="60" y="784" type="line"/>
    </contour>
  </outline>
</glyph>
<glyph name="a" format="1">
  <advance width="490"/>
  <unicode hex="0061"/>
  <outline>
    <contour>
      <point x="405" y="-11" type="curve" smooth="yes"/>
      <point x="453" y="-11"/>
      <point x="479" y="13"/>
      <point x="490" y="52" type="curve"/>
      <point x="472" y="59" type="line"/>
      <point x="466" y="41"/>
      <point x="451" y="24"/>
      <point x="431" y="24" type="curve" smooth="yes"/>
      <point x="400" y="24"/>
      <point x="395" y="57"/>
      <point x="395" y="116" type="curve" smooth="yes"/>
      <point x="395" y="263" type="line" smooth="yes"/>
      <point x="395" y="408"/>
      <point x="359" y="454"/>
      <point x="243" y="454" type="curve" smooth="yes"/>
      <point x="166" y="454"/>
      <point x="69" y="424"/>
      <point x="69" y="353" type="curve" smooth="yes"/>
      <point x="69" y="328"/>
      <point x="87" y="310"/>
      <point x="110" y="310" type="curve" smooth="yes"/>
      <point x="136" y="310"/>
      <point x="157" y="325"/>
      <point x="157" y="350" type="curve" smooth="yes"/>
      <point x="157" y="360"/>
      <point x="155" y="369"/>
      <point x="152" y="377" type="curve"/>
      <point x="150" y="383"/>
      <point x="148" y="390"/>
      <point x="148" y="396" type="curve" smooth="yes"/>
      <point x="148" y="421"/>
      <point x="202" y="429"/>
      <point x="238" y="429" type="curve" smooth="yes"/>
      <point x="321" y="429"/>
      <point x="325" y="368"/>
      <point x="325" y="306" type="curve" smooth="yes"/>
      <point x="325" y="104" type="line" smooth="yes"/>
      <point x="325" y="36"/>
      <point x="339" y="-11"/>
    </contour>
    <contour>
      <point x="169" y="-11" type="curve" smooth="yes"/>
      <point x="233" y="-11"/>
      <point x="303" y="31"/>
      <point x="328" y="89" type="curve"/>
      <point x="328" y="130" type="line"/>
      <point x="313" y="78"/>
      <point x="249" y="24"/>
      <point x="199" y="24" type="curve" smooth="yes"/>
      <point x="159" y="24"/>
      <point x="128" y="49"/>
      <point x="128" y="87" type="curve" smooth="yes"/>
      <point x="128" y="170"/>
      <point x="241" y="233"/>
      <point x="330" y="270" type="curve"/>
      <point x="329" y="289" type="line"/>
      <point x="243" y="257"/>
      <point x="50" y="180"/>
      <point x="50" y="83" type="curve" smooth="yes"/>
      <point x="50" y="18"/>
      <point x="100" y="-11"/>
    </contour>
    <contour>
      <point x="169" y="0" type="move" name="bottom"/>
    </contour>
    <contour>
      <point x="459" y="0" type="move" name="ogonek"/>
    </contour>
    <contour>
      <point x="241" y="433" type="move" name="top"/>
    </contour>
  </outline>
</glyph>
<glyph name="b" format="1">
  <advance width="537"/>
  <unicode hex="0062"/>
  <outline>
    <contour>
      <point x="285" y="-11" type="curve" smooth="yes"/>
      <point x="404" y="-11"/>
      <point x="492" y="91"/>
      <point x="492" y="220" type="curve" smooth="yes"/>
      <point x="492" y="351"/>
      <point x="404" y="454"/>
      <point x="289" y="454" type="curve" smooth="yes"/>
      <point x="221" y="454"/>
      <point x="167" y="418"/>
      <point x="130" y="367" type="curve"/>
      <point x="144" y="350" type="line"/>
      <point x="175" y="390"/>
      <point x="218" y="424"/>
      <point x="279" y="424" type="curve" smooth="yes"/>
      <point x="368" y="424"/>
      <point x="412" y="336"/>
      <point x="412" y="220" type="curve" smooth="yes"/>
      <point x="412" y="106"/>
      <point x="368" y="19"/>
      <point x="276" y="19" type="curve" smooth="yes"/>
      <point x="214" y="19"/>
      <point x="160" y="62"/>
      <point x="143" y="99" type="curve"/>
      <point x="134" y="65" type="line"/>
      <point x="161" y="28"/>
      <point x="218" y="-11"/>
    </contour>
    <contour>
      <point x="80" y="-11" type="line"/>
      <point x="96" y="-11" type="line"/>
      <point x="157" y="57" type="line"/>
      <point x="150" y="80" type="line"/>
      <point x="150" y="644" type="line"/>
      <point x="80" y="644" type="line"/>
    </contour>
    <component base="_part.bdc" xOffset="-38" yOffset="277"/>
    <contour>
      <point x="256" y="0" type="move" name="bottom"/>
    </contour>
    <contour>
      <point x="281" y="433" type="move" name="top"/>
    </contour>
  </outline>
</glyph>
<glyph name="c" format="1">
  <advance width="475"/>
  <unicode hex="0063"/>
  <outline>
    <contour>
      <point x="266" y="-11" type="curve" smooth="yes"/>
      <point x="342" y="-11"/>
      <point x="415" y="23"/>
      <point x="440" y="115" type="curve"/>
      <point x="416" y="123" type="line"/>
      <point x="393" y="47"/>
      <point x="337" y="19"/>
      <point x="281" y="19" type="curve" smooth="yes"/>
      <point x="179" y="19"/>
      <point x="125" y="110"/>
      <point x="125" y="216" type="curve" smooth="yes"/>
      <point x="125" y="344"/>
      <point x="186" y="429"/>
      <point x="279" y="429" type="curve" smooth="yes"/>
      <point x="299" y="429"/>
      <point x="335" y="424"/>
      <point x="335" y="406" type="curve" smooth="yes"/>
      <point x="335" y="398"/>
      <point x="333" y="391"/>
      <point x="331" y="384" type="curve" smooth="yes"/>
      <point x="329" y="377"/>
      <point x="327" y="369"/>
      <point x="327" y="359" type="curve" smooth="yes"/>
      <point x="327" y="339"/>
      <point x="344" y="314"/>
      <point x="379" y="314" type="curve" smooth="yes"/>
      <point x="405" y="314"/>
      <point x="427" y="335"/>
      <point x="427" y="365" type="curve" smooth="yes"/>
      <point x="427" y="423"/>
      <point x="344" y="454"/>
      <point x="280" y="454" type="curve" smooth="yes"/>
      <point x="146" y="454"/>
      <point x="45" y="351"/>
      <point x="45" y="211" type="curve" smooth="yes"/>
      <point x="45" y="83"/>
      <point x="131" y="-11"/>
    </contour>
    <contour>
      <point x="260" y="0" type="move" name="bottom"/>
    </contour>
    <contour>
      <point x="262" y="433" type="move" name="top"/>
    </contour>
  </outline>
</glyph>
<glyph name="d" format="1">
  <advance width="545"/>
  <unicode hex="0064"/>
  <outline>
    <contour>
      <point x="248" y="-11" type="curve" smooth="yes"/>
      <point x="316" y="-11"/>
      <point x="370" y="25"/>
      <point x="407" y="76" type="curve"/>
      <point x="393" y="93" type="line"/>
      <point x="362" y="53"/>
      <point x="319" y="19"/>
      <point x="258" y="19" type="curve" smooth="yes"/>
      <point x="169" y="19"/>
      <point x="125" y="107"/>
      <point x="125" y="223" type="curve" smooth="yes"/>
      <point x="125" y="337"/>
      <point x="169" y="424"/>
      <point x="261" y="424" type="curve" smooth="yes"/>
      <point x="323" y="424"/>
      <point x="377" y="381"/>
      <point x="394" y="344" type="curve"/>
      <point x="403" y="378" type="line"/>
      <point x="376" y="415"/>
      <point x="319" y="454"/>
      <point x="252" y="454" type="curve" smooth="yes"/>
      <point x="133" y="454"/>
      <point x="45" y="352"/>
      <point x="45" y="223" type="curve" smooth="yes"/>
      <point x="45" y="92"/>
      <point x="133" y="-11"/>
    </contour>
    <contour>
      <point x="409" y="-8" type="line"/>
      <point x="444" y="-1"/>
      <point x="469" y="0"/>
      <point x="499" y="0" type="curve" smooth="yes"/>
      <point x="540" y="0" type="line"/>
      <point x="540" y="23" type="line"/>
      <point x="486" y="23"/>
      <point x="457" y="34"/>
      <point x="457" y="109" type="curve" smooth="yes"/>
      <point x="457" y="634" type="line"/>
      <point x="387" y="634" type="line"/>
      <point x="387" y="83" type="line"/>
      <point x="395" y="70" type="line"/>
    </contour>
    <component base="_part.bdc" xOffset="269" yOffset="277"/>
    <contour>
      <point x="283" y="0" type="move" name="bottom"/>
    </contour>
    <contour>
      <point x="385" y="567" type="move" name="center"/>
    </contour>
    <contour>
      <point x="283" y="433" type="move" name="top"/>
    </contour>
    <contour>
      <point x="545" y="433" type="move" name="topright"/>
    </contour>
  </outline>
</glyph>
<glyph name="e" format="1">
  <advance width="482"/>
  <unicode hex="0065"/>
  <outline>
    <contour>
      <point x="272" y="-11" type="curve" smooth="yes"/>
      <point x="360" y="-11"/>
      <point x="419" y="31"/>
      <point x="447" y="115" type="curve"/>
      <point x="423" y="124" type="line"/>
      <point x="397" y="54"/>
      <point x="345" y="19"/>
      <point x="286" y="19" type="curve" smooth="yes"/>
      <point x="182" y="19"/>
      <point x="130" y="110"/>
      <point x="130" y="217" type="curve" smooth="yes"/>
      <point x="130" y="335"/>
      <point x="176" y="429"/>
      <point x="272" y="429" type="curve" smooth="yes"/>
      <point x="321" y="429"/>
      <point x="369" y="393"/>
      <point x="369" y="335" type="curve" smooth="yes"/>
      <point x="369" y="305"/>
      <point x="350" y="268"/>
      <point x="260" y="268" type="curve" smooth="yes"/>
      <point x="128" y="268" type="line"/>
      <point x="126" y="245" type="line"/>
      <point x="431" y="245" type="line"/>
      <point x="435" y="255"/>
      <point x="436" y="266"/>
      <point x="436" y="276" type="curve" smooth="yes"/>
      <point x="436" y="382"/>
      <point x="374" y="454"/>
      <point x="272" y="454" type="curve" smooth="yes"/>
      <point x="150" y="454"/>
      <point x="50" y="351"/>
      <point x="50" y="212" type="curve" smooth="yes"/>
      <point x="50" y="81"/>
      <point x="137" y="-11"/>
    </contour>
    <contour>
      <point x="274" y="0" type="move" name="bottom"/>
    </contour>
    <contour>
      <point x="377" y="0" type="move" name="ogonek"/>
    </contour>
    <contour>
      <point x="271" y="433" type="move" name="top"/>
    </contour>
  </outline>
</glyph>
<glyph name="g" format="1">
  <advance width="554"/>
  <unicode hex="0067"/>
  <outline>
    <contour>
      <point x="252" y="-294" type="curve" smooth="yes"/>
      <point x="369" y="-294"/>
      <point x="488" y="-230"/>
      <point x="488" y="-116" type="curve" smooth="yes"/>
      <point x="488" y="7"/>
      <point x="387" y="31"/>
      <point x="252" y="31" type="curve" smooth="yes"/>
      <point x="218" y="31" type="line" smooth="yes"/>
      <point x="171" y="31"/>
      <point x="112" y="40"/>
      <point x="112" y="86" type="curve" smooth="yes"/>
      <point x="112" y="118"/>
      <point x="156" y="137"/>
      <point x="196" y="144" type="curve"/>
      <point x="165" y="156" type="line"/>
      <point x="109" y="143"/>
      <point x="52" y="101"/>
      <point x="52" y="46" type="curve" smooth="yes"/>
      <point x="52" y="-28"/>
      <point x="134" y="-44"/>
      <point x="253" y="-44" type="curve" smooth="yes"/>
      <point x="387" y="-44"/>
      <point x="442" y="-72"/>
      <point x="442" y="-129" type="curve" smooth="yes"/>
      <point x="442" y="-223"/>
      <point x="348" y="-269"/>
      <point x="252" y="-269" type="curve" smooth="yes"/>
      <point x="162" y="-269"/>
      <point x="85" y="-245"/>
      <point x="85" y="-170" type="curve" smooth="yes"/>
      <point x="85" y="-155"/>
      <point x="91" y="-142"/>
      <point x="97" y="-131" type="curve" smooth="yes"/>
      <point x="102" y="-122"/>
      <point x="107" y="-111"/>
      <point x="107" y="-99" type="curve" smooth="yes"/>
      <point x="107" y="-74"/>
      <point x="88" y="-61"/>
      <point x="66" y="-61" type="curve" smooth="yes"/>
      <point x="32" y="-61"/>
      <point x="10" y="-93"/>
      <point x="10" y="-130" type="curve" smooth="yes"/>
      <point x="10" y="-254"/>
      <point x="127" y="-294"/>
    </contour>
    <contour>
      <point x="252" y="132" type="curve" smooth="yes"/>
      <point x="356" y="132"/>
      <point x="437" y="203"/>
      <point x="437" y="293" type="curve" smooth="yes"/>
      <point x="437" y="383"/>
      <point x="355" y="454"/>
      <point x="252" y="454" type="curve" smooth="yes"/>
      <point x="148" y="454"/>
      <point x="67" y="384"/>
      <point x="67" y="293" type="curve" smooth="yes"/>
      <point x="67" y="201"/>
      <point x="150" y="132"/>
    </contour>
    <contour>
      <point x="252" y="157" type="curve" smooth="yes"/>
      <point x="174" y="157"/>
      <point x="144" y="216"/>
      <point x="144" y="293" type="curve" smooth="yes"/>
      <point x="144" y="370"/>
      <point x="174" y="429"/>
      <point x="252" y="429" type="curve" smooth="yes"/>
      <point x="330" y="429"/>
      <point x="360" y="370"/>
      <point x="360" y="293" type="curve" smooth="yes"/>
      <point x="360" y="216"/>
      <point x="330" y="157"/>
    </contour>
    <contour>
      <point x="503" y="378" type="curve" smooth="yes"/>
      <point x="524" y="378"/>
      <point x="546" y="394"/>
      <point x="546" y="422" type="curve" smooth="yes"/>
      <point x="546" y="456"/>
      <point x="511" y="479"/>
      <point x="470" y="479" type="curve" smooth="yes"/>
      <point x="428" y="479"/>
      <point x="384" y="462"/>
      <point x="356" y="420" type="curve"/>
      <point x="375" y="407" type="line"/>
      <point x="387" y="427"/>
      <point x="407" y="448"/>
      <point x="430" y="448" type="curve" smooth="yes"/>
      <point x="447" y="448"/>
      <point x="455" y="436"/>
      <point x="458" y="420" type="curve" smooth="yes"/>
      <point x="463" y="394"/>
      <point x="480" y="378"/>
    </contour>
    <contour>
      <point x="251" y="436" type="move" name="top"/>
    </contour>
  </outline>
</glyph>
<glyph name="h" format="1">
  <advance width="582"/>
  <unicode hex="0068"/>
  <outline>
    <contour>
      <point x="15" y="-3" type="line"/>
      <point x="138" y="0" type="line"/>
      <point x="261" y="-3" type="line"/>
      <point x="261" y="20" type="line"/>
      <point x="245" y="22" type="line" smooth="yes"/>
      <point x="187" y="29"/>
      <point x="173" y="31"/>
      <point x="173" y="121" type="curve" smooth="yes"/>
      <point x="173" y="640" type="line"/>
      <point x="103" y="640" type="line"/>
      <point x="103" y="121" type="line" smooth="yes"/>
      <point x="103" y="31"/>
      <point x="89" y="29"/>
      <point x="31" y="22" type="curve" smooth="yes"/>
      <point x="15" y="20" type="line"/>
    </contour>
    <component base="_part.jambage" xOffset="-12"/>
    <component base="_part.bdc" xOffset="-15" yOffset="277"/>
    <contour>
      <point x="289" y="0" type="move" name="bottom"/>
    </contour>
    <contour>
      <point x="142" y="567" type="move" name="center"/>
    </contour>
    <contour>
      <point x="108" y="710" type="move" name="top"/>
    </contour>
  </outline>
</glyph>
<glyph name="k" format="1">
  <advance width="524"/>
  <unicode hex="006B"/>
  <outline>
    <contour>
      <point x="15" y="-3" type="line"/>
      <point x="138" y="0" type="line"/>
      <point x="261" y="-3" type="line"/>
      <point x="261" y="20" type="line"/>
      <point x="245" y="22" type="line" smooth="yes"/>
      <point x="187" y="29"/>
      <point x="173" y="31"/>
      <point x="173" y="121" type="curve" smooth="yes"/>
      <point x="173" y="644" type="line"/>
      <point x="103" y="644" type="line"/>
      <point x="103" y="121" type="line" smooth="yes"/>
      <point x="103" y="31"/>
      <point x="89" y="29"/>
      <point x="31" y="22" type="curve" smooth="yes"/>
      <point x="15" y="20" type="line"/>
    </contour>
    <contour>
      <point x="524" y="-3" type="line"/>
      <point x="524" y="20" type="line"/>
      <point x="508" y="22" type="line"/>
      <point x="484" y="24"/>
      <point x="459" y="53"/>
      <point x="439" y="76" type="curve" smooth="yes"/>
      <point x="257" y="280" type="line"/>
      <point x="212" y="226" type="line"/>
      <point x="413" y="0" type="line"/>
    </contour>
    <contour>
      <point x="168" y="146" type="line"/>
      <point x="327" y="335" type="line" smooth="yes"/>
      <point x="360" y="375"/>
      <point x="398" y="405"/>
      <point x="458" y="413" type="curve" smooth="yes"/>
      <point x="474" y="415" type="line"/>
      <point x="474" y="438" type="line"/>
      <point x="390" y="436" type="line"/>
      <point x="294" y="438" type="line"/>
      <point x="294" y="415" type="line"/>
      <point x="310" y="413" type="line" smooth="yes"/>
      <point x="327" y="411"/>
      <point x="334" y="405"/>
      <point x="334" y="395" type="curve" smooth="yes"/>
      <point x="334" y="388"/>
      <point x="330" y="378"/>
      <point x="321" y="367" type="curve" smooth="yes"/>
      <point x="168" y="184" type="line"/>
    </contour>
    <component base="_part.bdc" xOffset="-15" yOffset="277"/>
    <contour>
      <point x="322" y="0" type="move" name="bottom"/>
    </contour>
    <contour>
      <point x="250" y="436" type="move" name="top"/>
    </contour>
  </outline>
</glyph>
<glyph name="l" format="1">
  <advance width="271"/>
  <unicode hex="006C"/>
  <outline>
    <contour>
      <point x="15" y="-3" type="line"/>
      <point x="138" y="0" type="line"/>
      <point x="261" y="-3" type="line"/>
      <point x="261" y="20" type="line"/>
      <point x="245" y="22" type="line" smooth="yes"/>
      <point x="187" y="29"/>
      <point x="173" y="31"/>
      <point x="173" y="121" type="curve" smooth="yes"/>
      <point x="173" y="644" type="line"/>
      <point x="103" y="644" type="line"/>
      <point x="103" y="121" type="line" smooth="yes"/>
      <point x="103" y="31"/>
      <point x="89" y="29"/>
      <point x="31" y="22" type="curve" smooth="yes"/>
      <point x="15" y="20" type="line"/>
    </contour>
    <component base="_part.bdc" xOffset="-15" yOffset="277"/>
    <contour>
      <point x="135" y="0" type="move" name="bottom"/>
    </contour>
    <contour>
      <point x="135" y="386" type="move" name="center"/>
    </contour>
    <contour>
      <point x="137" y="710" type="move" name="top"/>
    </contour>
    <contour>
      <point x="264" y="436" type="move" name="topright"/>
    </contour>
  </outline>
</glyph>
<glyph name="m" format="1">
  <advance width="874"/>
  <unicode hex="006D"/>
  <outline>
    <contour>
      <point x="628" y="-3" type="line"/>
      <point x="741" y="0" type="line"/>
      <point x="863" y="-3" type="line"/>
      <point x="863" y="20" type="line"/>
      <point x="847" y="22" type="line" smooth="yes"/>
      <point x="788" y="29"/>
      <point x="776" y="33"/>
      <point x="776" y="121" type="curve" smooth="yes"/>
      <point x="776" y="312" type="line" smooth="yes"/>
      <point x="776" y="410"/>
      <point x="720" y="454"/>
      <point x="634" y="454" type="curve" smooth="yes"/>
      <point x="537" y="454"/>
      <point x="469" y="378"/>
      <point x="459" y="315" type="curve"/>
      <point x="479" y="315" type="line"/>
      <point x="493" y="362"/>
      <point x="540" y="424"/>
      <point x="614" y="424" type="curve" smooth="yes"/>
      <point x="672" y="424"/>
      <point x="706" y="388"/>
      <point x="706" y="329" type="curve" smooth="yes"/>
      <point x="706" y="121" type="line" smooth="yes"/>
      <point x="706" y="31"/>
      <point x="694" y="28"/>
      <point x="644" y="22" type="curve" smooth="yes"/>
      <point x="628" y="20" type="line"/>
    </contour>
    <contour>
      <point x="28" y="-3" type="line"/>
      <point x="151" y="0" type="line"/>
      <point x="264" y="-3" type="line"/>
      <point x="264" y="20" type="line"/>
      <point x="248" y="22" type="line" smooth="yes"/>
      <point x="198" y="29"/>
      <point x="186" y="31"/>
      <point x="186" y="121" type="curve" smooth="yes"/>
      <point x="186" y="375" type="line"/>
      <point x="116" y="375" type="line"/>
      <point x="116" y="121" type="line" smooth="yes"/>
      <point x="116" y="31"/>
      <point x="102" y="29"/>
      <point x="44" y="22" type="curve" smooth="yes"/>
      <point x="28" y="20" type="line"/>
    </contour>
    <contour>
      <point x="116" y="332" type="curve"/>
      <point x="186" y="347" type="line"/>
      <point x="186" y="448" type="line"/>
      <point x="131" y="438"/>
      <point x="83" y="436"/>
      <point x="28" y="436" type="curve"/>
      <point x="28" y="413" type="line"/>
      <point x="82" y="413"/>
      <point x="116" y="404"/>
    </contour>
    <contour>
      <point x="333" y="-3" type="line"/>
      <point x="446" y="0" type="line"/>
      <point x="559" y="-3" type="line"/>
      <point x="559" y="20" type="line"/>
      <point x="543" y="22" type="line" smooth="yes"/>
      <point x="493" y="29"/>
      <point x="481" y="31"/>
      <point x="481" y="121" type="curve" smooth="yes"/>
      <point x="481" y="312" type="line" smooth="yes"/>
      <point x="481" y="410"/>
      <point x="425" y="454"/>
      <point x="339" y="454" type="curve" smooth="yes"/>
      <point x="242" y="454"/>
      <point x="174" y="378"/>
      <point x="164" y="315" type="curve"/>
      <point x="184" y="315" type="line"/>
      <point x="198" y="362"/>
      <point x="245" y="424"/>
      <point x="319" y="424" type="curve" smooth="yes"/>
      <point x="377" y="424"/>
      <point x="411" y="388"/>
      <point x="411" y="329" type="curve" smooth="yes"/>
      <point x="411" y="121" type="line" smooth="yes"/>
      <point x="411" y="31"/>
      <point x="399" y="29"/>
      <point x="349" y="22" type="curve" smooth="yes"/>
      <point x="333" y="20" type="line"/>
    </contour>
    <contour>
      <point x="486" y="436" type="move" name="top"/>
    </contour>
  </outline>
</glyph>
<glyph name="n" format="1">
  <advance width="593"/>
  <unicode hex="006E"/>
  <outline>
    <contour>
      <point x="27" y="-3" type="line"/>
      <point x="150" y="0" type="line"/>
      <point x="273" y="-3" type="line"/>
      <point x="273" y="20" type="line"/>
      <point x="257" y="22" type="line" smooth="yes"/>
      <point x="199" y="29"/>
      <point x="185" y="31"/>
      <point x="185" y="121" type="curve" smooth="yes"/>
      <point x="185" y="375" type="line"/>
      <point x="115" y="375" type="line"/>
      <point x="115" y="121" type="line" smooth="yes"/>
      <point x="115" y="31"/>
      <point x="101" y="29"/>
      <point x="43" y="22" type="curve" smooth="yes"/>
      <point x="27" y="20" type="line"/>
    </contour>
    <component base="_part.bdc" xOffset="-3"/>
    <component base="_part.jambage"/>
    <contour>
      <point x="301" y="0" type="move" name="bottom"/>
    </contour>
    <contour>
      <point x="301" y="436" type="move" name="top"/>
    </contour>
  </outline>
</glyph>
<glyph name="o" format="1">
  <advance width="550"/>
  <unicode hex="006F"/>
  <outline>
    <contour>
      <point x="275" y="-11" type="curve" smooth="yes"/>
      <point x="404" y="-11"/>
      <point x="505" y="92"/>
      <point x="505" y="220" type="curve" smooth="yes"/>
      <point x="505" y="351"/>
      <point x="404" y="454"/>
      <point x="275" y="454" type="curve" smooth="yes"/>
      <point x="146" y="454"/>
      <point x="45" y="351"/>
      <point x="45" y="220" type="curve" smooth="yes"/>
      <point x="45" y="92"/>
      <point x="146" y="-11"/>
    </contour>
    <contour>
      <point x="275" y="14" type="curve" smooth="yes"/>
      <point x="167" y="14"/>
      <point x="125" y="104"/>
      <point x="125" y="220" type="curve" smooth="yes"/>
      <point x="125" y="339"/>
      <point x="167" y="429"/>
      <point x="275" y="429" type="curve" smooth="yes"/>
      <point x="383" y="429"/>
      <point x="425" y="339"/>
      <point x="425" y="220" type="curve" smooth="yes"/>
      <point x="425" y="104"/>
      <point x="383" y="14"/>
    </contour>
    <contour>
      <point x="275" y="0" type="move" name="bottom"/>
    </contour>
    <contour>
      <point x="275" y="218" type="move" name="center"/>
    </contour>
    <contour>
      <point x="494" y="10" type="move" name="ogonek"/>
    </contour>
    <contour>
      <point x="275" y="429" type="move" name="top"/>
    </contour>
  </outline>
</glyph>
<glyph name="p" format="1">
  <advance width="562"/>
  <unicode hex="0070"/>
  <outline>
    <contour>
      <point x="17" y="-283" type="line"/>
      <point x="140" y="-280" type="line"/>
      <point x="263" y="-283" type="line"/>
      <point x="263" y="-260" type="line"/>
      <point x="247" y="-258" type="line" smooth="yes"/>
      <point x="189" y="-251"/>
      <point x="175" y="-249"/>
      <point x="175" y="-159" type="curve" smooth="yes"/>
      <point x="175" y="367" type="line"/>
      <point x="168" y="382" type="line"/>
      <point x="175" y="451" type="line"/>
      <point x="120" y="441"/>
      <point x="72" y="436"/>
      <point x="17" y="436" type="curve"/>
      <point x="17" y="413" type="line"/>
      <point x="71" y="413"/>
      <point x="105" y="407"/>
      <point x="105" y="335" type="curve" smooth="yes"/>
      <point x="105" y="-159" type="line" smooth="yes"/>
      <point x="105" y="-249"/>
      <point x="91" y="-251"/>
      <point x="33" y="-258" type="curve" smooth="yes"/>
      <point x="17" y="-260" type="line"/>
    </contour>
    <contour>
      <point x="310" y="-11" type="curve" smooth="yes"/>
      <point x="429" y="-11"/>
      <point x="517" y="91"/>
      <point x="517" y="220" type="curve" smooth="yes"/>
      <point x="517" y="351"/>
      <point x="429" y="454"/>
      <point x="314" y="454" type="curve" smooth="yes"/>
      <point x="246" y="454"/>
      <point x="194" y="418"/>
      <point x="155" y="367" type="curve"/>
      <point x="169" y="350" type="line"/>
      <point x="200" y="390"/>
      <point x="243" y="424"/>
      <point x="302" y="424" type="curve" smooth="yes"/>
      <point x="393" y="424"/>
      <point x="437" y="336"/>
      <point x="437" y="220" type="curve" smooth="yes"/>
      <point x="437" y="106"/>
      <point x="393" y="19"/>
      <point x="301" y="19" type="curve" smooth="yes"/>
      <point x="239" y="19"/>
      <point x="185" y="62"/>
      <point x="168" y="99" type="curve"/>
      <point x="159" y="65" type="line"/>
      <point x="186" y="28"/>
      <point x="243" y="-11"/>
    </contour>
    <contour>
      <point x="274" y="0" type="move" name="bottom"/>
    </contour>
    <contour>
      <point x="274" y="436" type="move" name="top"/>
    </contour>
  </outline>
</glyph>
<glyph name="r" format="1">
  <advance width="391"/>
  <unicode hex="0072"/>
  <outline>
    <contour>
      <point x="27" y="-3" type="line"/>
      <point x="150" y="0" type="line"/>
      <point x="273" y="-3" type="line"/>
      <point x="273" y="20" type="line"/>
      <point x="257" y="22" type="line" smooth="yes"/>
      <point x="199" y="29"/>
      <point x="185" y="31"/>
      <point x="185" y="121" type="curve" smooth="yes"/>
      <point x="185" y="279" type="line"/>
      <point x="192" y="315"/>
      <point x="203" y="346"/>
      <point x="215" y="371" type="curve" smooth="yes"/>
      <point x="230" y="401"/>
      <point x="252" y="420"/>
      <point x="271" y="420" type="curve" smooth="yes"/>
      <point x="279" y="420"/>
      <point x="285" y="417"/>
      <point x="285" y="410" type="curve" smooth="yes"/>
      <point x="285" y="407"/>
      <point x="284" y="403"/>
      <point x="283" y="400" type="curve" smooth="yes"/>
      <point x="282" y="397"/>
      <point x="280" y="389"/>
      <point x="280" y="382" type="curve" smooth="yes"/>
      <point x="280" y="360"/>
      <point x="297" y="344"/>
      <point x="324" y="344" type="curve" smooth="yes"/>
      <point x="352" y="344"/>
      <point x="371" y="365"/>
      <point x="371" y="394" type="curve" smooth="yes"/>
      <point x="371" y="419"/>
      <point x="357" y="454"/>
      <point x="301" y="454" type="curve" smooth="yes"/>
      <point x="252" y="454"/>
      <point x="207" y="422"/>
      <point x="178" y="333" type="curve"/>
      <point x="174" y="333" type="line"/>
      <point x="115" y="382" type="line"/>
      <point x="115" y="121" type="line" smooth="yes"/>
      <point x="115" y="31"/>
      <point x="101" y="29"/>
      <point x="43" y="22" type="curve" smooth="yes"/>
      <point x="27" y="20" type="line"/>
    </contour>
    <contour>
      <point x="115" y="329" type="curve"/>
      <point x="174" y="333" type="line"/>
      <point x="185" y="448" type="line"/>
      <point x="130" y="440"/>
      <point x="82" y="436"/>
      <point x="27" y="436" type="curve"/>
      <point x="27" y="413" type="line"/>
      <point x="81" y="413"/>
      <point x="115" y="407"/>
    </contour>
    <contour>
      <point x="148" y="0" type="move" name="bottom"/>
    </contour>
    <contour>
      <point x="188" y="436" type="move" name="top"/>
    </contour>
  </outline>
</glyph>
<glyph name="s" format="1">
  <advance width="403"/>
  <unicode hex="0073"/>
  <outline>
    <contour>
      <point x="212" y="-11" type="curve" smooth="yes"/>
      <point x="302" y="-11"/>
      <point x="352" y="51"/>
      <point x="352" y="122" type="curve" smooth="yes"/>
      <point x="352" y="182"/>
      <point x="325" y="224"/>
      <point x="244" y="255" type="curve" smooth="yes"/>
      <point x="205" y="270" type="line" smooth="yes"/>
      <point x="150" y="291"/>
      <point x="117" y="316"/>
      <point x="117" y="358" type="curve" smooth="yes"/>
      <point x="117" y="400"/>
      <point x="151" y="430"/>
      <point x="195" y="430" type="curve" smooth="yes"/>
      <point x="257" y="430"/>
      <point x="290" y="378"/>
      <point x="299" y="316" type="curve"/>
      <point x="322" y="316" type="line"/>
      <point x="322" y="386" type="line"/>
      <point x="326" y="451" type="line"/>
      <point x="304" y="452" type="line"/>
      <point x="300" y="438"/>
      <point x="296" y="431"/>
      <point x="288" y="431" type="curve" smooth="yes"/>
      <point x="284" y="431"/>
      <point x="279" y="432"/>
      <point x="271" y="436" type="curve" smooth="yes"/>
      <point x="255" y="444"/>
      <point x="232" y="454"/>
      <point x="199" y="454" type="curve" smooth="yes"/>
      <point x="129" y="454"/>
      <point x="66" y="404"/>
      <point x="66" y="325" type="curve" smooth="yes"/>
      <point x="66" y="262"/>
      <point x="101" y="225"/>
      <point x="171" y="198" type="curve" smooth="yes"/>
      <point x="207" y="184" type="line" smooth="yes"/>
      <point x="267" y="161"/>
      <point x="303" y="134"/>
      <point x="303" y="91" type="curve" smooth="yes"/>
      <point x="303" y="43"/>
      <point x="266" y="14"/>
      <point x="212" y="14" type="curve" smooth="yes"/>
      <point x="136" y="14"/>
      <point x="84" y="79"/>
      <point x="81" y="134" type="curve" smooth="yes"/>
      <point x="80" y="151" type="line"/>
      <point x="58" y="151" type="line"/>
      <point x="55" y="66" type="line"/>
      <point x="51" y="0" type="line"/>
      <point x="74" y="0" type="line"/>
      <point x="78" y="19"/>
      <point x="80" y="21"/>
      <point x="86" y="21" type="curve" smooth="yes"/>
      <point x="90" y="21"/>
      <point x="96" y="18"/>
      <point x="106" y="13" type="curve"/>
      <point x="126" y="4"/>
      <point x="161" y="-11"/>
    </contour>
    <contour>
      <point x="206" y="3" type="move" name="bottom"/>
    </contour>
    <contour>
      <point x="203" y="433" type="move" name="top"/>
    </contour>
  </outline>
</glyph>
<glyph name="t" format="1">
  <advance width="339"/>
  <unicode hex="0074"/>
  <outline>
    <contour>
      <point x="214" y="-11" type="curve" smooth="yes"/>
      <point x="246" y="-11"/>
      <point x="275" y="-1"/>
      <point x="298" y="24" type="curve" smooth="yes"/>
      <point x="309" y="36"/>
      <point x="321" y="53"/>
      <point x="329" y="73" type="curve"/>
      <point x="307" y="84" type="line"/>
      <point x="290" y="49"/>
      <point x="270" y="23"/>
      <point x="236" y="23" type="curve" smooth="yes"/>
      <point x="195" y="23"/>
      <point x="174" y="52"/>
      <point x="174" y="111" type="curve" smooth="yes"/>
      <point x="174" y="411" type="line"/>
      <point x="302" y="411" type="line"/>
      <point x="302" y="436" type="line"/>
      <point x="174" y="436" type="line"/>
      <point x="174" y="557" type="line"/>
      <point x="148" y="557" type="line"/>
      <point x="139" y="484"/>
      <point x="112" y="442"/>
      <point x="57" y="438" type="curve" smooth="yes"/>
      <point x="30" y="436" type="line"/>
      <point x="30" y="411" type="line"/>
      <point x="104" y="411" type="line"/>
      <point x="104" y="115" type="line" smooth="yes"/>
      <point x="104" y="25"/>
      <point x="149" y="-11"/>
    </contour>
    <contour>
      <point x="198" y="0" type="move" name="bottom"/>
    </contour>
    <contour>
      <point x="162" y="271" type="move" name="center"/>
    </contour>
    <contour>
      <point x="157" y="521" type="move" name="top"/>
    </contour>
    <contour>
      <point x="276" y="433" type="move" name="topright"/>
    </contour>
  </outline>
</glyph>
<glyph name="u" format="1">
  <advance width="571"/>
  <unicode hex="0075"/>
  <note>
    u
  </note>
  <outline>
    <contour>
      <point x="238" y="-11" type="curve" smooth="yes"/>
      <point x="303" y="-11"/>
      <point x="352" y="16"/>
      <point x="387" y="55" type="curve" smooth="yes"/>
      <point x="406" y="76"/>
      <point x="420" y="101"/>
      <point x="432" y="128" type="curve"/>
      <point x="408" y="133" type="line"/>
      <point x="384" y="78"/>
      <point x="334" y="21"/>
      <point x="261" y="21" type="curve" smooth="yes"/>
      <point x="204" y="21"/>
      <point x="168" y="56"/>
      <point x="168" y="122" type="curve" smooth="yes"/>
      <point x="168" y="434" type="line"/>
      <point x="133" y="433" type="line"/>
      <point x="10" y="436" type="line"/>
      <point x="10" y="413" type="line"/>
      <point x="26" y="411" type="line" smooth="yes"/>
      <point x="84" y="404"/>
      <point x="98" y="402"/>
      <point x="98" y="312" type="curve" smooth="yes"/>
      <point x="98" y="118" type="line" smooth="yes"/>
      <point x="98" y="33"/>
      <point x="151" y="-11"/>
    </contour>
    <contour>
      <point x="408" y="-9" type="line"/>
      <point x="466" y="1"/>
      <point x="506" y="1"/>
      <point x="561" y="1" type="curve"/>
      <point x="561" y="24" type="line"/>
      <point x="507" y="24"/>
      <point x="478" y="35"/>
      <point x="478" y="111" type="curve" smooth="yes"/>
      <point x="478" y="434" type="line"/>
      <point x="443" y="433" type="line"/>
      <point x="320" y="436" type="line"/>
      <point x="320" y="413" type="line"/>
      <point x="336" y="411" type="line" smooth="yes"/>
      <point x="394" y="404"/>
      <point x="408" y="402"/>
      <point x="408" y="312" type="curve" smooth="yes"/>
    </contour>
    <contour>
      <point x="237" y="0" type="move" name="bottom"/>
    </contour>
    <contour>
      <point x="430" y="0" type="move" name="ogonek"/>
    </contour>
    <contour>
      <point x="260" y="434" type="move" name="top"/>
    </contour>
  </outline>
</glyph>
<glyph name="x" format="1">
  <advance width="525"/>
  <unicode hex="0078"/>
  <outline>
    <contour>
      <point x="307" y="-2" type="line"/>
      <point x="431" y="0" type="line"/>
      <point x="530" y="-2" type="line"/>
      <point x="530" y="20" type="line"/>
      <point x="519" y="22" type="line" smooth="yes"/>
      <point x="480" y="29"/>
      <point x="446" y="66"/>
      <point x="415" y="100" type="curve" smooth="yes"/>
      <point x="188" y="350" type="line" smooth="yes"/>
      <point x="175" y="365"/>
      <point x="171" y="372"/>
      <point x="171" y="382" type="curve" smooth="yes"/>
      <point x="171" y="401"/>
      <point x="203" y="408"/>
      <point x="212" y="410" type="curve" smooth="yes"/>
      <point x="228" y="413" type="line"/>
      <point x="228" y="436" type="line"/>
      <point x="116" y="433" type="line"/>
      <point x="4" y="436" type="line"/>
      <point x="4" y="413" type="line"/>
      <point x="13" y="412" type="line" smooth="yes"/>
      <point x="41" y="409"/>
      <point x="57" y="394"/>
      <point x="89" y="359" type="curve" smooth="yes"/>
      <point x="349" y="73" type="line" smooth="yes"/>
      <point x="359" y="62"/>
      <point x="362" y="52"/>
      <point x="362" y="45" type="curve" smooth="yes"/>
      <point x="362" y="32"/>
      <point x="349" y="26"/>
      <point x="323" y="23" type="curve" smooth="yes"/>
      <point x="307" y="21" type="line"/>
    </contour>
    <contour>
      <point x="0" y="-3" type="line"/>
      <point x="97" y="0" type="line"/>
      <point x="191" y="-3" type="line"/>
      <point x="191" y="21" type="line"/>
      <point x="175" y="23" type="line" smooth="yes"/>
      <point x="150" y="26"/>
      <point x="140" y="38"/>
      <point x="140" y="52" type="curve" smooth="yes"/>
      <point x="140" y="62"/>
      <point x="147" y="74"/>
      <point x="156" y="84" type="curve" smooth="yes"/>
      <point x="249" y="191" type="line"/>
      <point x="233" y="208" type="line"/>
      <point x="142" y="105" type="line" smooth="yes"/>
      <point x="110" y="69"/>
      <point x="74" y="31"/>
      <point x="13" y="22" type="curve" smooth="yes"/>
      <point x="0" y="20" type="line"/>
    </contour>
    <contour>
      <point x="291" y="229" type="line"/>
      <point x="379" y="329" type="line" smooth="yes"/>
      <point x="414" y="368"/>
      <point x="452" y="407"/>
      <point x="507" y="412" type="curve" smooth="yes"/>
      <point x="518" y="413" type="line"/>
      <point x="518" y="436" type="line"/>
      <point x="442" y="433" type="line"/>
      <point x="326" y="436" type="line"/>
      <point x="326" y="413" type="line"/>
      <point x="332" y="412" type="line" smooth="yes"/>
      <point x="359" y="408"/>
      <point x="382" y="396"/>
      <point x="382" y="380" type="curve" smooth="yes"/>
      <point x="382" y="371"/>
      <point x="378" y="361"/>
      <point x="368" y="350" type="curve" smooth="yes"/>
      <point x="275" y="245" type="line"/>
    </contour>
  </outline>
</glyph>
<glyph name="bar" format="1">
  <advance width="184"/>
  <unicode hex="007C"/>
  <outline>
    <contour>
      <point x="74" y="-135" type="line"/>
      <point x="109" y="-135" type="line"/>
      <point x="109" y="834" type="line"/>
      <point x="74" y="834" type="line"/>
    </contour>
  </outline>
</glyph>
<glyph name="asciitilde" format="1">
  <advance width="748"/>
  <unicode hex="007E"/>
  <outline>
    <contour>
      <point x="40" y="230" type="curve"/>
      <point x="65" y="230" type="line"/>
      <point x="86" y="305"/>
      <point x="137" y="342"/>
      <point x="210" y="342" type="curve" smooth="yes"/>
      <point x="320" y="342"/>
      <point x="423" y="230"/>
      <point x="547" y="230" type="curve" smooth="yes"/>
      <point x="634" y="230"/>
      <point x="694" y="309"/>
      <point x="708" y="385" type="curve"/>
      <point x="683" y="385" type="line"/>
      <point x="668" y="337"/>
      <point x="630" y="287"/>
      <point x="559" y="287" type="curve" smooth="yes"/>
      <point x="466" y="287"/>
      <point x="327" y="401"/>
      <point x="213" y="401" type="curve" smooth="yes"/>
      <point x="78" y="401"/>
      <point x="40" y="267"/>
    </contour>
  </outline>
</glyph>
<glyph name="cent" format="1">
  <advance width="475"/>
  <unicode hex="00A2"/>
  <outline>
    <contour>
      <point x="249" y="-115" type="line"/>
      <point x="274" y="-115" type="line"/>
      <point x="274" y="558" type="line"/>
      <point x="249" y="558" type="line"/>
    </contour>
    <component base="c"/>
  </outline>
</glyph>
<glyph name="sterling" format="1">
  <advance width="560"/>
  <unicode hex="00A3"/>
  <outline>
    <contour>
      <point x="65" y="-11" type="curve" smooth="yes"/>
      <point x="113" y="-11"/>
      <point x="150" y="16"/>
      <point x="180" y="75" type="curve"/>
      <point x="262" y="59"/>
      <point x="322" y="-11"/>
      <point x="411" y="-11" type="curve" smooth="yes"/>
      <point x="512" y="-11"/>
      <point x="550" y="64"/>
      <point x="550" y="153" type="curve"/>
      <point x="528" y="153" type="line"/>
      <point x="523" y="91"/>
      <point x="486" y="60"/>
      <point x="429" y="60" type="curve" smooth="yes"/>
      <point x="352" y="60"/>
      <point x="290" y="98"/>
      <point x="191" y="99" type="curve"/>
      <point x="207" y="137"/>
      <point x="221" y="185"/>
      <point x="235" y="246" type="curve"/>
      <point x="237" y="257" type="line"/>
      <point x="246" y="299" type="line" smooth="yes"/>
      <point x="279" y="451"/>
      <point x="287" y="699"/>
      <point x="413" y="699" type="curve" smooth="yes"/>
      <point x="430" y="699"/>
      <point x="448" y="692"/>
      <point x="448" y="675" type="curve" smooth="yes"/>
      <point x="448" y="664"/>
      <point x="439" y="656"/>
      <point x="439" y="636" type="curve" smooth="yes"/>
      <point x="439" y="611"/>
      <point x="458" y="590"/>
      <point x="483" y="590" type="curve" smooth="yes"/>
      <point x="510" y="590"/>
      <point x="532" y="608"/>
      <point x="532" y="645" type="curve" smooth="yes"/>
      <point x="532" y="702"/>
      <point x="476" y="724"/>
      <point x="413" y="724" type="curve" smooth="yes"/>
      <point x="252" y="724"/>
      <point x="204" y="516"/>
      <point x="177" y="358" type="curve" smooth="yes"/>
      <point x="172" y="326"/>
      <point x="169" y="292"/>
      <point x="168" y="256" type="curve"/>
      <point x="166" y="245" type="line"/>
      <point x="164" y="191"/>
      <point x="162" y="137"/>
      <point x="153" y="97" type="curve"/>
      <point x="95" y="91"/>
      <point x="31" y="70"/>
      <point x="31" y="23" type="curve" smooth="yes"/>
      <point x="31" y="10"/>
      <point x="36" y="-11"/>
    </contour>
    <contour>
      <point x="77" y="308" type="line"/>
      <point x="172" y="308" type="line"/>
      <point x="174" y="333" type="line"/>
      <point x="81" y="333" type="line"/>
    </contour>
    <contour>
      <point x="227" y="308" type="line"/>
      <point x="417" y="308" type="line"/>
      <point x="421" y="333" type="line"/>
      <point x="232" y="333" type="line"/>
    </contour>
  </outline>
</glyph>
<glyph name="brokenbar" format="1">
  <advance width="554"/>
  <unicode hex="00A6"/>
  <outline>
    <contour>
      <point x="74" y="400" type="line"/>
      <point x="109" y="400" type="line"/>
      <point x="109" y="834" type="line"/>
      <point x="74" y="834" type="line"/>
    </contour>
    <contour>
      <point x="74" y="-135" type="line"/>
      <point x="109" y="-135" type="line"/>
      <point x="109" y="299" type="line"/>
      <point x="74" y="299" type="line"/>
    </contour>
  </outline>
</glyph>
<glyph name="section" format="1">
  <advance width="434"/>
  <unicode hex="00A7"/>
  <outline>
    <contour>
      <point x="228" y="-294" type="curve" smooth="yes"/>
      <point x="323" y="-294"/>
      <point x="394" y="-229"/>
      <point x="394" y="-128" type="curve" smooth="yes"/>
      <point x="394" y="-59"/>
      <point x="340" y="17"/>
      <point x="249" y="81" type="curve" smooth="yes"/>
      <point x="245" y="84" type="line"/>
      <point x="317" y="87"/>
      <point x="385" y="143"/>
      <point x="385" y="228" type="curve" smooth="yes"/>
      <point x="385" y="289"/>
      <point x="349" y="336"/>
      <point x="288" y="390" type="curve" smooth="yes"/>
      <point x="229" y="443" type="line" smooth="yes"/>
      <point x="178" y="489"/>
      <point x="121" y="535"/>
      <point x="121" y="599" type="curve" smooth="yes"/>
      <point x="121" y="654"/>
      <point x="167" y="698"/>
      <point x="231" y="698" type="curve" smooth="yes"/>
      <point x="283" y="698"/>
      <point x="308" y="675"/>
      <point x="308" y="650" type="curve" smooth="yes"/>
      <point x="308" y="630"/>
      <point x="293" y="626"/>
      <point x="293" y="601" type="curve" smooth="yes"/>
      <point x="293" y="575"/>
      <point x="312" y="558"/>
      <point x="340" y="558" type="curve" smooth="yes"/>
      <point x="370" y="558"/>
      <point x="389" y="585"/>
      <point x="389" y="614" type="curve" smooth="yes"/>
      <point x="389" y="676"/>
      <point x="314" y="724"/>
      <point x="231" y="724" type="curve" smooth="yes"/>
      <point x="131" y="724"/>
      <point x="60" y="659"/>
      <point x="60" y="561" type="curve" smooth="yes"/>
      <point x="60" y="496"/>
      <point x="99" y="438"/>
      <point x="179" y="373" type="curve" smooth="yes"/>
      <point x="213" y="346" type="line"/>
      <point x="135" y="345"/>
      <point x="69" y="289"/>
      <point x="69" y="209" type="curve" smooth="yes"/>
      <point x="69" y="132"/>
      <point x="122" y="79"/>
      <point x="203" y="6" type="curve" smooth="yes"/>
      <point x="263" y="-47"/>
      <point x="334" y="-90"/>
      <point x="334" y="-166" type="curve" smooth="yes"/>
      <point x="334" y="-216"/>
      <point x="293" y="-268"/>
      <point x="226" y="-268" type="curve" smooth="yes"/>
      <point x="181" y="-268"/>
      <point x="146" y="-249"/>
      <point x="146" y="-219" type="curve" smooth="yes"/>
      <point x="146" y="-196"/>
      <point x="162" y="-189"/>
      <point x="162" y="-166" type="curve" smooth="yes"/>
      <point x="162" y="-139"/>
      <point x="144" y="-121"/>
      <point x="118" y="-121" type="curve" smooth="yes"/>
      <point x="87" y="-121"/>
      <point x="66" y="-147"/>
      <point x="66" y="-184" type="curve" smooth="yes"/>
      <point x="66" y="-243"/>
      <point x="141" y="-294"/>
    </contour>
    <contour>
      <point x="247" y="110" type="curve" smooth="yes"/>
      <point x="186" y="110"/>
      <point x="130" y="167"/>
      <point x="130" y="238" type="curve" smooth="yes"/>
      <point x="130" y="293"/>
      <point x="169" y="320"/>
      <point x="213" y="320" type="curve" smooth="yes"/>
      <point x="267" y="320"/>
      <point x="324" y="261"/>
      <point x="324" y="199" type="curve" smooth="yes"/>
      <point x="324" y="140"/>
      <point x="288" y="110"/>
    </contour>
  </outline>
</glyph>
<glyph name="copyright" format="1">
  <advance width="859"/>
  <unicode hex="00A9"/>
  <outline>
    <contour>
      <point x="431" y="-11" type="curve" smooth="yes"/>
      <point x="653" y="-11"/>
      <point x="797" y="153"/>
      <point x="797" y="357" type="curve" smooth="yes"/>
      <point x="797" y="560"/>
      <point x="643" y="724"/>
      <point x="431" y="724" type="curve" smooth="yes"/>
      <point x="216" y="724"/>
      <point x="62" y="560"/>
      <point x="62" y="357" type="curve" smooth="yes"/>
      <point x="62" y="153"/>
      <point x="216" y="-11"/>
    </contour>
    <contour>
      <point x="439" y="167" type="curve" smooth="yes"/>
      <point x="495" y="167"/>
      <point x="564" y="193"/>
      <point x="589" y="272" type="curve"/>
      <point x="565" y="281" type="line"/>
      <point x="548" y="228"/>
      <point x="502" y="196"/>
      <point x="454" y="196" type="curve" smooth="yes"/>
      <point x="374" y="196"/>
      <point x="324" y="257"/>
      <point x="324" y="358" type="curve" smooth="yes"/>
      <point x="324" y="448"/>
      <point x="369" y="521"/>
      <point x="451" y="521" type="curve" smooth="yes"/>
      <point x="502" y="521"/>
      <point x="549" y="488"/>
      <point x="560" y="421" type="curve"/>
      <point x="579" y="421" type="line"/>
      <point x="577" y="482" type="line"/>
      <point x="579" y="543" type="line"/>
      <point x="563" y="543" type="line"/>
      <point x="561" y="528"/>
      <point x="557" y="523"/>
      <point x="549" y="523" type="curve" smooth="yes"/>
      <point x="536" y="523"/>
      <point x="502" y="550"/>
      <point x="439" y="550" type="curve" smooth="yes"/>
      <point x="326" y="550"/>
      <point x="243" y="468"/>
      <point x="243" y="358" type="curve" smooth="yes"/>
      <point x="243" y="246"/>
      <point x="317" y="167"/>
    </contour>
    <contour>
      <point x="431" y="28" type="curve" smooth="yes"/>
      <point x="240" y="28"/>
      <point x="104" y="179"/>
      <point x="104" y="357" type="curve" smooth="yes"/>
      <point x="104" y="534"/>
      <point x="240" y="685"/>
      <point x="431" y="685" type="curve" smooth="yes"/>
      <point x="619" y="685"/>
      <point x="755" y="534"/>
      <point x="755" y="357" type="curve" smooth="yes"/>
      <point x="755" y="179"/>
      <point x="629" y="28"/>
    </contour>
  </outline>
</glyph>
<glyph name="ordfeminine" format="1">
  <advance width="398"/>
  <unicode hex="00AA"/>
  <outline>
    <contour>
      <point x="36" y="185" type="line"/>
      <point x="388" y="185" type="line"/>
      <point x="388" y="209" type="line"/>
      <point x="36" y="209" type="line"/>
    </contour>
    <component base="a.sups"/>
  </outline>
</glyph>
<glyph name="degree" format="1">
  <advance width="303"/>
  <unicode hex="00B0"/>
  <outline>
    <contour>
      <point x="152" y="442" type="curve" smooth="yes"/>
      <point x="224" y="442"/>
      <point x="283" y="501"/>
      <point x="283" y="574" type="curve" smooth="yes"/>
      <point x="283" y="646"/>
      <point x="224" y="705"/>
      <point x="152" y="705" type="curve" smooth="yes"/>
      <point x="79" y="705"/>
      <point x="20" y="646"/>
      <point x="20" y="574" type="curve" smooth="yes"/>
      <point x="20" y="501"/>
      <point x="79" y="442"/>
    </contour>
    <contour>
      <point x="152" y="479" type="curve" smooth="yes"/>
      <point x="99" y="479"/>
      <point x="57" y="521"/>
      <point x="57" y="574" type="curve" smooth="yes"/>
      <point x="57" y="626"/>
      <point x="99" y="668"/>
      <point x="152" y="668" type="curve" smooth="yes"/>
      <point x="204" y="668"/>
      <point x="246" y="626"/>
      <point x="246" y="574" type="curve" smooth="yes"/>
      <point x="246" y="521"/>
      <point x="204" y="479"/>
    </contour>
  </outline>
</glyph>
<glyph name="acute" format="1">
  <advance width="211"/>
  <unicode hex="00B4"/>
  <outline>
    <contour>
      <point x="50" y="520" type="line"/>
      <point x="72" y="520" type="line"/>
      <point x="146" y="639" type="line" smooth="yes"/>
      <point x="156" y="655"/>
      <point x="163" y="672"/>
      <point x="163" y="688" type="curve" smooth="yes"/>
      <point x="163" y="712"/>
      <point x="148" y="724"/>
      <point x="132" y="724" type="curve" smooth="yes"/>
      <point x="116" y="724"/>
      <point x="100" y="710"/>
      <point x="89" y="668" type="curve" smooth="yes"/>
    </contour>
  </outline>
</glyph>
<glyph name="paragraph" format="1">
  <advance width="600"/>
  <unicode hex="00B6"/>
  <outline>
    <contour>
      <point x="298" y="-186" type="line"/>
      <point x="340" y="-186" type="line"/>
      <point x="340" y="676" type="line"/>
      <point x="430" y="676" type="line"/>
      <point x="430" y="-186" type="line"/>
      <point x="471" y="-186" type="line"/>
      <point x="471" y="641" type="line" smooth="yes"/>
      <point x="471" y="677"/>
      <point x="508" y="685"/>
      <point x="561" y="685" type="curve"/>
      <point x="561" y="712" type="line"/>
      <point x="367" y="710" type="line"/>
      <point x="276" y="712" type="line"/>
      <point x="139" y="708"/>
      <point x="63" y="628"/>
      <point x="63" y="522" type="curve" smooth="yes"/>
      <point x="63" y="396"/>
      <point x="153" y="329"/>
      <point x="298" y="329" type="curve"/>
    </contour>
  </outline>
</glyph>
<glyph name="ordmasculine" format="1">
  <advance width="442"/>
  <unicode hex="00BA"/>
  <outline>
    <contour>
      <point x="45" y="185" type="line"/>
      <point x="398" y="185" type="line"/>
      <point x="398" y="209" type="line"/>
      <point x="45" y="209" type="line"/>
    </contour>
    <component base="o.sups"/>
  </outline>
</glyph>
<glyph name="AE" format="1">
  <advance width="1017"/>
  <unicode hex="00C6"/>
  <outline>
    <contour>
      <point x="-15" y="-3" type="line"/>
      <point x="20" y="-1"/>
      <point x="69" y="0"/>
      <point x="117" y="0" type="curve" smooth="yes"/>
      <point x="165" y="0"/>
      <point x="213" y="-1"/>
      <point x="244" y="-3" type="curve"/>
      <point x="244" y="19" type="line"/>
      <point x="213" y="22" type="line" smooth="yes"/>
      <point x="184" y="25"/>
      <point x="159" y="37"/>
      <point x="159" y="67" type="curve" smooth="yes"/>
      <point x="159" y="81"/>
      <point x="165" y="101"/>
      <point x="180" y="125" type="curve" smooth="yes"/>
      <point x="504" y="664" type="line"/>
      <point x="504" y="199" type="line" smooth="yes"/>
      <point x="504" y="48"/>
      <point x="490" y="29"/>
      <point x="440" y="24" type="curve" smooth="yes"/>
      <point x="368" y="17" type="line"/>
      <point x="368" y="-3" type="line"/>
      <point x="523" y="0" type="line"/>
      <point x="967" y="0" type="line"/>
      <point x="970" y="90" type="line"/>
      <point x="977" y="210" type="line"/>
      <point x="952" y="210" type="line"/>
      <point x="939" y="52"/>
      <point x="907" y="25"/>
      <point x="781" y="25" type="curve" smooth="yes"/>
      <point x="688" y="25" type="line" smooth="yes"/>
      <point x="612" y="25"/>
      <point x="591" y="54"/>
      <point x="591" y="107" type="curve" smooth="yes"/>
      <point x="591" y="683" type="line"/>
      <point x="721" y="683" type="line" smooth="yes"/>
      <point x="869" y="683"/>
      <point x="901" y="669"/>
      <point x="920" y="546" type="curve"/>
      <point x="944" y="546" type="line"/>
      <point x="936" y="638" type="line"/>
      <point x="934" y="710" type="line"/>
      <point x="505" y="710" type="line"/>
      <point x="396" y="713" type="line"/>
      <point x="396" y="690" type="line"/>
      <point x="432" y="688" type="line" smooth="yes"/>
      <point x="455" y="687"/>
      <point x="464" y="679"/>
      <point x="464" y="667" type="curve" smooth="yes"/>
      <point x="464" y="652"/>
      <point x="451" y="630"/>
      <point x="435" y="603" type="curve" smooth="yes"/>
      <point x="146" y="123" type="line" smooth="yes"/>
      <point x="92" y="33"/>
      <point x="58" y="27"/>
      <point x="11" y="22" type="curve" smooth="yes"/>
      <point x="-15" y="19" type="line"/>
    </contour>
    <contour>
      <point x="283" y="310" type="line"/>
      <point x="511" y="310" type="line"/>
      <point x="511" y="336" type="line"/>
      <point x="299" y="336" type="line"/>
    </contour>
    <contour>
      <point x="772" y="226" type="curve"/>
      <point x="797" y="226" type="line"/>
      <point x="794" y="374" type="line"/>
      <point x="797" y="508" type="line"/>
      <point x="772" y="508" type="line"/>
      <point x="767" y="408"/>
      <point x="740" y="387"/>
      <point x="701" y="387" type="curve" smooth="yes"/>
      <point x="585" y="387" type="line"/>
      <point x="585" y="362" type="line"/>
      <point x="701" y="362" type="line" smooth="yes"/>
      <point x="747" y="362"/>
      <point x="772" y="324"/>
    </contour>
    <contour>
      <point x="566" y="0" type="move" name="bottom"/>
    </contour>
    <contour>
      <point x="947" y="10" type="move" name="ogonek"/>
    </contour>
    <contour>
      <point x="708" y="710" type="move" name="top"/>
    </contour>
    <contour>
      <point x="360" y="710" type="move" name="topleft"/>
    </contour>
  </outline>
</glyph>
<glyph name="multiply" format="1">
  <advance width="600"/>
  <unicode hex="00D7"/>
  <outline>
    <contour>
      <point x="151" y="104" type="line"/>
      <point x="326" y="279" type="line"/>
      <point x="501" y="104" type="line"/>
      <point x="530" y="133" type="line"/>
      <point x="355" y="308" type="line"/>
      <point x="530" y="483" type="line"/>
      <point x="501" y="512" type="line"/>
      <point x="326" y="337" type="line"/>
      <point x="151" y="512" type="line"/>
      <point x="122" y="483" type="line"/>
      <point x="297" y="308" type="line"/>
      <point x="122" y="133" type="line"/>
    </contour>
  </outline>
</glyph>
<glyph name="Thorn" format="1">
  <advance width="555"/>
  <unicode hex="00DE"/>
  <outline>
    <contour>
      <point x="41" y="-3" type="line"/>
      <point x="191" y="0" type="line"/>
      <point x="333" y="-3" type="line"/>
      <point x="333" y="22" type="line"/>
      <point x="313" y="24" type="line" smooth="yes"/>
      <point x="244" y="32"/>
      <point x="226" y="34"/>
      <point x="226" y="133" type="curve" smooth="yes"/>
      <point x="226" y="577" type="line" smooth="yes"/>
      <point x="226" y="676"/>
      <point x="243" y="678"/>
      <point x="312" y="686" type="curve" smooth="yes"/>
      <point x="332" y="688" type="line"/>
      <point x="332" y="713" type="line"/>
      <point x="187" y="710" type="line"/>
      <point x="40" y="713" type="line"/>
      <point x="40" y="688" type="line"/>
      <point x="60" y="686" type="line" smooth="yes"/>
      <point x="129" y="678"/>
      <point x="146" y="676"/>
      <point x="146" y="577" type="curve" smooth="yes"/>
      <point x="146" y="133" type="line" smooth="yes"/>
      <point x="146" y="34"/>
      <point x="130" y="32"/>
      <point x="61" y="24" type="curve" smooth="yes"/>
      <point x="41" y="22" type="line"/>
    </contour>
    <contour>
      <point x="221" y="179" type="line"/>
      <point x="298" y="179" type="line" smooth="yes"/>
      <point x="469" y="179"/>
      <point x="565" y="256"/>
      <point x="565" y="370" type="curve" smooth="yes"/>
      <point x="565" y="539"/>
      <point x="420" y="556"/>
      <point x="313" y="556" type="curve" smooth="yes"/>
      <point x="220" y="556" type="line"/>
      <point x="220" y="531" type="line"/>
      <point x="313" y="531" type="line" smooth="yes"/>
      <point x="426" y="531"/>
      <point x="465" y="490"/>
      <point x="465" y="370" type="curve" smooth="yes"/>
      <point x="465" y="267"/>
      <point x="436" y="205"/>
      <point x="298" y="205" type="curve" smooth="yes"/>
      <point x="221" y="205" type="line"/>
    </contour>
    <contour>
      <point x="285" y="0" type="move" name="bottom"/>
    </contour>
    <contour>
      <point x="285" y="710" type="move" name="top"/>
    </contour>
  </outline>
</glyph>
<glyph name="eth" format="1">
  <advance width="550"/>
  <unicode hex="00F0"/>
  <outline>
    <contour>
      <point x="275" y="-11" type="curve" smooth="yes"/>
      <point x="404" y="-11"/>
      <point x="505" y="92"/>
      <point x="505" y="237" type="curve" smooth="yes"/>
      <point x="505" y="420"/>
      <point x="365" y="641"/>
      <point x="131" y="724" type="curve"/>
      <point x="121" y="702" type="line"/>
      <point x="258" y="640"/>
      <point x="354" y="529"/>
      <point x="402" y="402" type="curve"/>
      <point x="411" y="410" type="line"/>
      <point x="372" y="438"/>
      <point x="326" y="454"/>
      <point x="275" y="454" type="curve" smooth="yes"/>
      <point x="146" y="454"/>
      <point x="45" y="351"/>
      <point x="45" y="220" type="curve" smooth="yes"/>
      <point x="45" y="92"/>
      <point x="146" y="-11"/>
    </contour>
    <contour>
      <point x="275" y="14" type="curve" smooth="yes"/>
      <point x="167" y="14"/>
      <point x="125" y="104"/>
      <point x="125" y="220" type="curve" smooth="yes"/>
      <point x="125" y="339"/>
      <point x="167" y="429"/>
      <point x="275" y="429" type="curve" smooth="yes"/>
      <point x="383" y="429"/>
      <point x="425" y="339"/>
      <point x="425" y="220" type="curve" smooth="yes"/>
      <point x="425" y="104"/>
      <point x="383" y="14"/>
    </contour>
    <contour>
      <point x="138" y="555" type="line"/>
      <point x="419" y="661" type="line"/>
      <point x="410" y="684" type="line"/>
      <point x="130" y="578" type="line"/>
    </contour>
    <contour>
      <point x="275" y="0" type="move" name="bottom"/>
    </contour>
    <contour>
      <point x="275" y="218" type="move" name="center"/>
    </contour>
    <contour>
      <point x="494" y="10" type="move" name="ogonek"/>
    </contour>
    <contour>
      <point x="275" y="429" type="move" name="top"/>
    </contour>
  </outline>
</glyph>
<glyph name="divide" format="1">
  <advance width="600"/>
  <unicode hex="00F7"/>
  <outline>
    <contour>
      <point x="78" y="294" type="line"/>
      <point x="514" y="294" type="line"/>
      <point x="514" y="334" type="line"/>
      <point x="78" y="334" type="line"/>
    </contour>
    <contour>
      <point x="294" y="81" type="curve" smooth="yes"/>
      <point x="319" y="81"/>
      <point x="343" y="104"/>
      <point x="344" y="132" type="curve"/>
      <point x="346" y="159"/>
      <point x="325" y="182"/>
      <point x="299" y="182" type="curve" smooth="yes"/>
      <point x="273" y="182"/>
      <point x="249" y="157"/>
      <point x="249" y="128" type="curve" smooth="yes"/>
      <point x="249" y="102"/>
      <point x="269" y="81"/>
    </contour>
    <contour>
      <point x="294" y="425" type="curve" smooth="yes"/>
      <point x="319" y="425"/>
      <point x="343" y="448"/>
      <point x="344" y="476" type="curve"/>
      <point x="346" y="503"/>
      <point x="325" y="526"/>
      <point x="299" y="526" type="curve" smooth="yes"/>
      <point x="273" y="526"/>
      <point x="249" y="501"/>
      <point x="249" y="472" type="curve" smooth="yes"/>
      <point x="249" y="446"/>
      <point x="269" y="425"/>
    </contour>
  </outline>
</glyph>
<glyph name="Aogonek" format="1">
  <advance width="715"/>
  <unicode hex="0104"/>
  <outline>
    <contour>
      <point x="495" y="-294" type="curve" smooth="yes"/>
      <point x="577" y="-294"/>
      <point x="618" y="-234"/>
      <point x="627" y="-183" type="curve"/>
      <point x="610" y="-170" type="line"/>
      <point x="588" y="-211"/>
      <point x="551" y="-238"/>
      <point x="513" y="-238" type="curve" smooth="yes"/>
      <point x="464" y="-238"/>
      <point x="439" y="-196"/>
      <point x="439" y="-150" type="curve" smooth="yes"/>
      <point x="439" y="-58"/>
      <point x="517" y="0"/>
      <point x="613" y="0" type="curve" smooth="yes"/>
      <point x="627" y="0" type="line"/>
      <point x="745" y="-3" type="line"/>
      <point x="745" y="22" type="line"/>
      <point x="725" y="24" type="line" smooth="yes"/>
      <point x="671" y="29"/>
      <point x="645" y="58"/>
      <point x="619" y="123" type="curve" smooth="yes"/>
      <point x="380" y="717" type="line"/>
      <point x="352" y="717" type="line"/>
      <point x="107" y="123" type="line" smooth="yes"/>
      <point x="77" y="50"/>
      <point x="48" y="32"/>
      <point x="-21" y="23" type="curve" smooth="yes"/>
      <point x="-30" y="22" type="line"/>
      <point x="-30" y="-3" type="line"/>
      <point x="91" y="0" type="line"/>
      <point x="218" y="-3" type="line"/>
      <point x="218" y="22" type="line"/>
      <point x="198" y="24" type="line" smooth="yes"/>
      <point x="150" y="28"/>
      <point x="133" y="42"/>
      <point x="133" y="68" type="curve" smooth="yes"/>
      <point x="133" y="82"/>
      <point x="139" y="101"/>
      <point x="148" y="124" type="curve" smooth="yes"/>
      <point x="201" y="255" type="line"/>
      <point x="478" y="255" type="line"/>
      <point x="520" y="147" type="line" smooth="yes"/>
      <point x="529" y="125"/>
      <point x="532" y="106"/>
      <point x="532" y="89" type="curve" smooth="yes"/>
      <point x="532" y="56"/>
      <point x="526" y="36"/>
      <point x="479" y="-16" type="curve" smooth="yes"/>
      <point x="444" y="-54"/>
      <point x="384" y="-123"/>
      <point x="384" y="-191" type="curve" smooth="yes"/>
      <point x="384" y="-255"/>
      <point x="438" y="-294"/>
    </contour>
    <contour>
      <point x="214" y="286" type="line"/>
      <point x="343" y="604" type="line"/>
      <point x="466" y="286" type="line"/>
    </contour>
  </outline>
</glyph>
<glyph name="Eogonek" format="1">
  <advance width="649"/>
  <unicode hex="0118"/>
  <outline>
    <contour>
      <point x="494" y="-294" type="curve" smooth="yes"/>
      <point x="580" y="-294"/>
      <point x="617" y="-234"/>
      <point x="624" y="-183" type="curve"/>
      <point x="607" y="-170" type="line"/>
      <point x="588" y="-212"/>
      <point x="552" y="-239"/>
      <point x="515" y="-239" type="curve" smooth="yes"/>
      <point x="474" y="-239"/>
      <point x="439" y="-210"/>
      <point x="439" y="-154" type="curve" smooth="yes"/>
      <point x="439" y="-69"/>
      <point x="527" y="0"/>
      <point x="599" y="0" type="curve"/>
      <point x="593" y="29" type="line"/>
      <point x="460" y="-14"/>
      <point x="386" y="-112"/>
      <point x="386" y="-191" type="curve" smooth="yes"/>
      <point x="386" y="-250"/>
      <point x="433" y="-294"/>
    </contour>
    <component base="E"/>
  </outline>
</glyph>
<glyph name="idotless" format="1">
  <advance width="299"/>
  <unicode hex="0131"/>
  <outline>
    <contour>
      <point x="28" y="-3" type="line"/>
      <point x="151" y="0" type="line"/>
      <point x="274" y="-3" type="line"/>
      <point x="274" y="20" type="line"/>
      <point x="258" y="22" type="line" smooth="yes"/>
      <point x="200" y="29"/>
      <point x="186" y="31"/>
      <point x="186" y="121" type="curve" smooth="yes"/>
      <point x="186" y="375" type="line"/>
      <point x="116" y="375" type="line"/>
      <point x="116" y="121" type="line" smooth="yes"/>
      <point x="116" y="31"/>
      <point x="102" y="29"/>
      <point x="44" y="22" type="curve" smooth="yes"/>
      <point x="28" y="20" type="line"/>
    </contour>
    <component base="_part.bdc" xOffset="-2"/>
    <contour>
      <point x="149" y="0" type="move" name="bottom"/>
    </contour>
    <contour>
      <point x="172" y="0" type="move" name="ogonek"/>
    </contour>
    <contour>
      <point x="142" y="436" type="move" name="top"/>
    </contour>
  </outline>
</glyph>
<glyph name="Eng" format="1">
  <advance width="782"/>
  <unicode hex="014A"/>
  <outline>
    <contour>
      <point x="524" y="-264" type="curve" smooth="yes"/>
      <point x="588" y="-264"/>
      <point x="656" y="-229"/>
      <point x="656" y="-60" type="curve" smooth="yes"/>
      <point x="656" y="577" type="line" smooth="yes"/>
      <point x="656" y="676"/>
      <point x="673" y="678"/>
      <point x="742" y="686" type="curve" smooth="yes"/>
      <point x="762" y="688" type="line"/>
      <point x="762" y="713" type="line"/>
      <point x="641" y="711" type="line"/>
      <point x="520" y="713" type="line"/>
      <point x="520" y="688" type="line"/>
      <point x="540" y="686" type="line" smooth="yes"/>
      <point x="609" y="678"/>
      <point x="626" y="676"/>
      <point x="626" y="577" type="curve" smooth="yes"/>
      <point x="626" y="187" type="line"/>
      <point x="573" y="255"/>
      <point x="307" y="604"/>
      <point x="230" y="710" type="curve"/>
      <point x="35" y="713" type="line"/>
      <point x="36" y="684" type="line"/>
      <point x="58" y="684" type="line" smooth="yes"/>
      <point x="110" y="684"/>
      <point x="131" y="664"/>
      <point x="146" y="649" type="curve"/>
      <point x="146" y="133" type="line" smooth="yes"/>
      <point x="146" y="34"/>
      <point x="129" y="32"/>
      <point x="60" y="24" type="curve" smooth="yes"/>
      <point x="40" y="22" type="line"/>
      <point x="40" y="-3" type="line"/>
      <point x="161" y="-1" type="line"/>
      <point x="282" y="-3" type="line"/>
      <point x="282" y="22" type="line"/>
      <point x="262" y="24" type="line" smooth="yes"/>
      <point x="193" y="32"/>
      <point x="176" y="34"/>
      <point x="176" y="133" type="curve" smooth="yes"/>
      <point x="176" y="617" type="line"/>
      <point x="272" y="506"/>
      <point x="559" y="135"/>
      <point x="626" y="0" type="curve"/>
      <point x="626" y="-58" type="line" smooth="yes"/>
      <point x="626" y="-150"/>
      <point x="605" y="-223"/>
      <point x="554" y="-223" type="curve" smooth="yes"/>
      <point x="534" y="-223"/>
      <point x="534" y="-210"/>
      <point x="534" y="-187" type="curve" smooth="yes"/>
      <point x="534" y="-160"/>
      <point x="516" y="-137"/>
      <point x="486" y="-137" type="curve" smooth="yes"/>
      <point x="456" y="-137"/>
      <point x="438" y="-161"/>
      <point x="438" y="-187" type="curve" smooth="yes"/>
      <point x="438" y="-237"/>
      <point x="474" y="-264"/>
    </contour>
    <contour>
      <point x="437" y="0" type="move" name="bottom"/>
    </contour>
    <contour>
      <point x="403" y="710" type="move" name="top"/>
    </contour>
  </outline>
</glyph>
<glyph name="oe" format="1">
  <advance width="857"/>
  <unicode hex="0153"/>
  <outline>
    <component base="o"/>
    <component base="e" xOffset="375"/>
    <contour>
      <point x="415" y="0" type="move" name="bottom"/>
    </contour>
    <contour>
      <point x="415" y="436" type="move" name="top"/>
    </contour>
  </outline>
</glyph>
<glyph name="florin" format="1">
  <advance width="359"/>
  <unicode hex="0192"/>
  <outline>
    <contour>
      <point x="66" y="-294" type="curve" smooth="yes"/>
      <point x="145" y="-294"/>
      <point x="203" y="-237"/>
      <point x="203" y="-152" type="curve" smooth="yes"/>
      <point x="203" y="410" type="line"/>
      <point x="306" y="410" type="line"/>
      <point x="306" y="433" type="line"/>
      <point x="203" y="433" type="line"/>
      <point x="203" y="550" type="line" smooth="yes"/>
      <point x="203" y="632"/>
      <point x="217" y="699"/>
      <point x="293" y="699" type="curve" smooth="yes"/>
      <point x="310" y="699"/>
      <point x="328" y="692"/>
      <point x="328" y="675" type="curve" smooth="yes"/>
      <point x="328" y="664"/>
      <point x="319" y="656"/>
      <point x="319" y="636" type="curve" smooth="yes"/>
      <point x="319" y="611"/>
      <point x="338" y="590"/>
      <point x="363" y="590" type="curve" smooth="yes"/>
      <point x="390" y="590"/>
      <point x="412" y="608"/>
      <point x="412" y="643" type="curve" smooth="yes"/>
      <point x="412" y="696"/>
      <point x="361" y="724"/>
      <point x="293" y="724" type="curve" smooth="yes"/>
      <point x="188" y="724"/>
      <point x="133" y="672"/>
      <point x="133" y="550" type="curve" smooth="yes"/>
      <point x="133" y="433" type="line"/>
      <point x="47" y="433" type="line"/>
      <point x="47" y="410" type="line"/>
      <point x="133" y="410" type="line"/>
      <point x="133" y="-152" type="line" smooth="yes"/>
      <point x="133" y="-205"/>
      <point x="128" y="-273"/>
      <point x="83" y="-273" type="curve" smooth="yes"/>
      <point x="68" y="-273"/>
      <point x="59" y="-266"/>
      <point x="59" y="-251" type="curve" smooth="yes"/>
      <point x="59" y="-236"/>
      <point x="63" y="-232"/>
      <point x="63" y="-217" type="curve" smooth="yes"/>
      <point x="63" y="-194"/>
      <point x="45" y="-167"/>
      <point x="15" y="-167" type="curve" smooth="yes"/>
      <point x="-15" y="-167"/>
      <point x="-33" y="-190"/>
      <point x="-33" y="-223" type="curve" smooth="yes"/>
      <point x="-33" y="-269"/>
      <point x="3" y="-294"/>
    </contour>
  </outline>
</glyph>
<glyph name="circumflex" format="1">
  <advance width="310"/>
  <unicode hex="02C6"/>
  <outline>
    <contour>
      <point x="50" y="520" type="line"/>
      <point x="74" y="520" type="line"/>
      <point x="152" y="618" type="line"/>
      <point x="158" y="618" type="line"/>
      <point x="236" y="520" type="line"/>
      <point x="260" y="520" type="line"/>
      <point x="166" y="710" type="line"/>
      <point x="144" y="710" type="line"/>
    </contour>
  </outline>
</glyph>
<glyph name="breve" format="1">
  <advance width="299"/>
  <unicode hex="02D8"/>
  <outline>
    <contour>
      <point x="151" y="547" type="curve" smooth="yes"/>
      <point x="218" y="547"/>
      <point x="252" y="598"/>
      <point x="252" y="663" type="curve" smooth="yes"/>
      <point x="252" y="696" type="line"/>
      <point x="227" y="696" type="line"/>
      <point x="227" y="691" type="line" smooth="yes"/>
      <point x="227" y="625"/>
      <point x="199" y="607"/>
      <point x="151" y="607" type="curve" smooth="yes"/>
      <point x="103" y="607"/>
      <point x="75" y="625"/>
      <point x="75" y="691" type="curve" smooth="yes"/>
      <point x="75" y="696" type="line"/>
      <point x="50" y="696" type="line"/>
      <point x="50" y="663" type="line" smooth="yes"/>
      <point x="50" y="598"/>
      <point x="84" y="547"/>
    </contour>
  </outline>
</glyph>
<glyph name="dotaccent" format="1">
  <advance width="281"/>
  <unicode hex="02D9"/>
  <outline>
    <contour>
      <point x="134" y="544" type="curve" smooth="yes"/>
      <point x="172" y="544"/>
      <point x="190" y="571"/>
      <point x="190" y="605" type="curve" smooth="yes"/>
      <point x="190" y="639"/>
      <point x="172" y="666"/>
      <point x="134" y="666" type="curve" smooth="yes"/>
      <point x="99" y="666"/>
      <point x="78" y="639"/>
      <point x="78" y="605" type="curve" smooth="yes"/>
      <point x="78" y="571"/>
      <point x="99" y="544"/>
    </contour>
    <contour>
      <point x="132" y="433" type="move" name="_top"/>
    </contour>
  </outline>
</glyph>
<glyph name="ring" format="1">
  <advance width="269"/>
  <unicode hex="02DA"/>
  <outline>
    <contour>
      <point x="136" y="510" type="curve" smooth="yes"/>
      <point x="176" y="510"/>
      <point x="219" y="536"/>
      <point x="219" y="595" type="curve" smooth="yes"/>
      <point x="219" y="632"/>
      <point x="194" y="680"/>
      <point x="135" y="680" type="curve" smooth="yes"/>
      <point x="80" y="680"/>
      <point x="50" y="637"/>
      <point x="50" y="595" type="curve" smooth="yes"/>
      <point x="50" y="548"/>
      <point x="84" y="510"/>
    </contour>
    <contour>
      <point x="136" y="541" type="curve" smooth="yes"/>
      <point x="108" y="541"/>
      <point x="83" y="561"/>
      <point x="83" y="595" type="curve" smooth="yes"/>
      <point x="83" y="633"/>
      <point x="112" y="649"/>
      <point x="135" y="649" type="curve" smooth="yes"/>
      <point x="161" y="649"/>
      <point x="186" y="630"/>
      <point x="186" y="595" type="curve" smooth="yes"/>
      <point x="186" y="559"/>
      <point x="161" y="541"/>
    </contour>
  </outline>
</glyph>
<glyph name="ogonek" format="1">
  <advance width="298"/>
  <unicode hex="02DB"/>
  <outline>
    <contour>
      <point x="148" y="-294" type="curve" smooth="yes"/>
      <point x="234" y="-294"/>
      <point x="271" y="-234"/>
      <point x="278" y="-183" type="curve"/>
      <point x="261" y="-170" type="line"/>
      <point x="242" y="-212"/>
      <point x="206" y="-239"/>
      <point x="169" y="-239" type="curve" smooth="yes"/>
      <point x="121" y="-239"/>
      <point x="90" y="-210"/>
      <point x="90" y="-154" type="curve" smooth="yes"/>
      <point x="90" y="-94"/>
      <point x="138" y="-44"/>
      <point x="195" y="19" type="curve"/>
      <point x="169" y="19" type="line"/>
      <point x="117" y="-42"/>
      <point x="40" y="-117"/>
      <point x="40" y="-192" type="curve" smooth="yes"/>
      <point x="40" y="-250"/>
      <point x="87" y="-294"/>
    </contour>
  </outline>
</glyph>
<glyph name="tilde" format="1">
  <advance width="414"/>
  <unicode hex="02DC"/>
  <outline>
    <contour>
      <point x="283" y="553" type="curve" smooth="yes"/>
      <point x="323" y="553"/>
      <point x="357" y="592"/>
      <point x="364" y="652" type="curve"/>
      <point x="345" y="652" type="line"/>
      <point x="336" y="624"/>
      <point x="318" y="601"/>
      <point x="291" y="601" type="curve" smooth="yes"/>
      <point x="273" y="601"/>
      <point x="250" y="614"/>
      <point x="240" y="620" type="curve" smooth="yes"/>
      <point x="203" y="642" type="line" smooth="yes"/>
      <point x="190" y="650"/>
      <point x="161" y="668"/>
      <point x="136" y="668" type="curve" smooth="yes"/>
      <point x="75" y="668"/>
      <point x="50" y="593"/>
      <point x="50" y="564" type="curve"/>
      <point x="69" y="564" type="line"/>
      <point x="75" y="588"/>
      <point x="99" y="620"/>
      <point x="128" y="620" type="curve" smooth="yes"/>
      <point x="146" y="620"/>
      <point x="165" y="609"/>
      <point x="189" y="594" type="curve" smooth="yes"/>
      <point x="215" y="578" type="line" smooth="yes"/>
      <point x="232" y="568"/>
      <point x="258" y="553"/>
    </contour>
  </outline>
</glyph>
<glyph name="gravecomb" format="1">
  <advance width="211"/>
  <unicode hex="0300"/>
  <outline>
    <component base="grave"/>
    <contour>
      <point x="128" y="436" type="move" name="_top"/>
    </contour>
    <contour>
      <point x="149" y="651" type="move" name="top"/>
    </contour>
  </outline>
</glyph>
<glyph name="acutecomb" format="1">
  <advance width="211"/>
  <unicode hex="0301"/>
  <outline>
    <component base="acute"/>
    <contour>
      <point x="85" y="436" type="move" name="_top"/>
    </contour>
    <contour>
      <point x="75" y="436" type="move" name="_topright"/>
    </contour>
    <contour>
      <point x="66" y="651" type="move" name="top"/>
    </contour>
  </outline>
</glyph>
<glyph name="circumflexcomb" format="1">
  <advance width="310"/>
  <unicode hex="0302"/>
  <outline>
    <component base="circumflex" xOffset="1"/>
    <contour>
      <point x="156" y="436" type="move" name="_top"/>
    </contour>
    <contour>
      <point x="155" y="651" type="move" name="top"/>
    </contour>
  </outline>
</glyph>
<glyph name="tildecomb" format="1">
  <advance width="397"/>
  <unicode hex="0303"/>
  <outline>
    <component base="tilde"/>
    <contour>
      <point x="207" y="436" type="move" name="_top"/>
    </contour>
    <contour>
      <point x="207" y="651" type="move" name="top"/>
    </contour>
  </outline>
</glyph>
<glyph name="brevecomb" format="1">
  <advance width="299"/>
  <unicode hex="0306"/>
  <outline>
    <component base="breve"/>
    <contour>
      <point x="150" y="436" type="move" name="_top"/>
    </contour>
    <contour>
      <point x="150" y="651" type="move" name="top"/>
    </contour>
  </outline>
</glyph>
<glyph name="dotaccentcomb" format="1">
  <advance width="281"/>
  <unicode hex="0307"/>
  <outline>
    <component base="dotaccent" yOffset="21"/>
    <contour>
      <point x="137" y="436" type="move" name="_top"/>
    </contour>
    <contour>
      <point x="134" y="651" type="move" name="top"/>
    </contour>
  </outline>
</glyph>
<glyph name="dieresiscomb" format="1">
  <advance width="442"/>
  <unicode hex="0308"/>
  <outline>
    <component base="dieresis"/>
    <contour>
      <point x="216" y="436" type="move" name="_top"/>
    </contour>
    <contour>
      <point x="210" y="651" type="move" name="top"/>
    </contour>
  </outline>
</glyph>
<glyph name="ringcomb" format="1">
  <advance width="269"/>
  <unicode hex="030A"/>
  <outline>
    <component base="ring" yOffset="20"/>
    <contour>
      <point x="137" y="436" type="move" name="_top"/>
    </contour>
    <contour>
      <point x="135" y="651" type="move" name="top"/>
    </contour>
  </outline>
</glyph>
<glyph name="hungarumlautcomb" format="1">
  <advance width="360"/>
  <unicode hex="030B"/>
  <outline>
    <component base="hungarumlaut" xOffset="10"/>
    <contour>
      <point x="170" y="436" type="move" name="_top"/>
    </contour>
    <contour>
      <point x="204" y="651" type="move" name="top"/>
    </contour>
  </outline>
</glyph>
<glyph name="caroncomb" format="1">
  <advance width="310"/>
  <unicode hex="030C"/>
  <outline>
    <component base="caron"/>
    <contour>
      <point x="154" y="436" type="move" name="_top"/>
    </contour>
    <contour>
      <point x="154" y="651" type="move" name="top"/>
    </contour>
  </outline>
</glyph>
<glyph name="commaturnedabovecomb" format="1">
  <advance width="232"/>
  <unicode hex="0312"/>
  <outline>
    <component base="quoteright" xScale="-0.753" yScale="-0.753" xOffset="184" yOffset="1054"/>
    <contour>
      <point x="105" y="436" type="move" name="_top"/>
    </contour>
    <contour>
      <point x="105" y="651" type="move" name="top"/>
    </contour>
  </outline>
</glyph>
<glyph name="cedillacomb" format="1">
  <advance width="306"/>
  <unicode hex="0327"/>
  <outline>
    <component base="cedilla"/>
    <contour>
      <point x="193" y="0" type="move" name="_bottom"/>
    </contour>
    <contour>
      <point x="153" y="-294" type="move" name="bottom"/>
    </contour>
  </outline>
</glyph>
<glyph name="ogonekcomb" format="1">
  <advance width="298"/>
  <unicode hex="0328"/>
  <outline>
    <contour>
      <point x="172" y="-294" type="curve" smooth="yes"/>
      <point x="261" y="-294"/>
      <point x="313" y="-229"/>
      <point x="320" y="-178" type="curve"/>
      <point x="300" y="-170" type="line"/>
      <point x="281" y="-206"/>
      <point x="251" y="-229"/>
      <point x="208" y="-229" type="curve" smooth="yes"/>
      <point x="164" y="-229"/>
      <point x="129" y="-206"/>
      <point x="129" y="-157" type="curve" smooth="yes"/>
      <point x="129" y="-92"/>
      <point x="177" y="-45"/>
      <point x="245" y="40" type="curve"/>
      <point x="229" y="40" type="line"/>
      <point x="136" y="-40"/>
      <point x="69" y="-117"/>
      <point x="69" y="-187" type="curve" smooth="yes"/>
      <point x="69" y="-251"/>
      <point x="115" y="-294"/>
    </contour>
    <contour>
      <point x="218" y="0" type="move" name="_ogonek"/>
    </contour>
  </outline>
</glyph>
<glyph name="strokelongcomb" format="1">
  <advance width="824"/>
  <unicode hex="0336"/>
  <outline>
    <contour>
      <point x="34" y="522" type="line"/>
      <point x="786" y="522" type="line"/>
      <point x="786" y="551" type="line"/>
      <point x="34" y="551" type="line"/>
    </contour>
    <contour>
      <point x="410" y="537" type="move" name="_center"/>
    </contour>
  </outline>
</glyph>
<glyph name="slashlongcomb" format="1">
  <advance width="794"/>
  <unicode hex="0338"/>
  <outline>
    <contour>
      <point x="50" y="-14" type="line"/>
      <point x="106" y="-14" type="line"/>
      <point x="750" y="726" type="line"/>
      <point x="694" y="726" type="line"/>
    </contour>
    <contour>
      <point x="397" y="356" type="move" name="_center"/>
    </contour>
  </outline>
</glyph>
<glyph name="endash" format="1">
  <advance width="554"/>
  <unicode hex="2013"/>
  <outline>
    <contour>
      <point x="50" y="196" type="line"/>
      <point x="504" y="196" type="line"/>
      <point x="504" y="240" type="line"/>
      <point x="50" y="240" type="line"/>
    </contour>
  </outline>
</glyph>
<glyph name="emdash" format="1">
  <advance width="735"/>
  <unicode hex="2014"/>
  <outline>
    <contour>
      <point x="20" y="204" type="line"/>
      <point x="715" y="204" type="line"/>
      <point x="715" y="240" type="line"/>
      <point x="20" y="240" type="line"/>
    </contour>
  </outline>
</glyph>
<glyph name="quoteright" format="1">
  <advance width="257"/>
  <unicode hex="2019"/>
  <outline>
    <contour>
      <point x="97" y="455" type="line"/>
      <point x="154" y="492"/>
      <point x="197" y="532"/>
      <point x="197" y="613" type="curve" smooth="yes"/>
      <point x="197" y="680"/>
      <point x="165" y="722"/>
      <point x="117" y="722" type="curve" smooth="yes"/>
      <point x="78" y="722"/>
      <point x="52" y="696"/>
      <point x="52" y="657" type="curve" smooth="yes"/>
      <point x="52" y="622"/>
      <point x="76" y="598"/>
      <point x="111" y="598" type="curve" smooth="yes"/>
      <point x="135" y="598"/>
      <point x="158" y="616"/>
      <point x="158" y="635" type="curve" smooth="yes"/>
      <point x="158" y="644"/>
      <point x="154" y="650"/>
      <point x="154" y="654" type="curve" smooth="yes"/>
      <point x="154" y="655"/>
      <point x="154" y="656"/>
      <point x="156" y="657" type="curve" smooth="yes"/>
      <point x="168" y="663"/>
      <point x="175" y="635"/>
      <point x="175" y="611" type="curve" smooth="yes"/>
      <point x="175" y="548"/>
      <point x="132" y="508"/>
      <point x="84" y="476" type="curve"/>
    </contour>
  </outline>
</glyph>
<glyph name="dagger" format="1">
  <advance width="498"/>
  <unicode hex="2020"/>
  <outline>
    <contour>
      <point x="241" y="-280" type="curve"/>
      <point x="264" y="-280" type="line"/>
      <point x="264" y="10"/>
      <point x="278" y="188"/>
      <point x="278" y="286" type="curve" smooth="yes"/>
      <point x="278" y="357"/>
      <point x="265" y="432"/>
      <point x="263" y="470" type="curve"/>
      <point x="322" y="469"/>
      <point x="366" y="441"/>
      <point x="402" y="441" type="curve" smooth="yes"/>
      <point x="432" y="441"/>
      <point x="452" y="455"/>
      <point x="452" y="480" type="curve" smooth="yes"/>
      <point x="452" y="511"/>
      <point x="431" y="520"/>
      <point x="402" y="520" type="curve" smooth="yes"/>
      <point x="366" y="520"/>
      <point x="322" y="490"/>
      <point x="262" y="489" type="curve"/>
      <point x="264" y="565"/>
      <point x="297" y="599"/>
      <point x="297" y="646" type="curve" smooth="yes"/>
      <point x="297" y="685"/>
      <point x="284" y="710"/>
      <point x="249" y="710" type="curve" smooth="yes"/>
      <point x="214" y="710"/>
      <point x="201" y="685"/>
      <point x="201" y="646" type="curve" smooth="yes"/>
      <point x="201" y="599"/>
      <point x="237" y="566"/>
      <point x="239" y="489" type="curve"/>
      <point x="179" y="490"/>
      <point x="135" y="520"/>
      <point x="99" y="520" type="curve" smooth="yes"/>
      <point x="70" y="520"/>
      <point x="49" y="511"/>
      <point x="49" y="480" type="curve" smooth="yes"/>
      <point x="49" y="455"/>
      <point x="69" y="441"/>
      <point x="99" y="441" type="curve" smooth="yes"/>
      <point x="135" y="441"/>
      <point x="179" y="469"/>
      <point x="238" y="470" type="curve"/>
      <point x="236" y="433"/>
      <point x="223" y="361"/>
      <point x="223" y="292" type="curve" smooth="yes"/>
      <point x="223" y="198"/>
      <point x="241" y="18"/>
    </contour>
  </outline>
</glyph>
<glyph name="daggerdbl" format="1">
  <advance width="600"/>
  <unicode hex="2021"/>
  <outline>
    <contour>
      <point x="291" y="254" type="curve"/>
      <point x="314" y="254" type="line"/>
      <point x="314" y="309"/>
      <point x="325" y="375"/>
      <point x="325" y="403" type="curve" smooth="yes"/>
      <point x="325" y="430"/>
      <point x="314" y="459"/>
      <point x="312" y="493" type="curve"/>
      <point x="372" y="492"/>
      <point x="416" y="465"/>
      <point x="450" y="465" type="curve" smooth="yes"/>
      <point x="481" y="465"/>
      <point x="501" y="479"/>
      <point x="501" y="503" type="curve" smooth="yes"/>
      <point x="501" y="533"/>
      <point x="480" y="542"/>
      <point x="450" y="542" type="curve" smooth="yes"/>
      <point x="416" y="542"/>
      <point x="372" y="513"/>
      <point x="312" y="512" type="curve"/>
      <point x="315" y="567"/>
      <point x="344" y="599"/>
      <point x="344" y="649" type="curve" smooth="yes"/>
      <point x="344" y="676"/>
      <point x="339" y="710"/>
      <point x="299" y="710" type="curve" smooth="yes"/>
      <point x="259" y="710"/>
      <point x="254" y="676"/>
      <point x="254" y="649" type="curve" smooth="yes"/>
      <point x="254" y="599"/>
      <point x="285" y="568"/>
      <point x="289" y="512" type="curve"/>
      <point x="229" y="513"/>
      <point x="185" y="542"/>
      <point x="151" y="542" type="curve" smooth="yes"/>
      <point x="121" y="542"/>
      <point x="100" y="533"/>
      <point x="100" y="503" type="curve" smooth="yes"/>
      <point x="100" y="479"/>
      <point x="120" y="465"/>
      <point x="151" y="465" type="curve" smooth="yes"/>
      <point x="185" y="465"/>
      <point x="229" y="492"/>
      <point x="289" y="493" type="curve"/>
      <point x="287" y="458"/>
      <point x="276" y="430"/>
      <point x="276" y="402" type="curve" smooth="yes"/>
      <point x="276" y="376"/>
      <point x="291" y="309"/>
    </contour>
    <contour>
      <point x="299" y="-294" type="curve" smooth="yes"/>
      <point x="339" y="-294"/>
      <point x="344" y="-260"/>
      <point x="344" y="-233" type="curve" smooth="yes"/>
      <point x="344" y="-183"/>
      <point x="315" y="-151"/>
      <point x="312" y="-96" type="curve"/>
      <point x="372" y="-97"/>
      <point x="416" y="-126"/>
      <point x="450" y="-126" type="curve" smooth="yes"/>
      <point x="480" y="-126"/>
      <point x="501" y="-117"/>
      <point x="501" y="-87" type="curve" smooth="yes"/>
      <point x="501" y="-63"/>
      <point x="481" y="-49"/>
      <point x="450" y="-49" type="curve" smooth="yes"/>
      <point x="416" y="-49"/>
      <point x="372" y="-76"/>
      <point x="312" y="-77" type="curve"/>
      <point x="314" y="-43"/>
      <point x="325" y="-14"/>
      <point x="325" y="13" type="curve" smooth="yes"/>
      <point x="325" y="41"/>
      <point x="314" y="107"/>
      <point x="314" y="162" type="curve"/>
      <point x="291" y="162" type="line"/>
      <point x="291" y="107"/>
      <point x="276" y="40"/>
      <point x="276" y="14" type="curve" smooth="yes"/>
      <point x="276" y="-14"/>
      <point x="287" y="-42"/>
      <point x="289" y="-77" type="curve"/>
      <point x="229" y="-76"/>
      <point x="185" y="-49"/>
      <point x="151" y="-49" type="curve" smooth="yes"/>
      <point x="120" y="-49"/>
      <point x="100" y="-63"/>
      <point x="100" y="-87" type="curve" smooth="yes"/>
      <point x="100" y="-117"/>
      <point x="121" y="-126"/>
      <point x="151" y="-126" type="curve" smooth="yes"/>
      <point x="185" y="-126"/>
      <point x="229" y="-97"/>
      <point x="289" y="-96" type="curve"/>
      <point x="285" y="-152"/>
      <point x="254" y="-183"/>
      <point x="254" y="-233" type="curve" smooth="yes"/>
      <point x="254" y="-260"/>
      <point x="259" y="-294"/>
    </contour>
  </outline>
</glyph>
<glyph name="perthousand" format="1">
  <advance width="1041"/>
  <unicode hex="2030"/>
  <outline>
    <contour>
      <point x="853" y="-10" type="curve" smooth="yes"/>
      <point x="940" y="-10"/>
      <point x="996" y="44"/>
      <point x="996" y="129" type="curve" smooth="yes"/>
      <point x="996" y="213"/>
      <point x="940" y="267"/>
      <point x="853" y="267" type="curve" smooth="yes"/>
      <point x="768" y="267"/>
      <point x="712" y="213"/>
      <point x="712" y="129" type="curve" smooth="yes"/>
      <point x="712" y="44"/>
      <point x="768" y="-10"/>
    </contour>
    <contour>
      <point x="853" y="13" type="curve" smooth="yes"/>
      <point x="798" y="13"/>
      <point x="773" y="48"/>
      <point x="773" y="129" type="curve" smooth="yes"/>
      <point x="773" y="209"/>
      <point x="798" y="244"/>
      <point x="853" y="244" type="curve" smooth="yes"/>
      <point x="909" y="244"/>
      <point x="934" y="211"/>
      <point x="934" y="129" type="curve" smooth="yes"/>
      <point x="934" y="48"/>
      <point x="909" y="13"/>
    </contour>
    <component base="percent"/>
    <contour>
      <point x="422" y="356" type="move" name="_center"/>
    </contour>
  </outline>
</glyph>
<glyph name="guilsinglleft" format="1">
  <advance width="263"/>
  <unicode hex="2039"/>
  <outline>
    <contour>
      <point x="188" y="37" type="curve"/>
      <point x="198" y="67" type="line"/>
      <point x="130" y="86"/>
      <point x="105" y="147"/>
      <point x="105" y="218" type="curve" smooth="yes"/>
      <point x="105" y="289"/>
      <point x="130" y="350"/>
      <point x="198" y="369" type="curve"/>
      <point x="188" y="399" type="line"/>
      <point x="99" y="378"/>
      <point x="50" y="307"/>
      <point x="50" y="218" type="curve" smooth="yes"/>
      <point x="50" y="130"/>
      <point x="99" y="58"/>
    </contour>
  </outline>
</glyph>
<glyph name="fraction" format="1">
  <advance width="291"/>
  <unicode hex="2044"/>
  <outline>
    <contour>
      <point x="-110" y="0" type="line"/>
      <point x="-57" y="0" type="line"/>
      <point x="434" y="722" type="line"/>
      <point x="381" y="722" type="line"/>
    </contour>
  </outline>
</glyph>
<glyph name="euro" format="1">
  <advance width="813"/>
  <unicode hex="20AC"/>
  <outline>
    <contour>
      <point x="483" y="-11" type="curve" smooth="yes"/>
      <point x="675" y="-11"/>
      <point x="721" y="131"/>
      <point x="743" y="216" type="curve"/>
      <point x="712" y="222" type="line"/>
      <point x="693" y="152"/>
      <point x="644" y="19"/>
      <point x="499" y="19" type="curve" smooth="yes"/>
      <point x="333" y="19"/>
      <point x="273" y="167"/>
      <point x="273" y="355" type="curve"/>
      <point x="284" y="583"/>
      <point x="347" y="694"/>
      <point x="495" y="694" type="curve" smooth="yes"/>
      <point x="598" y="694"/>
      <point x="687" y="610"/>
      <point x="705" y="476" type="curve"/>
      <point x="730" y="476" type="line"/>
      <point x="727" y="593" type="line"/>
      <point x="729" y="710" type="line"/>
      <point x="704" y="710" type="line"/>
      <point x="701" y="682"/>
      <point x="688" y="672"/>
      <point x="674" y="672" type="curve" smooth="yes"/>
      <point x="655" y="672"/>
      <point x="595" y="724"/>
      <point x="489" y="724" type="curve" smooth="yes"/>
      <point x="303" y="724"/>
      <point x="171" y="556"/>
      <point x="171" y="355" type="curve" smooth="yes"/>
      <point x="171" y="150"/>
      <point x="279" y="-11"/>
    </contour>
    <contour>
      <point x="82" y="259" type="line"/>
      <point x="187" y="259" type="line"/>
      <point x="183" y="291" type="line"/>
      <point x="102" y="291" type="line"/>
    </contour>
    <contour>
      <point x="62" y="377" type="line"/>
      <point x="180" y="377" type="line"/>
      <point x="182" y="409" type="line"/>
      <point x="82" y="409" type="line"/>
    </contour>
    <contour>
      <point x="271" y="259" type="line"/>
      <point x="575" y="259" type="line"/>
      <point x="589" y="291" type="line"/>
      <point x="267" y="291" type="line"/>
    </contour>
    <contour>
      <point x="265" y="377" type="line"/>
      <point x="615" y="377" type="line"/>
      <point x="629" y="409" type="line"/>
      <point x="267" y="409" type="line"/>
    </contour>
    <contour>
      <point x="470" y="0" type="move" name="bottom"/>
    </contour>
    <contour>
      <point x="483" y="710" type="move" name="top"/>
    </contour>
  </outline>
</glyph>
<glyph name="trademark" format="1">
  <advance width="1020"/>
  <unicode hex="2122"/>
  <outline>
    <contour>
      <point x="471" y="346" type="line"/>
      <point x="537" y="348" type="line"/>
      <point x="604" y="346" type="line"/>
      <point x="604" y="369" type="line"/>
      <point x="593" y="370" type="line" smooth="yes"/>
      <point x="559" y="373"/>
      <point x="551" y="375"/>
      <point x="551" y="416" type="curve" smooth="yes"/>
      <point x="551" y="707" type="line"/>
      <point x="530" y="706" type="line"/>
      <point x="687" y="348" type="line"/>
      <point x="698" y="348" type="line"/>
      <point x="874" y="707" type="line"/>
      <point x="851" y="706" type="line"/>
      <point x="851" y="416" type="line" smooth="yes"/>
      <point x="851" y="375"/>
      <point x="842" y="373"/>
      <point x="804" y="370" type="curve" smooth="yes"/>
      <point x="793" y="369" type="line"/>
      <point x="793" y="346" type="line"/>
      <point x="875" y="348" type="line"/>
      <point x="970" y="346" type="line"/>
      <point x="970" y="369" type="line"/>
      <point x="959" y="370" type="line" smooth="yes"/>
      <point x="921" y="373"/>
      <point x="912" y="375"/>
      <point x="912" y="416" type="curve" smooth="yes"/>
      <point x="912" y="642" type="line" smooth="yes"/>
      <point x="912" y="693"/>
      <point x="921" y="695"/>
      <point x="959" y="698" type="curve" smooth="yes"/>
      <point x="970" y="699" type="line"/>
      <point x="970" y="712" type="line"/>
      <point x="879" y="710" type="line"/>
      <point x="846" y="710" type="line"/>
      <point x="697" y="405" type="line"/>
      <point x="719" y="427" type="line"/>
      <point x="592" y="710" type="line"/>
      <point x="550" y="710" type="line"/>
      <point x="471" y="712" type="line"/>
      <point x="471" y="699" type="line"/>
      <point x="482" y="698" type="line" smooth="yes"/>
      <point x="516" y="695"/>
      <point x="525" y="693"/>
      <point x="525" y="642" type="curve" smooth="yes"/>
      <point x="525" y="416" type="line" smooth="yes"/>
      <point x="525" y="375"/>
      <point x="516" y="373"/>
      <point x="482" y="370" type="curve" smooth="yes"/>
      <point x="471" y="369" type="line"/>
    </contour>
    <contour>
      <point x="153" y="346" type="line"/>
      <point x="254" y="348" type="line"/>
      <point x="351" y="346" type="line"/>
      <point x="351" y="369" type="line"/>
      <point x="339" y="370" type="line" smooth="yes"/>
      <point x="295" y="374"/>
      <point x="284" y="375"/>
      <point x="284" y="416" type="curve" smooth="yes"/>
      <point x="284" y="689" type="line"/>
      <point x="221" y="689" type="line"/>
      <point x="221" y="416" type="line" smooth="yes"/>
      <point x="221" y="375"/>
      <point x="210" y="374"/>
      <point x="165" y="370" type="curve" smooth="yes"/>
      <point x="153" y="369" type="line"/>
    </contour>
    <contour>
      <point x="443" y="605" type="curve"/>
      <point x="456" y="608" type="line"/>
      <point x="442" y="671" type="line"/>
      <point x="436" y="712" type="line"/>
      <point x="278" y="710" type="line"/>
      <point x="226" y="710" type="line"/>
      <point x="69" y="712" type="line"/>
      <point x="63" y="671" type="line"/>
      <point x="50" y="608" type="line"/>
      <point x="61" y="606" type="line"/>
      <point x="93" y="665"/>
      <point x="101" y="687"/>
      <point x="151" y="687" type="curve" smooth="yes"/>
      <point x="357" y="687" type="line" smooth="yes"/>
      <point x="404" y="687"/>
      <point x="418" y="658"/>
    </contour>
  </outline>
</glyph>
<glyph name="minus" format="1">
  <advance width="598"/>
  <unicode hex="2212"/>
  <outline>
    <contour>
      <point x="108" y="298" type="line"/>
      <point x="544" y="298" type="line"/>
      <point x="544" y="338" type="line"/>
      <point x="108" y="338" type="line"/>
    </contour>
  </outline>
</glyph>
<glyph name="infinity" format="1">
  <advance width="787"/>
  <unicode hex="221E"/>
  <outline>
    <contour>
      <point x="216" y="166" type="curve" smooth="yes"/>
      <point x="287" y="166"/>
      <point x="349" y="198"/>
      <point x="396" y="278" type="curve" smooth="yes"/>
      <point x="404" y="291" type="line"/>
      <point x="440" y="218"/>
      <point x="483" y="168"/>
      <point x="580" y="168" type="curve" smooth="yes"/>
      <point x="663" y="168"/>
      <point x="742" y="247"/>
      <point x="742" y="358" type="curve" smooth="yes"/>
      <point x="742" y="458"/>
      <point x="686" y="547"/>
      <point x="572" y="547" type="curve" smooth="yes"/>
      <point x="499" y="547"/>
      <point x="444" y="510"/>
      <point x="404" y="446" type="curve" smooth="yes"/>
      <point x="382" y="411" type="line"/>
      <point x="357" y="477"/>
      <point x="300" y="547"/>
      <point x="210" y="547" type="curve" smooth="yes"/>
      <point x="123" y="547"/>
      <point x="45" y="475"/>
      <point x="45" y="358" type="curve" smooth="yes"/>
      <point x="45" y="253"/>
      <point x="111" y="166"/>
    </contour>
    <contour>
      <point x="198" y="225" type="curve" smooth="yes"/>
      <point x="140" y="225"/>
      <point x="71" y="268"/>
      <point x="71" y="356" type="curve" smooth="yes"/>
      <point x="71" y="442"/>
      <point x="140" y="487"/>
      <point x="206" y="487" type="curve" smooth="yes"/>
      <point x="273" y="487"/>
      <point x="328" y="450"/>
      <point x="361" y="378" type="curve"/>
      <point x="331" y="329" type="line" smooth="yes"/>
      <point x="302" y="283"/>
      <point x="261" y="225"/>
    </contour>
    <contour>
      <point x="585" y="225" type="curve" smooth="yes"/>
      <point x="506" y="225"/>
      <point x="465" y="254"/>
      <point x="424" y="324" type="curve"/>
      <point x="445" y="358" type="line" smooth="yes"/>
      <point x="475" y="408"/>
      <point x="516" y="487"/>
      <point x="596" y="487" type="curve" smooth="yes"/>
      <point x="668" y="487"/>
      <point x="716" y="433"/>
      <point x="716" y="358" type="curve" smooth="yes"/>
      <point x="716" y="276"/>
      <point x="651" y="225"/>
    </contour>
  </outline>
</glyph>
<glyph name="whiteDiamond" format="1">
  <advance width="539"/>
  <unicode hex="25C7"/>
  <outline>
    <contour>
      <point x="267" y="145" type="line"/>
      <point x="459" y="352" type="line"/>
      <point x="267" y="559" type="line"/>
      <point x="80" y="352" type="line"/>
    </contour>
    <contour>
      <point x="243" y="178" type="line"/>
      <point x="290" y="178" type="line"/>
      <point x="111" y="378" type="line"/>
      <point x="113" y="322" type="line"/>
      <point x="291" y="526" type="line"/>
      <point x="243" y="526" type="line"/>
      <point x="429" y="326" type="line"/>
      <point x="430" y="378" type="line"/>
    </contour>
  </outline>
</glyph>
<glyph name="fl" format="1">
  <advance width="568"/>
  <unicode hex="FB02"/>
  <outline>
    <contour>
      <point x="324" y="-3" type="line"/>
      <point x="435" y="0" type="line"/>
      <point x="558" y="-3" type="line"/>
      <point x="558" y="20" type="line"/>
      <point x="542" y="22" type="line" smooth="yes"/>
      <point x="484" y="29"/>
      <point x="470" y="31"/>
      <point x="470" y="121" type="curve" smooth="yes"/>
      <point x="470" y="140" type="line"/>
      <point x="400" y="140" type="line"/>
      <point x="400" y="121" type="line" smooth="yes"/>
      <point x="400" y="31"/>
      <point x="386" y="29"/>
      <point x="340" y="22" type="curve" smooth="yes"/>
      <point x="324" y="20" type="line"/>
    </contour>
    <component base="_part.fl" xOffset="-12"/>
  </outline>
</glyph>
<glyph name="Fhook.sc" format="1">
  <advance width="452"/>
  <outline>
    <contour>
      <point x="50" y="-294" type="curve" smooth="yes"/>
      <point x="129" y="-294"/>
      <point x="187" y="-237"/>
      <point x="187" y="-152" type="curve" smooth="yes"/>
      <point x="187" y="223" type="line"/>
      <point x="262" y="223" type="line" smooth="yes"/>
      <point x="291" y="223"/>
      <point x="308" y="199"/>
      <point x="308" y="134" type="curve"/>
      <point x="329" y="134" type="line"/>
      <point x="326" y="236" type="line"/>
      <point x="329" y="326" type="line"/>
      <point x="308" y="326" type="line"/>
      <point x="305" y="263"/>
      <point x="289" y="247"/>
      <point x="265" y="247" type="curve" smooth="yes"/>
      <point x="187" y="247" type="line"/>
      <point x="187" y="430" type="line"/>
      <point x="275" y="430" type="line" smooth="yes"/>
      <point x="366" y="430"/>
      <point x="377" y="404"/>
      <point x="397" y="343" type="curve"/>
      <point x="418" y="343" type="line"/>
      <point x="411" y="455" type="line"/>
      <point x="147" y="455" type="line"/>
      <point x="30" y="458" type="line"/>
      <point x="30" y="435" type="line"/>
      <point x="46" y="433" type="line" smooth="yes"/>
      <point x="104" y="426"/>
      <point x="117" y="424"/>
      <point x="117" y="334" type="curve" smooth="yes"/>
      <point x="117" y="-152" type="line" smooth="yes"/>
      <point x="117" y="-205"/>
      <point x="112" y="-273"/>
      <point x="67" y="-273" type="curve" smooth="yes"/>
      <point x="52" y="-273"/>
      <point x="39" y="-264"/>
      <point x="39" y="-246" type="curve" smooth="yes"/>
      <point x="39" y="-240"/>
      <point x="40" y="-235"/>
      <point x="43" y="-226" type="curve" smooth="yes"/>
      <point x="45" y="-220"/>
      <point x="47" y="-213"/>
      <point x="47" y="-207" type="curve" smooth="yes"/>
      <point x="47" y="-189"/>
      <point x="34" y="-167"/>
      <point x="4" y="-167" type="curve" smooth="yes"/>
      <point x="-31" y="-167"/>
      <point x="-49" y="-193"/>
      <point x="-49" y="-223" type="curve" smooth="yes"/>
      <point x="-49" y="-266"/>
      <point x="-13" y="-294"/>
    </contour>
    <contour>
      <point x="225" y="0" type="move" name="bottom"/>
    </contour>
    <contour>
      <point x="337" y="710" type="move" name="top"/>
    </contour>
  </outline>
</glyph>
<glyph name="_corner.bdc" format="1">
  <advance width="600"/>
  <outline>
    <contour>
      <point x="-35" y="0" type="move"/>
      <point x="88" y="-3" type="line"/>
      <point x="88" y="20" type="line"/>
      <point x="72" y="22" type="line" smooth="yes"/>
      <point x="14" y="29"/>
      <point x="0" y="31"/>
      <point x="0" y="121" type="curve"/>
    </contour>
  </outline>
</glyph>
<glyph name="_corner.cap" format="1">
  <advance width="600"/>
  <outline>
    <contour>
      <point x="-19" y="0" type="move"/>
      <point x="136" y="-3" type="line"/>
      <point x="136" y="17" type="line"/>
      <point x="64" y="24" type="line" smooth="yes"/>
      <point x="14" y="29"/>
      <point x="0" y="48"/>
      <point x="0" y="199" type="curve"/>
    </contour>
  </outline>
</glyph>
<glyph name=".notdef" format="1">
  <advance width="870"/>
  <outline>
    <contour>
      <point x="80" y="0" type="line"/>
      <point x="790" y="0" type="line"/>
      <point x="790" y="710" type="line"/>
      <point x="80" y="710" type="line"/>
    </contour>
    <contour>
      <point x="154" y="45" type="line"/>
      <point x="435" y="325" type="line"/>
      <point x="715" y="45" type="line"/>
    </contour>
    <contour>
      <point x="125" y="80" type="line"/>
      <point x="125" y="634" type="line"/>
      <point x="402" y="357" type="line"/>
    </contour>
    <contour>
      <point x="435" y="389" type="line"/>
      <point x="158" y="665" type="line"/>
      <point x="711" y="665" type="line"/>
    </contour>
    <contour>
      <point x="745" y="79" type="line"/>
      <point x="467" y="357" type="line"/>
      <point x="745" y="635" type="line"/>
    </contour>
  </outline>
</glyph>
<glyph name="_part.bdc" format="1">
  <advance width="600"/>
  <outline>
    <contour>
      <point x="118" y="332" type="curve"/>
      <point x="188" y="347" type="line"/>
      <point x="188" y="448" type="line"/>
      <point x="133" y="438"/>
      <point x="85" y="436"/>
      <point x="30" y="436" type="curve"/>
      <point x="30" y="413" type="line"/>
      <point x="84" y="413"/>
      <point x="118" y="404"/>
    </contour>
  </outline>
</glyph>
<glyph name="_part.curve-cap-left" format="1">
  <advance width="800"/>
  <outline>
    <contour>
      <point x="420" y="-11" type="curve"/>
      <point x="420" y="14" type="line"/>
      <point x="242" y="14"/>
      <point x="179" y="189"/>
      <point x="179" y="353" type="curve" smooth="yes"/>
      <point x="179" y="517"/>
      <point x="242" y="696"/>
      <point x="420" y="696" type="curve"/>
      <point x="420" y="721" type="line"/>
      <point x="203" y="721"/>
      <point x="69" y="555"/>
      <point x="69" y="353" type="curve" smooth="yes"/>
      <point x="69" y="151"/>
      <point x="203" y="-11"/>
    </contour>
  </outline>
</glyph>
<glyph name="_part.f" format="1">
  <advance width="533"/>
  <outline>
    <contour>
      <point x="53" y="-3" type="line"/>
      <point x="176" y="0" type="line"/>
      <point x="290" y="-3" type="line"/>
      <point x="290" y="20" type="line"/>
      <point x="274" y="22" type="line" smooth="yes"/>
      <point x="222" y="28"/>
      <point x="211" y="31"/>
      <point x="211" y="121" type="curve" smooth="yes"/>
      <point x="211" y="411" type="line"/>
      <point x="366" y="411" type="line"/>
      <point x="366" y="436" type="line"/>
      <point x="211" y="436" type="line"/>
      <point x="211" y="470" type="line" smooth="yes"/>
      <point x="211" y="595"/>
      <point x="240" y="669"/>
      <point x="335" y="669" type="curve" smooth="yes"/>
      <point x="421" y="669"/>
      <point x="446" y="590"/>
      <point x="454" y="527" type="curve"/>
      <point x="486" y="635" type="line"/>
      <point x="459" y="680"/>
      <point x="384" y="693"/>
      <point x="343" y="693" type="curve" smooth="yes"/>
      <point x="207" y="693"/>
      <point x="141" y="610"/>
      <point x="141" y="452" type="curve" smooth="yes"/>
      <point x="141" y="436" type="line"/>
      <point x="45" y="436" type="line"/>
      <point x="45" y="411" type="line"/>
      <point x="141" y="411" type="line"/>
      <point x="141" y="121" type="line" smooth="yes"/>
      <point x="141" y="31"/>
      <point x="127" y="29"/>
      <point x="69" y="22" type="curve" smooth="yes"/>
      <point x="53" y="20" type="line"/>
    </contour>
  </outline>
</glyph>
<glyph name="_part.fi" format="1">
  <advance width="604"/>
  <outline>
    <contour>
      <point x="53" y="-3" type="line"/>
      <point x="176" y="0" type="line"/>
      <point x="285" y="-3" type="line"/>
      <point x="285" y="20" type="line"/>
      <point x="269" y="22" type="line" smooth="yes"/>
      <point x="222" y="29"/>
      <point x="211" y="31"/>
      <point x="211" y="121" type="curve" smooth="yes"/>
      <point x="211" y="411" type="line"/>
      <point x="368" y="411" type="line"/>
      <point x="368" y="436" type="line"/>
      <point x="211" y="436" type="line"/>
      <point x="211" y="499" type="line" smooth="yes"/>
      <point x="211" y="599"/>
      <point x="225" y="699"/>
      <point x="331" y="699" type="curve" smooth="yes"/>
      <point x="379" y="699"/>
      <point x="416" y="666"/>
      <point x="416" y="636" type="curve" smooth="yes"/>
      <point x="416" y="617"/>
      <point x="397" y="615"/>
      <point x="397" y="591" type="curve" smooth="yes"/>
      <point x="397" y="567"/>
      <point x="417" y="551"/>
      <point x="441" y="551" type="curve" smooth="yes"/>
      <point x="471" y="551"/>
      <point x="490" y="573"/>
      <point x="490" y="607" type="curve" smooth="yes"/>
      <point x="490" y="687"/>
      <point x="405" y="724"/>
      <point x="331" y="724" type="curve" smooth="yes"/>
      <point x="179" y="724"/>
      <point x="141" y="617"/>
      <point x="141" y="504" type="curve" smooth="yes"/>
      <point x="141" y="436" type="line"/>
      <point x="45" y="436" type="line"/>
      <point x="45" y="411" type="line"/>
      <point x="141" y="411" type="line"/>
      <point x="141" y="121" type="line" smooth="yes"/>
      <point x="141" y="31"/>
      <point x="127" y="29"/>
      <point x="69" y="22" type="curve" smooth="yes"/>
      <point x="53" y="20" type="line"/>
    </contour>
  </outline>
</glyph>
<glyph name="_part.fl" format="1">
  <advance width="585"/>
  <outline>
    <contour>
      <point x="37" y="-3" type="line"/>
      <point x="160" y="0" type="line"/>
      <point x="277" y="-3" type="line"/>
      <point x="277" y="20" type="line"/>
      <point x="261" y="22" type="line" smooth="yes"/>
      <point x="210" y="28"/>
      <point x="195" y="31"/>
      <point x="195" y="121" type="curve" smooth="yes"/>
      <point x="195" y="411" type="line"/>
      <point x="287" y="411" type="line"/>
      <point x="287" y="436" type="line"/>
      <point x="195" y="436" type="line"/>
      <point x="195" y="485" type="line" smooth="yes"/>
      <point x="195" y="611"/>
      <point x="215" y="699"/>
      <point x="319" y="699" type="curve" smooth="yes"/>
      <point x="363" y="699"/>
      <point x="412" y="677"/>
      <point x="412" y="594" type="curve" smooth="yes"/>
      <point x="412" y="140" type="line"/>
      <point x="482" y="140" type="line"/>
      <point x="482" y="725" type="line"/>
      <point x="418" y="694" type="line"/>
      <point x="396" y="712"/>
      <point x="359" y="724"/>
      <point x="320" y="724" type="curve" smooth="yes"/>
      <point x="169" y="724"/>
      <point x="125" y="611"/>
      <point x="125" y="485" type="curve" smooth="yes"/>
      <point x="125" y="436" type="line"/>
      <point x="39" y="436" type="line"/>
      <point x="39" y="411" type="line"/>
      <point x="125" y="411" type="line"/>
      <point x="125" y="121" type="line" smooth="yes"/>
      <point x="125" y="31"/>
      <point x="111" y="29"/>
      <point x="53" y="22" type="curve" smooth="yes"/>
      <point x="37" y="20" type="line"/>
    </contour>
  </outline>
</glyph>
<glyph name="_part" format="1">
  <advance width="600"/>
  <outline>
    <contour>
      <point x="118" y="329" type="curve"/>
      <point x="188" y="344" type="line"/>
      <point x="188" y="445" type="line"/>
      <point x="133" y="435"/>
      <point x="85" y="430"/>
      <point x="30" y="430" type="curve"/>
      <point x="30" y="407" type="line"/>
      <point x="84" y="407"/>
      <point x="118" y="401"/>
    </contour>
  </outline>
</glyph>
<glyph name="_part.jambage" format="1">
  <advance width="600"/>
  <outline>
    <contour>
      <point x="337" y="-3" type="line"/>
      <point x="460" y="0" type="line"/>
      <point x="583" y="-3" type="line"/>
      <point x="583" y="20" type="line"/>
      <point x="567" y="22" type="line" smooth="yes"/>
      <point x="509" y="29"/>
      <point x="495" y="31"/>
      <point x="495" y="121" type="curve" smooth="yes"/>
      <point x="495" y="321" type="line" smooth="yes"/>
      <point x="495" y="406"/>
      <point x="439" y="454"/>
      <point x="348" y="454" type="curve" smooth="yes"/>
      <point x="244" y="454"/>
      <point x="173" y="373"/>
      <point x="162" y="315" type="curve"/>
      <point x="183" y="315" type="line"/>
      <point x="198" y="360"/>
      <point x="250" y="424"/>
      <point x="326" y="424" type="curve" smooth="yes"/>
      <point x="389" y="424"/>
      <point x="425" y="388"/>
      <point x="425" y="321" type="curve" smooth="yes"/>
      <point x="425" y="121" type="line" smooth="yes"/>
      <point x="425" y="31"/>
      <point x="411" y="29"/>
      <point x="353" y="22" type="curve" smooth="yes"/>
      <point x="337" y="20" type="line"/>
    </contour>
  </outline>
</glyph>
<glyph name="_part.n" format="1">
  <advance width="603"/>
  <outline>
    <contour>
      <point x="405" y="0" type="line"/>
      <point x="475" y="0" type="line"/>
      <point x="475" y="331" type="line" smooth="yes"/>
      <point x="475" y="402"/>
      <point x="435" y="450"/>
      <point x="333" y="450" type="curve" smooth="yes"/>
      <point x="193" y="450"/>
      <point x="153" y="314"/>
      <point x="152" y="301" type="curve"/>
      <point x="162" y="252" type="line"/>
      <point x="164" y="295"/>
      <point x="204" y="418"/>
      <point x="323" y="420" type="curve" smooth="yes"/>
      <point x="381" y="421"/>
      <point x="405" y="384"/>
      <point x="405" y="326" type="curve" smooth="yes"/>
    </contour>
  </outline>
</glyph>
<glyph name="_part.o" format="1">
  <advance width="600"/>
  <outline>
    <contour>
      <point x="50" y="224" type="curve"/>
      <point x="140" y="224" type="line"/>
      <point x="140" y="364"/>
      <point x="181" y="424"/>
      <point x="269" y="424" type="curve"/>
      <point x="269" y="450" type="line"/>
      <point x="141" y="450"/>
      <point x="50" y="354"/>
    </contour>
  </outline>
</glyph>
<glyph name="_partG" format="1">
  <advance width="576"/>
  <outline>
    <contour>
      <point x="116" y="254" type="curve"/>
      <point x="191" y="254" type="line"/>
      <point x="191" y="466"/>
      <point x="271" y="667"/>
      <point x="396" y="746" type="curve"/>
      <point x="381" y="769" type="line"/>
      <point x="245" y="688"/>
      <point x="116" y="526"/>
    </contour>
  </outline>
</glyph>
<glyph name="a.sc" format="1">
  <advance width="514"/>
  <outline>
    <contour>
      <point x="0" y="-3" type="line"/>
      <point x="73" y="0" type="line"/>
      <point x="148" y="-3" type="line"/>
      <point x="148" y="18" type="line"/>
      <point x="122" y="21" type="line" smooth="yes"/>
      <point x="108" y="23"/>
      <point x="100" y="27"/>
      <point x="100" y="41" type="curve" smooth="yes"/>
      <point x="100" y="52"/>
      <point x="106" y="68"/>
      <point x="116" y="94" type="curve" smooth="yes"/>
      <point x="231" y="379" type="line"/>
      <point x="348" y="78" type="line" smooth="yes"/>
      <point x="352" y="67"/>
      <point x="354" y="58"/>
      <point x="354" y="51" type="curve" smooth="yes"/>
      <point x="354" y="34"/>
      <point x="343" y="27"/>
      <point x="331" y="25" type="curve" smooth="yes"/>
      <point x="293" y="18" type="line"/>
      <point x="293" y="-3" type="line"/>
      <point x="410" y="0" type="line"/>
      <point x="514" y="-3" type="line"/>
      <point x="514" y="18" type="line"/>
      <point x="484" y="25" type="line" smooth="yes"/>
      <point x="451" y="33"/>
      <point x="439" y="60"/>
      <point x="415" y="118" type="curve" smooth="yes"/>
      <point x="275" y="455" type="line"/>
      <point x="237" y="455" type="line"/>
      <point x="86" y="92" type="line" smooth="yes"/>
      <point x="63" y="37"/>
      <point x="50" y="29"/>
      <point x="14" y="21" type="curve" smooth="yes"/>
      <point x="0" y="18" type="line"/>
    </contour>
    <contour>
      <point x="132" y="154" type="line"/>
      <point x="325" y="154" type="line"/>
      <point x="316" y="179" type="line"/>
      <point x="143" y="179" type="line"/>
    </contour>
    <contour>
      <point x="217" y="0" type="move" name="bottom"/>
    </contour>
    <contour>
      <point x="463" y="10" type="move" name="ogonek"/>
    </contour>
    <contour>
      <point x="257" y="455" type="move" name="top"/>
    </contour>
  </outline>
</glyph>
<glyph name="a.sups" format="1">
  <advance width="398"/>
  <outline>
    <contour>
      <point x="136" y="288" type="curve" smooth="yes"/>
      <point x="187" y="288"/>
      <point x="243" y="319"/>
      <point x="266" y="361" type="curve"/>
      <point x="267" y="317"/>
      <point x="283" y="288"/>
      <point x="338" y="288" type="curve" smooth="yes"/>
      <point x="380" y="288"/>
      <point x="401" y="307"/>
      <point x="413" y="332" type="curve"/>
      <point x="395" y="342" type="line"/>
      <point x="387" y="329"/>
      <point x="378" y="316"/>
      <point x="363" y="316" type="curve" smooth="yes"/>
      <point x="330" y="316"/>
      <point x="331" y="362"/>
      <point x="331" y="389" type="curve" smooth="yes"/>
      <point x="331" y="508" type="line" smooth="yes"/>
      <point x="331" y="521"/>
      <point x="332" y="533"/>
      <point x="332" y="543" type="curve" smooth="yes"/>
      <point x="332" y="611"/>
      <point x="310" y="651"/>
      <point x="195" y="651" type="curve" smooth="yes"/>
      <point x="134" y="651"/>
      <point x="53" y="627"/>
      <point x="53" y="567" type="curve" smooth="yes"/>
      <point x="53" y="549"/>
      <point x="70" y="535"/>
      <point x="90" y="535" type="curve" smooth="yes"/>
      <point x="111" y="535"/>
      <point x="126" y="554"/>
      <point x="126" y="573" type="curve" smooth="yes"/>
      <point x="126" y="594"/>
      <point x="116" y="597"/>
      <point x="120" y="608" type="curve"/>
      <point x="123" y="619"/>
      <point x="155" y="628"/>
      <point x="197" y="628" type="curve" smooth="yes"/>
      <point x="262" y="628"/>
      <point x="266" y="582"/>
      <point x="266" y="536" type="curve" smooth="yes"/>
      <point x="266" y="522" type="line"/>
      <point x="193" y="496"/>
      <point x="35" y="437"/>
      <point x="35" y="362" type="curve" smooth="yes"/>
      <point x="35" y="311"/>
      <point x="77" y="288"/>
    </contour>
    <contour>
      <point x="161" y="320" type="curve" smooth="yes"/>
      <point x="131" y="320"/>
      <point x="108" y="337"/>
      <point x="108" y="365" type="curve" smooth="yes"/>
      <point x="108" y="427"/>
      <point x="196" y="473"/>
      <point x="266" y="501" type="curve"/>
      <point x="266" y="395" type="line"/>
      <point x="250" y="357"/>
      <point x="200" y="320"/>
    </contour>
    <contour>
      <point x="136" y="297" type="move" name="bottom"/>
    </contour>
  </outline>
</glyph>
<glyph name="acutecomb.sc" format="1">
  <advance width="207"/>
  <outline>
    <contour>
      <point x="50" y="760" type="line"/>
      <point x="62" y="760" type="line"/>
      <point x="157" y="940" type="line"/>
      <point x="76" y="940" type="line"/>
    </contour>
    <contour>
      <point x="63" y="710" type="move" name="_top"/>
    </contour>
    <contour>
      <point x="114" y="908" type="move" name="top"/>
    </contour>
  </outline>
</glyph>
<glyph name="ae.sc" format="1">
  <advance width="690"/>
  <outline>
    <contour>
      <point x="-34" y="-3" type="line"/>
      <point x="39" y="0" type="line"/>
      <point x="117" y="-3" type="line"/>
      <point x="117" y="20" type="line"/>
      <point x="91" y="23" type="line" smooth="yes"/>
      <point x="80" y="24"/>
      <point x="72" y="27"/>
      <point x="72" y="35" type="curve" smooth="yes"/>
      <point x="72" y="44"/>
      <point x="82" y="61"/>
      <point x="106" y="94" type="curve" smooth="yes"/>
      <point x="341" y="426" type="line"/>
      <point x="323" y="431" type="line"/>
      <point x="323" y="121" type="line" smooth="yes"/>
      <point x="323" y="31"/>
      <point x="308" y="29"/>
      <point x="250" y="22" type="curve" smooth="yes"/>
      <point x="234" y="20" type="line"/>
      <point x="234" y="-3" type="line"/>
      <point x="357" y="0" type="line"/>
      <point x="643" y="0" type="line"/>
      <point x="650" y="144" type="line"/>
      <point x="629" y="144" type="line"/>
      <point x="611" y="65"/>
      <point x="602" y="27"/>
      <point x="524" y="27" type="curve" smooth="yes"/>
      <point x="458" y="27" type="line" smooth="yes"/>
      <point x="406" y="27"/>
      <point x="392" y="45"/>
      <point x="392" y="78" type="curve" smooth="yes"/>
      <point x="392" y="429" type="line"/>
      <point x="485" y="429" type="line" smooth="yes"/>
      <point x="577" y="429"/>
      <point x="589" y="404"/>
      <point x="609" y="343" type="curve"/>
      <point x="628" y="343" type="line"/>
      <point x="621" y="455" type="line"/>
      <point x="358" y="455" type="line"/>
      <point x="243" y="458" type="line"/>
      <point x="243" y="435" type="line"/>
      <point x="263" y="433" type="line" smooth="yes"/>
      <point x="276" y="432"/>
      <point x="296" y="430"/>
      <point x="296" y="414" type="curve" smooth="yes"/>
      <point x="296" y="407"/>
      <point x="293" y="398"/>
      <point x="283" y="384" type="curve" smooth="yes"/>
      <point x="74" y="92" type="line" smooth="yes"/>
      <point x="32" y="34"/>
      <point x="17" y="31"/>
      <point x="-20" y="23" type="curve" smooth="yes"/>
      <point x="-34" y="20" type="line"/>
    </contour>
    <contour>
      <point x="141" y="154" type="line"/>
      <point x="328" y="154" type="line"/>
      <point x="328" y="179" type="line"/>
      <point x="158" y="179" type="line"/>
    </contour>
    <contour>
      <point x="518" y="134" type="curve"/>
      <point x="540" y="134" type="line"/>
      <point x="538" y="237" type="line"/>
      <point x="540" y="326" type="line"/>
      <point x="518" y="326" type="line"/>
      <point x="515" y="263"/>
      <point x="498" y="247"/>
      <point x="475" y="247" type="curve" smooth="yes"/>
      <point x="386" y="247" type="line"/>
      <point x="386" y="223" type="line"/>
      <point x="472" y="223" type="line" smooth="yes"/>
      <point x="501" y="223"/>
      <point x="518" y="199"/>
    </contour>
    <contour>
      <point x="437" y="0" type="move" name="bottom"/>
    </contour>
    <contour>
      <point x="623" y="10" type="move" name="ogonek"/>
    </contour>
  </outline>
</glyph>
<glyph name="b.sc" format="1">
  <advance width="511"/>
  <outline>
    <contour>
      <point x="29" y="-3" type="line"/>
      <point x="152" y="0" type="line"/>
      <point x="323" y="0" type="line" smooth="yes"/>
      <point x="372" y="0"/>
      <point x="474" y="30"/>
      <point x="474" y="131" type="curve" smooth="yes"/>
      <point x="474" y="213"/>
      <point x="404" y="239"/>
      <point x="334" y="247" type="curve"/>
      <point x="387" y="258"/>
      <point x="445" y="288"/>
      <point x="445" y="355" type="curve" smooth="yes"/>
      <point x="445" y="441"/>
      <point x="340" y="455"/>
      <point x="265" y="455" type="curve" smooth="yes"/>
      <point x="153" y="455" type="line"/>
      <point x="30" y="458" type="line"/>
      <point x="30" y="435" type="line"/>
      <point x="46" y="433" type="line" smooth="yes"/>
      <point x="104" y="426"/>
      <point x="118" y="424"/>
      <point x="118" y="334" type="curve" smooth="yes"/>
      <point x="118" y="121" type="line" smooth="yes"/>
      <point x="118" y="31"/>
      <point x="103" y="29"/>
      <point x="45" y="22" type="curve" smooth="yes"/>
      <point x="29" y="20" type="line"/>
    </contour>
    <contour>
      <point x="250" y="24" type="line" smooth="yes"/>
      <point x="210" y="24"/>
      <point x="185" y="46"/>
      <point x="185" y="96" type="curve" smooth="yes"/>
      <point x="185" y="431" type="line"/>
      <point x="245" y="431" type="line" smooth="yes"/>
      <point x="330" y="431"/>
      <point x="368" y="410"/>
      <point x="368" y="349" type="curve" smooth="yes"/>
      <point x="368" y="288"/>
      <point x="338" y="253"/>
      <point x="284" y="253" type="curve" smooth="yes"/>
      <point x="179" y="253" type="line"/>
      <point x="179" y="229" type="line"/>
      <point x="260" y="229" type="line" smooth="yes"/>
      <point x="332" y="229"/>
      <point x="397" y="222"/>
      <point x="397" y="131" type="curve" smooth="yes"/>
      <point x="397" y="58"/>
      <point x="362" y="24"/>
      <point x="288" y="24" type="curve" smooth="yes"/>
    </contour>
    <contour>
      <point x="262" y="0" type="move" name="bottom"/>
    </contour>
    <contour>
      <point x="262" y="455" type="move" name="top"/>
    </contour>
  </outline>
</glyph>
<glyph name="brevecomb.case" format="1">
  <advance width="299"/>
  <outline>
    <component base="breve" yOffset="241"/>
    <contour>
      <point x="150" y="710" type="move" name="_top"/>
    </contour>
    <contour>
      <point x="152" y="908" type="move" name="top"/>
    </contour>
  </outline>
</glyph>
<glyph name="c.sc" format="1">
  <advance width="510"/>
  <outline>
    <contour>
      <point x="260" y="-11" type="curve" smooth="yes"/>
      <point x="310" y="-11"/>
      <point x="349" y="7"/>
      <point x="376" y="20" type="curve" smooth="yes"/>
      <point x="392" y="28"/>
      <point x="404" y="34"/>
      <point x="411" y="34" type="curve" smooth="yes"/>
      <point x="428" y="34"/>
      <point x="433" y="13"/>
      <point x="435" y="0" type="curve"/>
      <point x="453" y="0" type="line"/>
      <point x="450" y="88" type="line"/>
      <point x="452" y="175" type="line"/>
      <point x="428" y="175" type="line"/>
      <point x="420" y="89"/>
      <point x="362" y="19"/>
      <point x="274" y="19" type="curve" smooth="yes"/>
      <point x="171" y="19"/>
      <point x="127" y="109"/>
      <point x="127" y="218" type="curve" smooth="yes"/>
      <point x="127" y="334"/>
      <point x="168" y="439"/>
      <point x="278" y="439" type="curve" smooth="yes"/>
      <point x="350" y="439"/>
      <point x="410" y="394"/>
      <point x="426" y="306" type="curve"/>
      <point x="450" y="306" type="line"/>
      <point x="449" y="387" type="line"/>
      <point x="452" y="459" type="line"/>
      <point x="427" y="459" type="line"/>
      <point x="426" y="438"/>
      <point x="420" y="431"/>
      <point x="411" y="431" type="curve" smooth="yes"/>
      <point x="401" y="431"/>
      <point x="388" y="437"/>
      <point x="365" y="448" type="curve" smooth="yes"/>
      <point x="336" y="462"/>
      <point x="298" y="469"/>
      <point x="274" y="469" type="curve" smooth="yes"/>
      <point x="147" y="469"/>
      <point x="47" y="363"/>
      <point x="47" y="218" type="curve" smooth="yes"/>
      <point x="47" y="101"/>
      <point x="130" y="-11"/>
    </contour>
    <contour>
      <point x="265" y="0" type="move" name="bottom"/>
    </contour>
    <contour>
      <point x="275" y="455" type="move" name="top"/>
    </contour>
  </outline>
</glyph>
<glyph name="caron.alt" format="1">
  <advance width="171"/>
  <outline>
    <contour>
      <point x="32" y="509" type="line"/>
      <point x="56" y="509" type="line"/>
      <point x="108" y="655" type="line" smooth="yes"/>
      <point x="119" y="687"/>
      <point x="120" y="724"/>
      <point x="87" y="724" type="curve" smooth="yes"/>
      <point x="70" y="724"/>
      <point x="56" y="712"/>
      <point x="51" y="666" type="curve" smooth="yes"/>
    </contour>
  </outline>
</glyph>
<glyph name="caroncomb.alt" format="1">
  <advance width="182"/>
  <outline>
    <component base="caron.alt"/>
    <contour>
      <point x="78" y="436" type="move" name="_top"/>
    </contour>
    <contour>
      <point x="58" y="436" type="move" name="_topright"/>
    </contour>
    <contour>
      <point x="80" y="651" type="move" name="top"/>
    </contour>
  </outline>
</glyph>
<glyph name="circumflexcomb.sc" format="1">
  <advance width="310"/>
  <outline>
    <component base="circumflex" yOffset="240"/>
    <contour>
      <point x="156" y="710" type="move" name="_top"/>
    </contour>
    <contour>
      <point x="155" y="908" type="move" name="top"/>
    </contour>
  </outline>
</glyph>
<glyph name="d.sc" format="1">
  <advance width="578"/>
  <outline>
    <contour>
      <point x="38" y="-3" type="line"/>
      <point x="148" y="0" type="line"/>
      <point x="264" y="0" type="line" smooth="yes"/>
      <point x="362" y="0"/>
      <point x="531" y="43"/>
      <point x="531" y="232" type="curve" smooth="yes"/>
      <point x="531" y="452"/>
      <point x="307" y="455"/>
      <point x="251" y="455" type="curve" smooth="yes"/>
      <point x="152" y="455" type="line"/>
      <point x="29" y="458" type="line"/>
      <point x="29" y="435" type="line"/>
      <point x="45" y="433" type="line" smooth="yes"/>
      <point x="103" y="426"/>
      <point x="117" y="424"/>
      <point x="117" y="334" type="curve" smooth="yes"/>
      <point x="117" y="108" type="line" smooth="yes"/>
      <point x="117" y="27"/>
      <point x="104" y="25"/>
      <point x="52" y="19" type="curve" smooth="yes"/>
      <point x="38" y="17" type="line"/>
    </contour>
    <contour>
      <point x="234" y="25" type="line" smooth="yes"/>
      <point x="199" y="25"/>
      <point x="187" y="51"/>
      <point x="187" y="103" type="curve" smooth="yes"/>
      <point x="187" y="430" type="line"/>
      <point x="269" y="430" type="line" smooth="yes"/>
      <point x="349" y="430"/>
      <point x="451" y="406"/>
      <point x="451" y="232" type="curve" smooth="yes"/>
      <point x="451" y="29"/>
      <point x="298" y="25"/>
      <point x="267" y="25" type="curve" smooth="yes"/>
    </contour>
    <contour>
      <point x="298" y="0" type="move" name="bottom"/>
    </contour>
    <contour>
      <point x="171" y="228" type="move" name="center"/>
    </contour>
    <contour>
      <point x="238" y="455" type="move" name="top"/>
    </contour>
  </outline>
</glyph>
